<svg width="24" height="24" viewBox="0 0 24 24" fill="none" xmlns="http://www.w3.org/2000/svg">
<path d="M9.49946 4.74988C9.08525 4.74988 8.74946 5.08567 8.74946 5.49988C8.74946 5.91409 9.08525 6.24988 9.49946 6.24988L16.6888 6.24988L5.10517 17.8335C4.81227 18.1264 4.81227 18.6013 5.10517 18.8942C5.39806 19.1871 5.87293 19.1871 6.16583 18.8942L17.7495 7.31054V14.4999C17.7495 14.9141 18.0852 15.2499 18.4995 15.2499C18.9137 15.2499 19.2495 14.9141 19.2495 14.4999L19.2495 5.49988C19.2495 5.30097 19.1704 5.1102 19.0298 4.96955C18.8891 4.8289 18.6984 4.74988 18.4995 4.74988L9.49946 4.74988Z" fill="#2D2E2E"/>
</svg>
