<svg width="24" height="24" viewBox="0 0 24 24" fill="none" xmlns="http://www.w3.org/2000/svg">
<path d="M5.46961 9.53033C5.17672 9.23744 5.17672 8.76256 5.46961 8.46967L11.4696 2.46967C11.6103 2.32902 11.801 2.25 11.9999 2.25C12.1988 2.25 12.3896 2.32902 12.5303 2.46967L18.5303 8.46967C18.8232 8.76256 18.8232 9.23744 18.5303 9.53033C18.2374 9.82322 17.7625 9.82322 17.4696 9.53033L12.7499 4.81066L12.7499 21C12.7499 21.4142 12.4141 21.75 11.9999 21.75C11.5857 21.75 11.2499 21.4142 11.2499 21L11.2499 4.81066L6.53027 9.53033C6.23738 9.82322 5.7625 9.82322 5.46961 9.53033Z" fill="#2D2E2E"/>
</svg>
