<svg width="24" height="24" viewBox="0 0 24 24" fill="none" xmlns="http://www.w3.org/2000/svg">
<path fill-rule="evenodd" clip-rule="evenodd" d="M13.4552 2.29899C12.5246 1.90717 11.4754 1.90717 10.5448 2.29899L2.8209 5.55116C2.17198 5.82439 1.75 6.45992 1.75 7.16402V8.50004C1.75 9.46654 2.5335 10.25 3.5 10.25H3.75V19.7502H3C2.58579 19.7502 2.25 20.086 2.25 20.5002C2.25 20.9144 2.58579 21.2502 3 21.2502H21C21.4142 21.2502 21.75 20.9144 21.75 20.5002C21.75 20.086 21.4142 19.7502 21 19.7502H20.25V10.25H20.5C21.4665 10.25 22.25 9.46654 22.25 8.50004V7.16402C22.25 6.45992 21.828 5.82439 21.1791 5.55116L13.4552 2.29899ZM11.1269 3.68145C11.6852 3.44635 12.3148 3.44635 12.8731 3.68145L20.597 6.93361C20.6897 6.97264 20.75 7.06343 20.75 7.16402V8.50004C20.75 8.63811 20.6381 8.75004 20.5 8.75004H3.5C3.36193 8.75004 3.25 8.63812 3.25 8.50004V7.16402C3.25 7.06343 3.31028 6.97264 3.40299 6.93361L11.1269 3.68145ZM18.75 10.25H17.25V19.7502H18.75V10.25ZM15.75 10.25V19.7502H14.25V10.25H15.75ZM12.75 10.25H11.25V19.7502H12.75V10.25ZM9.75 10.25V19.7502H8.25V10.25H9.75ZM6.75 10.25H5.25V19.7502H6.75V10.25Z" fill="#2D2E2E"/>
</svg>
