<svg width="24" height="24" viewBox="0 0 24 24" fill="none" xmlns="http://www.w3.org/2000/svg">
<path d="M8.5004 10.25C8.91461 10.25 9.2504 10.5858 9.2504 11V14.5366L10.8355 15.3292C11.2059 15.5145 11.3561 15.965 11.1708 16.3354C10.9856 16.7059 10.5351 16.8561 10.1646 16.6708L8.17229 15.6746C7.92251 15.5529 7.7504 15.2966 7.7504 15V14.9705" fill="#2D2E2E"/>
<path fill-rule="evenodd" clip-rule="evenodd" d="M14.6389 3.90873C13.3224 3.1188 11.6776 3.1188 10.3611 3.90873C10.0985 4.06628 9.77624 4.08815 9.49478 3.96752L9.11988 3.80686C7.52461 3.12317 5.75 4.29334 5.75 6.02894V8.33377C3.39277 9.38664 1.75 11.7515 1.75 14.5C1.75 18.2279 4.77208 21.25 8.5 21.25C8.62603 21.25 8.75125 21.2466 8.87558 21.2397C8.91605 21.2465 8.95761 21.25 9 21.25H16.5C18.0188 21.25 19.25 20.0188 19.25 18.5V18.25H20.5C21.4665 18.25 22.25 17.4665 22.25 16.5V10.5C22.25 9.53353 21.4665 8.75002 20.5 8.75002H19.25V6.02894C19.25 4.29334 17.4754 3.12317 15.8801 3.80686L15.5052 3.96752C15.2238 4.08815 14.9015 4.06628 14.6389 3.90873ZM12.743 19.75H16.5C17.1904 19.75 17.75 19.1904 17.75 18.5V9.25002H14C13.5858 9.25002 13.25 8.91424 13.25 8.50002C13.25 8.08581 13.5858 7.75002 14 7.75002H17.75V6.02894C17.75 5.37021 17.0765 4.92609 16.471 5.18557L16.0961 5.34624C15.3719 5.6566 14.5428 5.60033 13.8672 5.19497C13.0257 4.69006 11.9743 4.69006 11.1328 5.19497C10.4572 5.60033 9.62807 5.6566 8.9039 5.34624L8.52901 5.18557C7.92354 4.92609 7.25 5.37021 7.25 6.02894V7.86554C7.65508 7.78969 8.07291 7.75002 8.5 7.75002C12.2279 7.75002 15.25 10.7721 15.25 14.5C15.25 16.6205 14.2723 18.5126 12.743 19.75ZM19.25 10.25V16.75H20.5C20.6381 16.75 20.75 16.6381 20.75 16.5V10.5C20.75 10.362 20.6381 10.25 20.5 10.25H19.25ZM3.25 14.5C3.25 11.6005 5.60051 9.25002 8.5 9.25002C11.3995 9.25002 13.75 11.6005 13.75 14.5C13.75 17.3995 11.3995 19.75 8.5 19.75C5.60051 19.75 3.25 17.3995 3.25 14.5Z" fill="#2D2E2E"/>
</svg>
