<svg width="24" height="24" viewBox="0 0 24 24" fill="none" xmlns="http://www.w3.org/2000/svg">
<path fill-rule="evenodd" clip-rule="evenodd" d="M8.36109 3.90873C9.67763 3.1188 11.3224 3.1188 12.6389 3.90873C12.9015 4.06628 13.2238 4.08815 13.5052 3.96752L13.8801 3.80686C15.4754 3.12317 17.25 4.29334 17.25 6.02894V8.75002H18.5C19.4665 8.75002 20.25 9.53352 20.25 10.5V16.5C20.25 17.4665 19.4665 18.25 18.5 18.25H17.25V18.5C17.25 20.0188 16.0188 21.25 14.5 21.25H6.5C4.98122 21.25 3.75 20.0188 3.75 18.5V6.02894C3.75 4.29334 5.52461 3.12317 7.11988 3.80686L7.49478 3.96752C7.77624 4.08815 8.0985 4.06628 8.36109 3.90873ZM5.25 9.25002V18.5C5.25 19.1904 5.80964 19.75 6.5 19.75H14.5C15.1904 19.75 15.75 19.1904 15.75 18.5V9.25002H14.5C14.3619 9.25002 14.25 9.36195 14.25 9.50002V12.6972C14.25 13.4495 13.874 14.1521 13.2481 14.5694C12.4923 15.0732 11.5077 15.0732 10.7519 14.5694C10.126 14.1521 9.75 13.4495 9.75 12.6972V9.50002C9.75 9.36195 9.63807 9.25002 9.5 9.25002H5.25ZM15.75 7.75002H14.5C13.5335 7.75002 12.75 8.53352 12.75 9.50002V12.6972C12.75 12.948 12.6247 13.1822 12.416 13.3213C12.1641 13.4892 11.8359 13.4892 11.584 13.3213C11.3753 13.1822 11.25 12.948 11.25 12.6972V9.50002C11.25 8.53352 10.4665 7.75002 9.5 7.75002H5.25V6.02894C5.25 5.37021 5.92354 4.92609 6.52901 5.18557L6.9039 5.34624C7.62807 5.6566 8.45723 5.60033 9.13283 5.19497C9.97435 4.69006 11.0256 4.69006 11.8672 5.19497C12.5428 5.60033 13.3719 5.6566 14.0961 5.34624L14.471 5.18557C15.0765 4.92609 15.75 5.37021 15.75 6.02894V7.75002ZM17.25 10.25V16.75H18.5C18.6381 16.75 18.75 16.6381 18.75 16.5V10.5C18.75 10.362 18.6381 10.25 18.5 10.25H17.25Z" fill="#2D2E2E"/>
</svg>
