<svg width="24" height="24" viewBox="0 0 24 24" fill="none" xmlns="http://www.w3.org/2000/svg">
<path fill-rule="evenodd" clip-rule="evenodd" d="M12.75 6.5C12.75 6.08579 13.0858 5.75 13.5 5.75H16C16.328 5.75 16.618 5.96319 16.7159 6.27629L17.968 10.283C18.1422 10.2612 18.3198 10.25 18.5 10.25C20.8472 10.25 22.75 12.1528 22.75 14.5C22.75 16.8472 20.8472 18.75 18.5 18.75C16.1528 18.75 14.25 16.8472 14.25 14.5C14.25 13.7234 14.4583 12.9955 14.822 12.369L13.1327 14.903C13.0734 14.9964 12.9923 15.078 12.8917 15.1396L12.8802 15.1465C12.7569 15.219 12.6212 15.2523 12.4877 15.25H10.184C9.8298 17.2395 8.0913 18.75 6 18.75C3.65279 18.75 1.75 16.8472 1.75 14.5C1.75 12.1528 3.65279 10.25 6 10.25C6.25704 10.25 6.50874 10.2728 6.75321 10.3165L7.82688 8.1692L7.35688 7.38587C7.33054 7.34197 7.30921 7.29646 7.29274 7.25H6.5C6.08579 7.25 5.75 6.91421 5.75 6.5C5.75 6.08579 6.08579 5.75 6.5 5.75H9.5C9.91421 5.75 10.25 6.08579 10.25 6.5C10.25 6.91421 9.91421 7.25 9.5 7.25H9.02464L9.32464 7.75H15.6049L15.4486 7.25H13.5C13.0858 7.25 12.75 6.91421 12.75 6.5ZM15.1141 11.9309C15.4924 11.4332 15.9778 11.0214 16.5361 10.73L16.3378 10.0954L15.1141 11.9309ZM16.9949 12.1981C16.2452 12.6893 15.75 13.5368 15.75 14.5C15.75 16.0188 16.9812 17.25 18.5 17.25C20.0188 17.25 21.25 16.0188 21.25 14.5C21.25 12.9812 20.0188 11.75 18.5 11.75C18.4755 11.75 18.4511 11.7503 18.4267 11.751L19.2159 14.2763C19.3394 14.6717 19.1191 15.0923 18.7237 15.2159C18.3283 15.3394 17.9077 15.1191 17.7841 14.7237L16.9949 12.1981ZM11.1754 13.75H10.184C9.96387 12.5135 9.20895 11.462 8.16695 10.8432L8.74163 9.69379L11.1754 13.75ZM8.64648 13.75C8.4628 13.1006 8.04652 12.5488 7.49333 12.1904L6.71353 13.75H8.64648ZM4.82918 14.1646L6.03636 11.7502L6 11.75C4.48122 11.75 3.25 12.9812 3.25 14.5C3.25 16.0188 4.48122 17.25 6 17.25C7.25878 17.25 8.32002 16.4043 8.64648 15.25H5.5C5.24007 15.25 4.99867 15.1154 4.86201 14.8943C4.72536 14.6732 4.71293 14.3971 4.82918 14.1646ZM12.5334 13.0979L10.2246 9.25H15.0986L12.5334 13.0979Z" fill="#2D2E2E"/>
</svg>
