<svg width="24" height="24" viewBox="0 0 24 24" fill="none" xmlns="http://www.w3.org/2000/svg">
<path d="M14 3.25L10 3.25001C9.58579 3.25001 9.25 2.91422 9.25 2.50001C9.25 2.08579 9.58579 1.75001 10 1.75001L14 1.75C14.4142 1.75 14.75 2.08579 14.75 2.5C14.75 2.91421 14.4142 3.25 14 3.25Z" fill="#2D2E2E"/>
<path d="M11.25 10C11.25 9.58579 10.9142 9.25 10.5 9.25C10.0858 9.25 9.75 9.58579 9.75 10V15C9.75 15.4142 10.0858 15.75 10.5 15.75C10.9142 15.75 11.25 15.4142 11.25 15V10Z" fill="#2D2E2E"/>
<path d="M14.25 10C14.25 9.58579 13.9142 9.25 13.5 9.25C13.0858 9.25 12.75 9.58579 12.75 10V15C12.75 15.4142 13.0858 15.75 13.5 15.75C13.9142 15.75 14.25 15.4142 14.25 15V10Z" fill="#2D2E2E"/>
<path fill-rule="evenodd" clip-rule="evenodd" d="M3.25 5.5C3.25 5.08579 3.58579 4.75 4 4.75H20C20.4142 4.75 20.75 5.08579 20.75 5.5C20.75 5.91421 20.4142 6.25 20 6.25H19.25V18C19.25 20.0711 17.5711 21.75 15.5 21.75H8.5C6.42893 21.75 4.75 20.0711 4.75 18V6.25H4C3.58579 6.25 3.25 5.91421 3.25 5.5ZM6.25 6.25V18C6.25 19.2426 7.25736 20.25 8.5 20.25H15.5C16.7426 20.25 17.75 19.2426 17.75 18V6.25H6.25Z" fill="#2D2E2E"/>
</svg>
