<svg width="24" height="24" viewBox="0 0 24 24" fill="none" xmlns="http://www.w3.org/2000/svg">
<path fill-rule="evenodd" clip-rule="evenodd" d="M3.542 12.75C3.35151 12.0321 3.25 11.2779 3.25 10.5C3.25 10.4164 3.25117 10.333 3.2535 10.25H3C2.58579 10.25 2.25 9.91421 2.25 9.5C2.25 9.08579 2.58579 8.75 3 8.75H3.42503C3.62268 7.77633 3.98199 6.86138 4.47375 6.03437C4.33563 5.89834 4.25 5.70917 4.25 5.5C4.25 5.08579 4.58579 4.75 5 4.75H5.40438C7.00842 2.9116 9.36856 1.75 12 1.75C14.6314 1.75 16.9916 2.9116 18.5956 4.75H19C19.4142 4.75 19.75 5.08579 19.75 5.5C19.75 5.70917 19.6644 5.89834 19.5263 6.03437C20.018 6.86138 20.3773 7.77633 20.575 8.75H21C21.4142 8.75 21.75 9.08579 21.75 9.5C21.75 9.91421 21.4142 10.25 21 10.25H20.7465C20.7488 10.333 20.75 10.4164 20.75 10.5C20.75 11.2779 20.6485 12.0321 20.458 12.75H21.5C21.9142 12.75 22.25 13.0858 22.25 13.5C22.25 13.9142 21.9142 14.25 21.5 14.25H19.908C19.4628 15.187 18.8561 16.0323 18.1237 16.75H19C19.4142 16.75 19.75 17.0858 19.75 17.5C19.75 17.9142 19.4142 18.25 19 18.25H16.1271L17.2057 21.246C17.346 21.6357 17.1438 22.0654 16.754 22.2057C16.3643 22.346 15.9346 22.1438 15.7943 21.754L14.7358 18.8138C13.8751 19.0969 12.9555 19.25 12 19.25C11.0445 19.25 10.1249 19.0969 9.26416 18.8138L8.20567 21.754C8.06536 22.1438 7.63569 22.346 7.24596 22.2057C6.85623 22.0654 6.65403 21.6357 6.79433 21.246L7.87288 18.25H5C4.58579 18.25 4.25 17.9142 4.25 17.5C4.25 17.0858 4.58579 16.75 5 16.75H5.87627C5.14392 16.0323 4.53716 15.187 4.09204 14.25H2.5C2.08579 14.25 1.75 13.9142 1.75 13.5C1.75 13.0858 2.08579 12.75 2.5 12.75H3.542ZM4.75 10.5C4.75 10.4163 4.75142 10.333 4.75423 10.25H6C6.41421 10.25 6.75 9.91421 6.75 9.5C6.75 9.08579 6.41421 8.75 6 8.75H4.96262C5.18918 7.83591 5.58918 6.99026 6.12568 6.25H8C8.41421 6.25 8.75 5.91421 8.75 5.5C8.75 5.08579 8.41421 4.75 8 4.75H7.58352C8.44344 4.08852 9.45595 3.61562 10.5592 3.39317C10.3718 3.52952 10.25 3.75054 10.25 4C10.25 4.41421 10.5858 4.75 11 4.75H13C13.4142 4.75 13.75 4.41421 13.75 4C13.75 3.75054 13.6282 3.52952 13.4408 3.39317C14.5441 3.61562 15.5566 4.08852 16.4165 4.75H16C15.5858 4.75 15.25 5.08579 15.25 5.5C15.25 5.91421 15.5858 6.25 16 6.25H17.8743C18.4108 6.99026 18.8108 7.83591 19.0374 8.75H18C17.5858 8.75 17.25 9.08579 17.25 9.5C17.25 9.91421 17.5858 10.25 18 10.25H19.2458C19.2486 10.333 19.25 10.4163 19.25 10.5C19.25 11.2854 19.1251 12.0417 18.8941 12.75H18.5C18.0858 12.75 17.75 13.0858 17.75 13.5C17.75 13.8209 17.9516 14.0948 18.235 14.2018C17.596 15.2758 16.6874 16.1706 15.6026 16.793L13.6466 11.3595C13.0911 9.81655 10.9089 9.81655 10.3534 11.3595L8.39741 16.793C7.31257 16.1706 6.404 15.2758 5.765 14.2018C6.04844 14.0948 6.25 13.8209 6.25 13.5C6.25 13.0858 5.91421 12.75 5.5 12.75H5.10591C4.8749 12.0417 4.75 11.2854 4.75 10.5ZM14.2274 17.4014C13.5256 17.6277 12.7771 17.75 12 17.75C11.2229 17.75 10.4744 17.6277 9.77261 17.4014L11.7648 11.8676C11.8441 11.6472 12.1559 11.6472 12.2352 11.8676L14.2274 17.4014Z" fill="#2D2E2E"/>
<path d="M12 19.25H13C13.4142 19.25 13.75 19.5858 13.75 20C13.75 20.4142 13.4142 20.75 13 20.75H11C10.5858 20.75 10.25 20.4142 10.25 20C10.25 19.5858 10.5858 19.25 11 19.25H12Z" fill="#2D2E2E"/>
</svg>
