<svg width="24" height="24" viewBox="0 0 24 24" fill="none" xmlns="http://www.w3.org/2000/svg">
<path d="M15 7.75C14.5858 7.75 14.25 8.08579 14.25 8.5C14.25 8.91421 14.5858 9.25 15 9.25H19C19.4142 9.25 19.75 8.91421 19.75 8.5C19.75 8.08579 19.4142 7.75 19 7.75H15Z" fill="#2D2E2E"/>
<path d="M15 13.75C14.5858 13.75 14.25 14.0858 14.25 14.5C14.25 14.9142 14.5858 15.25 15 15.25H19C19.4142 15.25 19.75 14.9142 19.75 14.5C19.75 14.0858 19.4142 13.75 19 13.75H15Z" fill="#2D2E2E"/>
<path d="M14.25 11.5C14.25 11.0858 14.5858 10.75 15 10.75H19C19.4142 10.75 19.75 11.0858 19.75 11.5C19.75 11.9142 19.4142 12.25 19 12.25H15C14.5858 12.25 14.25 11.9142 14.25 11.5Z" fill="#2D2E2E"/>
<path fill-rule="evenodd" clip-rule="evenodd" d="M12.4693 4C10.6629 2.54501 8.41177 1.75 6.08886 1.75C5.34943 1.75 4.75 2.34943 4.75 3.08886V4.00024C3.23122 4.00024 2 5.23146 2 6.75024V17.2502C2 18.769 3.23122 20.0002 4.75 20.0002L20 20C21.1046 20 22 19.1046 22 18V6C22 4.89543 21.1046 4 20 4H12.4693ZM11.6404 5.25992C10.1232 3.99564 8.22133 3.28811 6.25 3.2515V15.1172C6.25 15.2433 6.34388 15.3496 6.46899 15.3653L7.17457 15.4535C8.91919 15.6716 10.5099 16.5618 11.6082 17.9347L12 18.4244V5.55961L11.6404 5.25992ZM4.75 5.50024C4.05964 5.50024 3.5 6.05989 3.5 6.75024V17.2502C3.5 17.9406 4.05964 18.5002 4.75 18.5002H10.1099C9.28097 17.6437 8.18098 17.091 6.98852 16.9419L6.28294 16.8537C5.40719 16.7442 4.75 15.9998 4.75 15.1172V5.50024ZM13.5 5.5H20C20.2761 5.5 20.5 5.72386 20.5 6V18C20.5 18.2761 20.2761 18.5 20 18.5H13.5V5.5Z" fill="#2D2E2E"/>
</svg>
