<svg width="24" height="24" viewBox="0 0 24 24" fill="none" xmlns="http://www.w3.org/2000/svg">
<path fill-rule="evenodd" clip-rule="evenodd" d="M8.33336 4C5.38784 4 3.00002 6.38781 3.00002 9.33333C3.00002 9.70152 3.2985 10 3.66669 10H20.3334C20.7015 10 21 9.70152 21 9.33333C21 6.38781 18.6122 4 15.6667 4H8.33336ZM15.6667 5.5H8.33336C6.50245 5.5 4.97135 6.7836 4.59086 8.5H19.4092C19.0287 6.7836 17.4976 5.5 15.6667 5.5Z" fill="#2D2E2E"/>
<path fill-rule="evenodd" clip-rule="evenodd" d="M16.5 16.3647C16.5 16.8546 15.804 16.9478 15.6751 16.4752C15.6649 16.4381 15.6542 16.4012 15.6429 16.3647C15.5589 16.0933 15.4425 15.8384 15.2987 15.6037C15.2093 15.4579 15.1094 15.3199 15 15.1906C14.3764 14.4533 13.4473 14 12.4344 14H3.90769C3.4064 14 3.00002 14.4064 3.00002 14.9077V16C3.00002 18.7614 5.2386 21 8.00002 21H16C18.7614 21 21 18.7614 21 16V15C21 14.4477 20.5523 14 20 14H16.8452C16.6546 14 16.5 14.1545 16.5 14.3452V16.3647ZM19.5 16C19.5 17.933 17.933 19.5 16 19.5H8.00002C6.06703 19.5 4.50002 17.933 4.50002 16V15.5H12.4344C13.2728 15.5 14.0074 16.0611 14.2279 16.8699C14.8173 19.0308 18 18.6046 18 16.3647V15.5H19.5V16Z" fill="#2D2E2E"/>
<path d="M6.33542 10.8292C6.18624 10.7546 6.01646 10.7319 5.85292 10.7646L3.35293 11.2646C2.94676 11.3458 2.68335 11.7409 2.76459 12.1471C2.84582 12.5533 3.24094 12.8167 3.64711 12.7354L5.89476 12.2859L7.6646 13.1708C7.87575 13.2764 8.12428 13.2764 8.33542 13.1708L10 12.3385L11.6646 13.1708C11.8758 13.2764 12.1243 13.2764 12.3354 13.1708L14 12.3385L15.6646 13.1708C15.8758 13.2764 16.1243 13.2764 16.3354 13.1708L18.1053 12.2859L20.3529 12.7354C20.7591 12.8167 21.1542 12.5533 21.2355 12.1471C21.3167 11.7409 21.0533 11.3458 20.6471 11.2646L18.1471 10.7646C17.9836 10.7319 17.8138 10.7546 17.6646 10.8292L16 11.6615L14.3354 10.8292C14.1243 10.7236 13.8758 10.7236 13.6646 10.8292L12 11.6615L10.3354 10.8292C10.1243 10.7236 9.87576 10.7236 9.66461 10.8292L8.00001 11.6615L6.33542 10.8292Z" fill="#2D2E2E"/>
</svg>
