<svg width="24" height="24" viewBox="0 0 24 24" fill="none" xmlns="http://www.w3.org/2000/svg">
<path d="M14.25 3.5C14.25 3.08579 13.9142 2.75 13.5 2.75C13.0858 2.75 12.75 3.08579 12.75 3.5V4C12.75 4.33152 12.6183 4.64946 12.3839 4.88388C12.1495 5.1183 11.8315 5.25 11.5 5.25C10.5054 5.25 9.55161 5.64509 8.84835 6.34835C8.14509 7.05161 7.75 8.00544 7.75 9V9.5C7.75 9.91421 8.08579 10.25 8.5 10.25C8.91421 10.25 9.25 9.91421 9.25 9.5V9C9.25 8.40326 9.48705 7.83097 9.90901 7.40901C10.331 6.98705 10.9033 6.75 11.5 6.75C12.2293 6.75 12.9288 6.46027 13.4445 5.94454C13.9603 5.42882 14.25 4.72935 14.25 4V3.5Z" fill="#2D2E2E"/>
<path d="M18.25 4C18.25 3.58579 17.9142 3.25 17.5 3.25C17.0858 3.25 16.75 3.58579 16.75 4V4.643C16.75 5.20181 16.528 5.73774 16.1329 6.13287C15.7377 6.52801 15.2018 6.75 14.643 6.75C13.7424 6.75 13.0039 7.07079 12.4925 7.60777C11.9905 8.1349 11.75 8.82566 11.75 9.5C11.75 9.91421 12.0858 10.25 12.5 10.25C12.9142 10.25 13.25 9.91421 13.25 9.5C13.25 9.17434 13.3665 8.8651 13.5787 8.64223C13.7816 8.42921 14.1146 8.25 14.643 8.25C15.5996 8.25 16.5171 7.86998 17.1935 7.19353C17.87 6.51709 18.25 5.59964 18.25 4.643V4Z" fill="#2D2E2E"/>
<path fill-rule="evenodd" clip-rule="evenodd" d="M18.0192 17.25C17.7149 18.3836 17.1173 19.4286 16.273 20.273C15.0071 21.5388 13.2902 22.25 11.5 22.25H9.5C7.70979 22.25 5.9929 21.5388 4.72703 20.273C3.46116 19.0071 2.75 17.2902 2.75 15.5V12.1C2.75 11.742 2.89223 11.3986 3.14541 11.1454C3.39858 10.8922 3.74196 10.75 4.1 10.75H19C19.862 10.75 20.6886 11.0924 21.2981 11.7019C21.9076 12.3114 22.25 13.138 22.25 14C22.25 14.862 21.9076 15.6886 21.2981 16.2981C20.6886 16.9076 19.862 17.25 19 17.25H18.0192ZM4.25 15.5V12.25H16.75V15.5C16.75 16.8924 16.1969 18.2277 15.2123 19.2123C14.2277 20.1969 12.8924 20.75 11.5 20.75H9.5C8.10761 20.75 6.77226 20.1969 5.78769 19.2123C4.80312 18.2277 4.25 16.8924 4.25 15.5ZM18.25 12.25V15.5C18.25 15.5835 18.2485 15.6669 18.2454 15.75H19C19.4641 15.75 19.9092 15.5656 20.2374 15.2374C20.5656 14.9092 20.75 14.4641 20.75 14C20.75 13.5359 20.5656 13.0908 20.2374 12.7626C19.9092 12.4344 19.4641 12.25 19 12.25H18.25Z" fill="#2D2E2E"/>
</svg>
