<svg width="24" height="24" viewBox="0 0 24 24" fill="none" xmlns="http://www.w3.org/2000/svg">
<path d="M6.59033 11.0105C6.59033 10.5963 6.92612 10.2605 7.34033 10.2605H8.06088C8.47509 10.2605 8.81088 10.5963 8.81088 11.0105C8.81088 11.4247 8.47509 11.7605 8.06088 11.7605H7.34033C6.92612 11.7605 6.59033 11.4247 6.59033 11.0105Z" fill="#2D2E2E"/>
<path d="M10.9077 11.0105C10.9077 10.5963 11.2435 10.2605 11.6577 10.2605H12.3783C12.7925 10.2605 13.1283 10.5963 13.1283 11.0105C13.1283 11.4247 12.7925 11.7605 12.3783 11.7605H11.6577C11.2435 11.7605 10.9077 11.4247 10.9077 11.0105Z" fill="#2D2E2E"/>
<path d="M15.2202 11.0105C15.2202 10.5963 15.556 10.2605 15.9702 10.2605H16.6908C17.105 10.2605 17.4408 10.5963 17.4408 11.0105C17.4408 11.4247 17.105 11.7605 16.6908 11.7605H15.9702C15.556 11.7605 15.2202 11.4247 15.2202 11.0105Z" fill="#2D2E2E"/>
<path d="M6.59033 14.4045C6.59033 13.9903 6.92612 13.6545 7.34033 13.6545H8.06088C8.47509 13.6545 8.81088 13.9903 8.81088 14.4045C8.81088 14.8188 8.47509 15.1545 8.06088 15.1545H7.34033C6.92612 15.1545 6.59033 14.8188 6.59033 14.4045Z" fill="#2D2E2E"/>
<path d="M10.9077 14.4045C10.9077 13.9903 11.2435 13.6545 11.6577 13.6545H12.3783C12.7925 13.6545 13.1283 13.9903 13.1283 14.4045C13.1283 14.8188 12.7925 15.1545 12.3783 15.1545H11.6577C11.2435 15.1545 10.9077 14.8188 10.9077 14.4045Z" fill="#2D2E2E"/>
<path d="M15.2202 14.4045C15.2202 13.9903 15.556 13.6545 15.9702 13.6545H16.6908C17.105 13.6545 17.4408 13.9903 17.4408 14.4045C17.4408 14.8188 17.105 15.1545 16.6908 15.1545H15.9702C15.556 15.1545 15.2202 14.8188 15.2202 14.4045Z" fill="#2D2E2E"/>
<path d="M6.59033 17.7991C6.59033 17.3849 6.92612 17.0491 7.34033 17.0491H8.06088C8.47509 17.0491 8.81088 17.3849 8.81088 17.7991C8.81088 18.2133 8.47509 18.5491 8.06088 18.5491H7.34033C6.92612 18.5491 6.59033 18.2133 6.59033 17.7991Z" fill="#2D2E2E"/>
<path d="M10.9077 17.7991C10.9077 17.3849 11.2435 17.0491 11.6577 17.0491H12.3783C12.7925 17.0491 13.1283 17.3849 13.1283 17.7991C13.1283 18.2133 12.7925 18.5491 12.3783 18.5491H11.6577C11.2435 18.5491 10.9077 18.2133 10.9077 17.7991Z" fill="#2D2E2E"/>
<path d="M15.2202 17.7991C15.2202 17.3849 15.556 17.0491 15.9702 17.0491H16.6908C17.105 17.0491 17.4408 17.3849 17.4408 17.7991C17.4408 18.2133 17.105 18.5491 16.6908 18.5491H15.9702C15.556 18.5491 15.2202 18.2133 15.2202 17.7991Z" fill="#2D2E2E"/>
<path fill-rule="evenodd" clip-rule="evenodd" d="M9.04053 3.00781C9.45474 3.00781 9.79053 3.3436 9.79053 3.75781V4.99219L14.2095 4.99219V3.75781C14.2095 3.3436 14.5453 3.00781 14.9595 3.00781C15.3737 3.00781 15.7095 3.3436 15.7095 3.75781V4.99219L19.271 4.99219C20.2375 4.99219 21.021 5.77569 21.021 6.74219L21.021 19.2422C21.021 20.2087 20.2375 20.9922 19.271 20.9922H4.72901C3.76251 20.9922 2.97901 20.2087 2.97901 19.2422L2.979 8.56403C2.979 8.56376 2.979 8.56429 2.979 8.56403C2.979 8.56376 2.979 8.5627 2.979 8.56244L2.979 6.74219C2.979 5.77569 3.76251 4.99219 4.729 4.99219L8.29053 4.99219V3.75781C8.29053 3.3436 8.62631 3.00781 9.04053 3.00781ZM4.479 9.31323L4.47901 19.2422C4.47901 19.3803 4.59093 19.4922 4.72901 19.4922H19.271C19.4091 19.4922 19.521 19.3803 19.521 19.2422L19.521 9.31323L4.479 9.31323ZM19.521 7.81323L4.479 7.81323L4.479 6.74219C4.479 6.60412 4.59093 6.49219 4.729 6.49219L19.271 6.49219C19.4091 6.49219 19.521 6.60412 19.521 6.74219V7.81323Z" fill="#2D2E2E"/>
</svg>
