<svg width="24" height="24" viewBox="0 0 24 24" fill="none" xmlns="http://www.w3.org/2000/svg">
<path d="M7.74081 4.94967L6.17708 5.47092C6.00686 5.52766 5.88009 5.67126 5.8449 5.8472L5.55808 7.28133C5.46118 7.7658 5.44086 8.26247 5.49786 8.75323C6.08404 13.8006 10.0652 17.7818 15.1126 18.368C15.6033 18.425 16.1 18.4046 16.5845 18.3077L18.0186 18.0209L18.3128 19.4918L16.8787 19.7786C16.2404 19.9063 15.5861 19.933 14.9395 19.8579C9.2008 19.1915 4.67434 14.665 4.00787 8.92627C3.93279 8.27973 3.95955 7.62541 4.08721 6.98715L4.37403 5.55303C4.51479 4.84925 5.02185 4.27485 5.70274 4.04789L7.26729 3.52637C8.11068 3.24524 9.01204 3.75559 9.2049 4.62343L10.1829 9.02446C10.2237 9.20798 10.0996 9.38737 9.91351 9.41395C9.03595 9.53932 8.67814 10.6127 9.30497 11.2396L12.6263 14.5608C13.2531 15.1877 14.3265 14.8299 14.4519 13.9523C14.4784 13.7662 14.6578 13.6421 14.8414 13.6829L19.2424 14.6609C20.1102 14.8538 20.6206 15.7551 20.3394 16.5985L19.8179 18.1631C19.591 18.844 19.0166 19.351 18.3128 19.4918L18.0186 18.0209C18.1946 17.9857 18.3382 17.859 18.3949 17.6887L18.9161 16.125L15.4479 15.3543C14.562 16.5278 12.7377 16.7936 11.5656 15.6215L8.24431 12.3002C7.07218 11.1281 7.33798 9.30377 8.51152 8.41787L7.74081 4.94967Z" fill="#2D2E2E"/>
</svg>
