<svg width="24" height="24" viewBox="0 0 24 24" fill="none" xmlns="http://www.w3.org/2000/svg">
<path d="M11.2398 6.5002C11.2398 6.08598 11.5756 5.7502 11.9898 5.7502H11.9998C12.414 5.7502 12.7498 6.08598 12.7498 6.5002C12.7498 6.91441 12.414 7.2502 11.9998 7.2502H11.9898C11.5756 7.2502 11.2398 6.91441 11.2398 6.5002Z" fill="#2D2E2E"/>
<path fill-rule="evenodd" clip-rule="evenodd" d="M7.82458 13.0002C7.82458 10.6944 9.6938 8.8252 11.9996 8.8252C14.3054 8.8252 16.1746 10.6944 16.1746 13.0002C16.1746 15.306 14.3054 17.1752 11.9996 17.1752C9.6938 17.1752 7.82458 15.306 7.82458 13.0002ZM11.9996 10.1752C10.4394 10.1752 9.17459 11.44 9.17459 13.0002C9.17459 14.5604 10.4394 15.8252 11.9996 15.8252C13.5598 15.8252 14.8246 14.5604 14.8246 13.0002C14.8246 11.44 13.5598 10.1752 11.9996 10.1752Z" fill="#2D2E2E"/>
<path fill-rule="evenodd" clip-rule="evenodd" d="M10.1664 2.8252C9.43317 2.8252 8.74046 3.13601 8.25573 3.67027C8.03442 3.91419 7.92452 4.19659 7.85999 4.41595L7.49453 5.65853H6.29959C3.83185 5.65853 1.82458 7.64838 1.82458 10.1113V16.7224C1.82458 19.1853 3.83185 21.1752 6.29958 21.1752H17.6996C20.1673 21.1752 22.1746 19.1853 22.1746 16.7224V10.1113C22.1746 7.64838 20.1673 5.65853 17.6996 5.65853H16.5046L16.1392 4.41596C16.0747 4.19659 15.9647 3.91419 15.7434 3.67027C15.2587 3.13601 14.566 2.8252 13.8327 2.8252H10.1664ZM9.25555 4.57738C9.4855 4.32394 9.81565 4.1752 10.1664 4.1752H13.8327C14.1835 4.1752 14.5137 4.32394 14.7436 4.57738C14.7684 4.60474 14.8052 4.66484 14.844 4.79689L15.352 6.52399C15.4365 6.81126 15.7002 7.00853 15.9996 7.00853H17.6996C19.4292 7.00853 20.8246 8.40142 20.8246 10.1113V16.7224C20.8246 18.4323 19.4292 19.8252 17.6996 19.8252H6.29958C4.56996 19.8252 3.17458 18.4323 3.17458 16.7224V10.1113C3.17458 8.40142 4.56996 7.00853 6.29959 7.00853H7.99959C8.29902 7.00853 8.56266 6.81126 8.64716 6.52399L9.15514 4.79688C9.19397 4.66484 9.23073 4.60474 9.25555 4.57738Z" fill="#2D2E2E"/>
<path d="M4.49958 3.3252C4.12679 3.3252 3.82458 3.6274 3.82458 4.0002C3.82458 4.37299 4.12679 4.6752 4.49958 4.6752H5.49958C5.87238 4.6752 6.17459 4.37299 6.17459 4.0002C6.17459 3.6274 5.87238 3.3252 5.49958 3.3252H4.49958Z" fill="#2D2E2E"/>
</svg>
