<svg width="24" height="24" viewBox="0 0 24 24" fill="none" xmlns="http://www.w3.org/2000/svg">
<path d="M6.16632 18.8944C5.87342 19.1873 5.39855 19.1873 5.10566 18.8944C4.81276 18.6015 4.81276 18.1266 5.10566 17.8337L10.9393 12L5.10576 6.16644C4.81287 5.87355 4.81287 5.39867 5.10576 5.10578C5.39865 4.81289 5.87353 4.81289 6.16642 5.10578L12 10.9394L17.8336 5.10578C18.1265 4.81289 18.6013 4.81289 18.8942 5.10578C19.1871 5.39867 19.1871 5.87355 18.8942 6.16644L13.0607 12L18.8943 17.8337C19.1872 18.1266 19.1872 18.6015 18.8943 18.8944C18.6015 19.1873 18.1266 19.1873 17.8337 18.8944L12 13.0607L6.16632 18.8944Z" fill="#2D2E2E"/>
</svg>
