<svg width="24" height="24" viewBox="0 0 24 24" fill="none" xmlns="http://www.w3.org/2000/svg">
<path fill-rule="evenodd" clip-rule="evenodd" d="M2.75 2.5C2.75 2.08579 3.08579 1.75 3.5 1.75H5.73444C7.12132 1.75 8.29118 2.78272 8.4632 4.1589L8.66209 5.75H11.8089C12.1685 3.48301 14.1318 1.75 16.5 1.75C19.1234 1.75 21.25 3.87665 21.25 6.5C21.25 8.97626 19.3552 11.0099 16.9363 11.2302L16.3728 19.6829C16.2765 21.1275 15.0767 22.25 13.6289 22.25H8.37111C6.92333 22.25 5.7235 21.1275 5.6272 19.6829L4.82276 7.61641C4.75542 6.60634 5.55657 5.75 6.56889 5.75H7.15041L6.97478 4.34496C6.89659 3.71942 6.36484 3.25 5.73444 3.25H3.5C3.08579 3.25 2.75 2.91421 2.75 2.5ZM17.038 9.70569C18.5769 9.44934 19.75 8.11167 19.75 6.5C19.75 4.70507 18.2949 3.25 16.5 3.25C14.9632 3.25 13.6755 4.31665 13.337 5.75H15.4311C16.4434 5.75 17.2446 6.60634 17.1772 7.61641L17.038 9.70569ZM6.56889 7.25H7.33791L7.65041 9.75H6.46833L6.31944 7.51663C6.30982 7.37233 6.42427 7.25 6.56889 7.25ZM7.12387 19.5831L6.56833 11.25H15.4317L14.8761 19.5831C14.8324 20.2398 14.287 20.75 13.6289 20.75H8.37111C7.71303 20.75 7.16765 20.2398 7.12387 19.5831ZM9.16209 9.75H15.5317L15.6806 7.51663C15.6902 7.37233 15.5757 7.25 15.4311 7.25H8.84959L9.16209 9.75Z" fill="#2D2E2E"/>
</svg>
