<svg width="24" height="24" viewBox="0 0 24 24" fill="none" xmlns="http://www.w3.org/2000/svg">
<path fill-rule="evenodd" clip-rule="evenodd" d="M7 7C7 5.34315 8.34315 4 10 4H18C19.6569 4 21 5.34315 21 7V15C21 16.6569 19.6569 18 18 18H10C8.34315 18 7 16.6569 7 15V7ZM10 5.5H18C18.8284 5.5 19.5 6.17157 19.5 7V15C19.5 15.8284 18.8284 16.5 18 16.5H10C9.17157 16.5 8.5 15.8284 8.5 15V7C8.5 6.17157 9.17157 5.5 10 5.5Z" fill="#2D2E2E"/>
<path d="M5.25 8.5C5.25 8.08579 4.91421 7.75 4.5 7.75C4.08579 7.75 3.75 8.08579 3.75 8.5V17.5C3.75 19.5711 5.42893 21.25 7.5 21.25H16.5C16.9142 21.25 17.25 20.9142 17.25 20.5C17.25 20.0858 16.9142 19.75 16.5 19.75H7.5C6.25736 19.75 5.25 18.7426 5.25 17.5V8.5Z" fill="#2D2E2E"/>
</svg>
