<svg width="24" height="24" viewBox="0 0 24 24" fill="none" xmlns="http://www.w3.org/2000/svg">
<path fill-rule="evenodd" clip-rule="evenodd" d="M11 5C11 3.34315 12.3431 2 14 2C15.6569 2 17 3.34315 17 5C17 6.65685 15.6569 8 14 8C12.3431 8 11 6.65685 11 5ZM14 6.5C13.1716 6.5 12.5 5.82843 12.5 5C12.5 4.17157 13.1716 3.5 14 3.5C14.8284 3.5 15.5 4.17157 15.5 5C15.5 5.82843 14.8284 6.5 14 6.5Z" fill="#2D2E2E"/>
<path fill-rule="evenodd" clip-rule="evenodd" d="M6 14C3.79086 14 2 15.7909 2 18C2 20.2091 3.79086 22 6 22C8.20914 22 10 20.2091 10 18C10 15.7909 8.20914 14 6 14ZM3.5 18C3.5 19.3807 4.61929 20.5 6 20.5C7.38071 20.5 8.5 19.3807 8.5 18C8.5 16.6193 7.38071 15.5 6 15.5C4.61929 15.5 3.5 16.6193 3.5 18Z" fill="#2D2E2E"/>
<path fill-rule="evenodd" clip-rule="evenodd" d="M18 14C15.7909 14 14 15.7909 14 18C14 20.2091 15.7909 22 18 22C20.2091 22 22 20.2091 22 18C22 15.7909 20.2091 14 18 14ZM15.5 18C15.5 19.3807 16.6193 20.5 18 20.5C19.3807 20.5 20.5 19.3807 20.5 18C20.5 16.6193 19.3807 15.5 18 15.5C16.6193 15.5 15.5 16.6193 15.5 18Z" fill="#2D2E2E"/>
<path d="M10.4306 8.01191C10.6975 7.7005 11.1651 7.66126 11.4801 7.92383L14.2715 10.25H18C18.4142 10.25 18.75 10.5858 18.75 11C18.75 11.4142 18.4142 11.75 18 11.75H14C13.8245 11.75 13.6546 11.6885 13.5199 11.5762L11.0881 9.54968L9.2512 11.6927L13.2785 13.3036C13.6572 13.4551 13.8455 13.8814 13.7022 14.2633L12.2022 18.2633C12.0568 18.6512 11.6245 18.8477 11.2367 18.7022C10.8488 18.5568 10.6523 18.1245 10.7978 17.7367L12.0401 14.4238L7.72146 12.6964C7.49684 12.6065 7.32935 12.4138 7.27165 12.1789C7.21394 11.9439 7.27311 11.6956 7.43056 11.5119L10.4306 8.01191Z" fill="#2D2E2E"/>
<path d="M2.5 2.75C2.08579 2.75 1.75 3.08579 1.75 3.5V11.5C1.75 11.9142 2.08579 12.25 2.5 12.25H5C5.41421 12.25 5.75 11.9142 5.75 11.5C5.75 11.0858 5.41421 10.75 5 10.75H3.25V4.25H7.75V6.5C7.75 6.91421 8.08579 7.25 8.5 7.25C8.91421 7.25 9.25 6.91421 9.25 6.5V3.5C9.25 3.08579 8.91421 2.75 8.5 2.75H2.5Z" fill="#2D2E2E"/>
</svg>
