<svg width="24" height="24" viewBox="0 0 24 24" fill="none" xmlns="http://www.w3.org/2000/svg">
<path d="M15.5304 9.53027C15.8233 9.23738 15.8233 8.76251 15.5304 8.46961C15.2375 8.17672 14.7626 8.17672 14.4697 8.46961L8.46972 14.4696C8.17682 14.7625 8.17682 15.2374 8.46972 15.5303C8.76261 15.8232 9.23748 15.8232 9.53038 15.5303L15.5304 9.53027Z" fill="#2D2E2E"/>
<path fill-rule="evenodd" clip-rule="evenodd" d="M14.5 13.2499C13.8097 13.2499 13.25 13.8096 13.25 14.4999C13.25 15.1903 13.8097 15.7499 14.5 15.7499C15.1904 15.7499 15.75 15.1903 15.75 14.4999C15.75 13.8096 15.1904 13.2499 14.5 13.2499ZM14.75 14.4999C14.75 14.638 14.6381 14.7499 14.5 14.7499C14.362 14.7499 14.25 14.638 14.25 14.4999C14.25 14.3619 14.362 14.2499 14.5 14.2499C14.6381 14.2499 14.75 14.3619 14.75 14.4999Z" fill="#2D2E2E"/>
<path fill-rule="evenodd" clip-rule="evenodd" d="M8.25005 9.49994C8.25005 8.80959 8.80969 8.24994 9.50005 8.24994C10.1904 8.24994 10.75 8.80959 10.75 9.49994C10.75 10.1903 10.1904 10.7499 9.50005 10.7499C8.80969 10.7499 8.25005 10.1903 8.25005 9.49994ZM9.50005 9.74994C9.63812 9.74994 9.75005 9.63801 9.75005 9.49994C9.75005 9.36187 9.63812 9.24994 9.50005 9.24994C9.36198 9.24994 9.25005 9.36187 9.25005 9.49994C9.25005 9.63801 9.36198 9.74994 9.50005 9.74994Z" fill="#2D2E2E"/>
<path fill-rule="evenodd" clip-rule="evenodd" d="M13.9446 3.88383C12.8706 2.80988 11.1294 2.80988 10.0555 3.88382L9.5555 4.38383C9.32108 4.61825 9.00314 4.74994 8.67162 4.74994H7.50005C5.98126 4.74994 4.75005 5.98116 4.75005 7.49994V8.56319C4.75005 8.93417 4.58527 9.28598 4.30028 9.52347L3.86364 9.88733C2.54432 10.9868 2.54431 13.0131 3.86364 14.1126L4.30028 14.4764C4.58527 14.7139 4.75005 15.0657 4.75005 15.4367V16.4999C4.75005 18.0187 5.98126 19.2499 7.50005 19.2499H8.67162C9.00314 19.2499 9.32108 19.3816 9.5555 19.6161L10.0555 20.1161C11.1294 21.19 12.8706 21.19 13.9446 20.1161L14.4446 19.6161C14.679 19.3816 14.997 19.2499 15.3285 19.2499H16.5C18.0188 19.2499 19.25 18.0187 19.25 16.4999V15.3284C19.25 14.9968 19.3817 14.6789 19.6162 14.4445L20.2389 13.8218C21.2446 12.816 21.3175 11.2094 20.407 10.1167L19.5398 9.07607C19.3526 8.85143 19.25 8.56826 19.25 8.27584V7.49994C19.25 5.98116 18.0188 4.74994 16.5 4.74994H15.3285C14.997 4.74994 14.679 4.61825 14.4446 4.38383L13.9446 3.88383ZM11.1162 4.94448C11.6043 4.45633 12.3958 4.45633 12.8839 4.94449L13.3839 5.44449C13.8997 5.96021 14.5991 6.24994 15.3285 6.24994H16.5C17.1904 6.24994 17.75 6.80959 17.75 7.49994V8.27584C17.75 8.91917 17.9756 9.54213 18.3874 10.0363L19.2546 11.077C19.6685 11.5736 19.6354 12.3039 19.1782 12.7611L18.5555 13.3838C18.0398 13.8996 17.75 14.599 17.75 15.3284V16.4999C17.75 17.1903 17.1904 17.7499 16.5 17.7499H15.3285C14.5991 17.7499 13.8997 18.0397 13.3839 18.5554L12.8839 19.0554C12.3958 19.5436 11.6043 19.5436 11.1162 19.0554L10.6162 18.5554C10.1004 18.0397 9.40096 17.7499 8.67162 17.7499H7.50005C6.80969 17.7499 6.25005 17.1903 6.25005 16.4999V15.4367C6.25005 14.6205 5.88753 13.8466 5.26055 13.3241L4.82391 12.9602C4.22422 12.4605 4.22422 11.5394 4.82392 11.0397L5.26055 10.6758C5.88753 10.1533 6.25005 9.37934 6.25005 8.56319V7.49994C6.25005 6.80959 6.80969 6.24994 7.50005 6.24994H8.67162C9.40096 6.24994 10.1004 5.96021 10.6162 5.44449L11.1162 4.94448Z" fill="#2D2E2E"/>
</svg>
