<svg width="24" height="24" viewBox="0 0 24 24" fill="none" xmlns="http://www.w3.org/2000/svg">
<path d="M13.25 2.5C13.25 2.08579 12.9142 1.75 12.5 1.75C12.0858 1.75 11.75 2.08579 11.75 2.5V5.75H11.1C10.6306 5.75 10.25 6.13056 10.25 6.6L10.25 9.26778C9.40195 9.38909 8.75002 10.1184 8.75002 11.0001L8.75002 16.2677C7.90194 16.389 7.25 17.1184 7.25 18V21.5C7.25 21.9142 7.58579 22.25 8 22.25C8.41421 22.25 8.75 21.9142 8.75 21.5V18C8.75 17.8619 8.86193 17.75 9 17.75H10.25L10.25 11.0001C10.25 10.862 10.3619 10.7501 10.5 10.7501H11.75L11.75 7.25H13.25L13.25 10.7501H14.5C14.6381 10.7501 14.75 10.862 14.75 11.0001L14.75 17.75H16C16.1381 17.75 16.25 17.8619 16.25 18V21.5C16.25 21.9142 16.5858 22.25 17 22.25C17.4142 22.25 17.75 21.9142 17.75 21.5V18C17.75 17.1184 17.0981 16.389 16.25 16.2677L16.25 11.0001C16.25 10.1184 15.5981 9.38909 14.75 9.26778V6.6C14.75 6.13056 14.3694 5.75 13.9 5.75H13.25V2.5Z" fill="#2D2E2E"/>
</svg>
