<svg width="24" height="24" viewBox="0 0 24 24" fill="none" xmlns="http://www.w3.org/2000/svg">
<path fill-rule="evenodd" clip-rule="evenodd" d="M8.99994 20.0002L3.69042 20.8851C3.35201 20.9415 3.05862 20.6481 3.11502 20.3097L3.99994 15.0002L15.5857 3.4144C16.3668 2.63335 17.6331 2.63335 18.4142 3.4144L20.5857 5.58597C21.3668 6.36702 21.3668 7.63335 20.5857 8.4144L8.99994 20.0002ZM5.40051 15.7209L14.0302 7.09124L16.9089 9.96992L8.27919 18.5996L4.82477 19.1754L5.40051 15.7209ZM17.9696 8.90926L15.0909 6.03058L16.6464 4.47506C16.8417 4.2798 17.1582 4.2798 17.3535 4.47506L19.5251 6.64663C19.7203 6.84189 19.7203 7.15848 19.5251 7.35374L17.9696 8.90926Z" fill="#2D2E2E"/>
<path d="M12.4998 19.7501C12.0856 19.7501 11.7498 20.0859 11.7498 20.5001C11.7498 20.9143 12.0856 21.2501 12.4998 21.2501H20.4998C20.914 21.2501 21.2498 20.9143 21.2498 20.5001C21.2498 20.0859 20.914 19.7501 20.4998 19.7501H12.4998Z" fill="#2D2E2E"/>
</svg>
