<svg width="24" height="24" viewBox="0 0 24 24" fill="none" xmlns="http://www.w3.org/2000/svg">
<path fill-rule="evenodd" clip-rule="evenodd" d="M12.1871 4.55785C8.91974 4.47385 5.89625 6.62391 5.00733 9.91924C3.9645 13.7851 6.25303 17.7644 10.1189 18.8073C13.3338 19.6745 16.6283 18.2375 18.2456 15.5052C17.2963 15.889 16.0529 16.2369 14.7562 16.1601C13.0976 16.0618 11.4153 15.2688 10.215 13.1816C8.98365 11.0406 9.1503 9.09182 9.87354 7.52166C10.4597 6.2491 11.3996 5.24413 12.1871 4.55785ZM14.0371 4.0828C14.1251 4.52142 13.9847 5.03269 13.5674 5.3615C12.7995 5.96669 11.7963 6.93266 11.236 8.14921C10.695 9.3237 10.5503 10.756 11.5152 12.4338C12.4535 14.0653 13.6699 14.5931 14.8449 14.6627C16.0772 14.7357 17.3258 14.3035 18.2191 13.879C18.7193 13.6412 19.2581 13.7607 19.612 14.0527C19.9804 14.3567 20.2119 14.9144 19.9469 15.4878C18.191 19.2867 13.9055 21.3823 9.72824 20.2555C5.06253 18.9969 2.3005 14.1943 3.55909 9.52857C4.7014 5.29393 8.7621 2.62841 12.9911 3.11185C13.5868 3.17995 13.946 3.62879 14.0371 4.0828Z" fill="#2D2E2E"/>
<path fill-rule="evenodd" clip-rule="evenodd" d="M19.4502 1C19.806 1 20.1128 1.25002 20.1847 1.5985L20.4116 2.69872C20.5196 3.22234 20.8106 3.6904 21.2323 4.01902L21.4112 4.1584C21.5935 4.30051 21.7002 4.51879 21.7002 4.75C21.7002 4.98121 21.5935 5.19949 21.4112 5.3416L21.2323 5.48098C20.8106 5.8096 20.5196 6.27766 20.4116 6.80129L20.1847 7.9015C20.1128 8.24998 19.806 8.5 19.4502 8.5C19.0944 8.5 18.7875 8.24998 18.7156 7.9015L18.4887 6.80129C18.3807 6.27766 18.0898 5.8096 17.6681 5.48098L17.4892 5.3416C17.3068 5.19949 17.2002 4.98121 17.2002 4.75C17.2002 4.51879 17.3068 4.30051 17.4892 4.1584L17.6681 4.01902C18.0898 3.6904 18.3807 3.22234 18.4887 2.69872L18.7156 1.5985C18.7875 1.25002 19.0944 1 19.4502 1ZM19.4502 4.25538C19.3392 4.43001 19.2138 4.5955 19.075 4.75C19.2138 4.9045 19.3392 5.06999 19.4502 5.24462C19.5611 5.06999 19.6866 4.9045 19.8253 4.75C19.6866 4.5955 19.5611 4.43001 19.4502 4.25538Z" fill="#2D2E2E"/>
<path fill-rule="evenodd" clip-rule="evenodd" d="M16.2002 6C16.5165 6 16.7892 6.20001 16.8531 6.4788L17.0548 7.35897C17.1508 7.77787 17.4094 8.15232 17.7843 8.41522L17.9433 8.52672C18.1054 8.64041 18.2002 8.81504 18.2002 9C18.2002 9.18497 18.1054 9.35959 17.9433 9.47328L17.7843 9.58478C17.4094 9.84768 17.1508 10.2221 17.0548 10.641L16.8531 11.5212C16.7892 11.8 16.5165 12 16.2002 12C15.8839 12 15.6111 11.8 15.5473 11.5212L15.3455 10.641C15.2496 10.2221 14.9909 9.84768 14.6161 9.58478L14.4571 9.47328C14.295 9.35959 14.2002 9.18497 14.2002 9C14.2002 8.81504 14.295 8.64041 14.4571 8.52672L14.6161 8.41522C14.9909 8.15232 15.2496 7.77787 15.3455 7.35897L15.5473 6.4788C15.6111 6.20001 15.8839 6 16.2002 6ZM16.2002 8.60431C16.1015 8.74401 15.99 8.8764 15.8667 9C15.99 9.1236 16.1015 9.25599 16.2002 9.39569C16.2988 9.25599 16.4103 9.1236 16.5337 9C16.4103 8.8764 16.2988 8.74401 16.2002 8.60431Z" fill="#2D2E2E"/>
</svg>
