<svg width="24" height="24" viewBox="0 0 24 24" fill="none" xmlns="http://www.w3.org/2000/svg">
<path d="M6 3.25C4.48122 3.25 3.25 4.48122 3.25 6V7.17157C3.25 7.90092 3.53973 8.60039 4.05546 9.11612L8.17678 13.2374C8.22366 13.2843 8.25 13.3479 8.25 13.4142V19.5858C8.25 21.1449 10.135 21.9257 11.2374 20.8232L11.5303 20.5303C11.8232 20.2374 11.8232 19.7626 11.5303 19.4697C11.2374 19.1768 10.7626 19.1768 10.4697 19.4697L10.1768 19.7626C10.0193 19.9201 9.75 19.8085 9.75 19.5858V13.4142C9.75 12.9501 9.56563 12.505 9.23744 12.1768L5.11612 8.05546C4.8817 7.82104 4.75 7.50309 4.75 7.17157V6C4.75 5.30964 5.30964 4.75 6 4.75H18C18.6904 4.75 19.25 5.30964 19.25 6V7.17157C19.25 7.50309 19.1183 7.82104 18.8839 8.05546L15.4697 11.4697C15.1768 11.7626 15.1768 12.2374 15.4697 12.5303C15.7626 12.8232 16.2374 12.8232 16.5303 12.5303L19.9445 9.11612C20.4603 8.60039 20.75 7.90092 20.75 7.17157V6C20.75 4.48122 19.5188 3.25 18 3.25H6Z" fill="#2D2E2E"/>
<path d="M13.5 13.75C13.0858 13.75 12.75 14.0858 12.75 14.5C12.75 14.9142 13.0858 15.25 13.5 15.25H18.5C18.9142 15.25 19.25 14.9142 19.25 14.5C19.25 14.0858 18.9142 13.75 18.5 13.75H13.5Z" fill="#2D2E2E"/>
<path d="M13.5 16.25C13.0858 16.25 12.75 16.5858 12.75 17C12.75 17.4142 13.0858 17.75 13.5 17.75H18.5C18.9142 17.75 19.25 17.4142 19.25 17C19.25 16.5858 18.9142 16.25 18.5 16.25H13.5Z" fill="#2D2E2E"/>
<path d="M13.5 18.75C13.0858 18.75 12.75 19.0858 12.75 19.5C12.75 19.9142 13.0858 20.25 13.5 20.25H18.5C18.9142 20.25 19.25 19.9142 19.25 19.5C19.25 19.0858 18.9142 18.75 18.5 18.75H13.5Z" fill="#2D2E2E"/>
</svg>
