<svg width="24" height="24" viewBox="0 0 24 24" fill="none" xmlns="http://www.w3.org/2000/svg">
<path fill-rule="evenodd" clip-rule="evenodd" d="M7.73333 1.75C6.63797 1.75 5.75 2.63797 5.75 3.73333V6C5.75 6.04844 5.75469 6.09677 5.76401 6.14431L6.17196 8.22481C6.26719 8.71052 6.54059 9.14306 6.93846 9.43748L8.55417 10.6331C8.67734 10.7243 8.75 10.8684 8.75 11.0216V19C8.75 20.7949 10.2051 22.25 12 22.25C13.7949 22.25 15.25 20.7949 15.25 19V11.0216C15.25 10.8684 15.3227 10.7243 15.4458 10.6331L17.0615 9.43748C17.4594 9.14306 17.7328 8.71052 17.828 8.22481L18.236 6.14431C18.2453 6.09677 18.25 6.04844 18.25 6V3.73333C18.25 2.63797 17.362 1.75 16.2667 1.75H7.73333ZM7.25 3.73333C7.25 3.4664 7.4664 3.25 7.73333 3.25H16.2667C16.5336 3.25 16.75 3.4664 16.75 3.73333V5.25H7.25V3.73333ZM7.41134 6.75H16.5887L16.3561 7.93619C16.3329 8.05456 16.2662 8.15997 16.1693 8.23171L14.5536 9.42734C14.0481 9.80136 13.75 10.3929 13.75 11.0216V19C13.75 19.9665 12.9665 20.75 12 20.75C11.0335 20.75 10.25 19.9665 10.25 19V11.0216C10.25 10.3929 9.95186 9.80136 9.44644 9.42735L7.83072 8.23171C7.73376 8.15997 7.66714 8.05456 7.64393 7.93619L7.41134 6.75Z" fill="#2D2E2E"/>
</svg>
