<svg width="24" height="24" viewBox="0 0 24 24" fill="none" xmlns="http://www.w3.org/2000/svg">
<path d="M13.25 8.5C13.25 8.08579 13.5858 7.75 14 7.75H17.5C17.9142 7.75 18.25 8.08579 18.25 8.5C18.25 8.91421 17.9142 9.25 17.5 9.25H14C13.5858 9.25 13.25 8.91421 13.25 8.5Z" fill="#2D2E2E"/>
<path d="M14 10.75C13.5858 10.75 13.25 11.0858 13.25 11.5C13.25 11.9142 13.5858 12.25 14 12.25H17.5C17.9142 12.25 18.25 11.9142 18.25 11.5C18.25 11.0858 17.9142 10.75 17.5 10.75H14Z" fill="#2D2E2E"/>
<path d="M13.25 14.5C13.25 14.0858 13.5858 13.75 14 13.75H17.5C17.9142 13.75 18.25 14.0858 18.25 14.5C18.25 14.9142 17.9142 15.25 17.5 15.25H14C13.5858 15.25 13.25 14.9142 13.25 14.5Z" fill="#2D2E2E"/>
<path fill-rule="evenodd" clip-rule="evenodd" d="M10 8H6C5.44772 8 5 8.44772 5 9V13C5 13.5523 5.44772 14 6 14H10C10.5523 14 11 13.5523 11 13V9C11 8.44772 10.5523 8 10 8ZM6.5 12.5V9.5H9.5V12.5H6.5Z" fill="#2D2E2E"/>
<path fill-rule="evenodd" clip-rule="evenodd" d="M6 4C3.79086 4 2 5.79086 2 8V16C2 18.2091 3.79086 20 6 20H18C20.2091 20 22 18.2091 22 16V8C22 5.79086 20.2091 4 18 4H6ZM18 5.5H6C4.61929 5.5 3.5 6.61929 3.5 8V16C3.5 17.3807 4.61929 18.5 6 18.5H18C19.3807 18.5 20.5 17.3807 20.5 16V8C20.5 6.61929 19.3807 5.5 18 5.5Z" fill="#2D2E2E"/>
</svg>
