<svg width="24" height="24" viewBox="0 0 24 24" fill="none" xmlns="http://www.w3.org/2000/svg">
<path fill-rule="evenodd" clip-rule="evenodd" d="M12.75 15.5867L15.7048 13.9586C16.8347 13.336 17.7352 12.3674 18.274 11.1951C18.7483 10.163 18.9216 9.01784 18.7737 7.89156L18.1142 2.8698C18.0489 2.37212 17.6247 2 17.1228 2H6.87729C6.37534 2 5.95116 2.37212 5.88581 2.86981L5.22638 7.89156C5.07849 9.01784 5.2517 10.163 5.72608 11.1951C6.26484 12.3674 7.16534 13.336 8.2953 13.9586L11.25 15.5867V20.75H7.50002C7.08581 20.75 6.75002 21.0858 6.75002 21.5C6.75002 21.9142 7.08581 22.25 7.50002 22.25H16.5C16.9142 22.25 17.25 21.9142 17.25 21.5C17.25 21.0858 16.9142 20.75 16.5 20.75H12.75V15.5867ZM16.6841 3.5H7.31593L6.71362 8.08685C6.60251 8.933 6.73264 9.79331 7.08902 10.5687C7.49378 11.4494 8.1703 12.1771 9.0192 12.6449L11.937 14.2526C11.9578 14.2509 11.9788 14.25 12 14.25C12.0213 14.25 12.0423 14.2509 12.0631 14.2526L14.9808 12.6449C15.8297 12.1771 16.5063 11.4494 16.911 10.5687C17.2674 9.79332 17.3975 8.93299 17.2864 8.08685L16.6841 3.5Z" fill="#2D2E2E"/>
</svg>
