<svg width="24" height="24" viewBox="0 0 24 24" fill="none" xmlns="http://www.w3.org/2000/svg">
<path fill-rule="evenodd" clip-rule="evenodd" d="M13.5303 4.96967C13.8232 5.26256 13.8232 5.73744 13.5303 6.03033L11.7533 7.8074C11.7602 7.82959 11.7663 7.85231 11.7713 7.87551L12.63 11.8618L16.6148 12.6649C16.6577 12.6735 16.699 12.6857 16.7384 12.7009L18.4697 10.9697C18.7626 10.6768 19.2374 10.6768 19.5303 10.9697C19.8232 11.2626 19.8232 11.7374 19.5303 12.0303L14.2872 17.2735C13.637 17.9236 12.7049 18.2058 11.8033 18.0255L8.24651 17.3142L7.53033 18.0303C7.23744 18.3232 6.76256 18.3232 6.46967 18.0303C6.17678 17.7374 6.17678 17.2626 6.46967 16.9697L7.18585 16.2535L6.47448 12.6967C6.29416 11.7951 6.57637 10.863 7.22653 10.2128L12.4697 4.96967C12.7626 4.67678 13.2374 4.67678 13.5303 4.96967ZM9.73051 9.83015L10.4935 9.06711L11.2027 12.3591C11.3046 12.8323 11.6773 13.2 12.1517 13.2956L15.4742 13.9652L14.6699 14.7695L14.6627 14.7679L10.6286 13.8714L9.73214 9.8373L9.73051 9.83015ZM8.47333 11.0873L8.28719 11.2735C7.99167 11.569 7.86339 11.9927 7.94535 12.4025L8.63738 15.8626L12.0975 16.5546C12.5073 16.6366 12.931 16.5083 13.2265 16.2128L13.4127 16.0267L10.1272 15.2966C9.66606 15.1941 9.30591 14.8339 9.20344 14.3728L8.47333 11.0873Z" fill="#2D2E2E"/>
<path d="M18.0306 7.53035C18.3235 7.23747 18.3235 6.7626 18.0306 6.46969C17.7377 6.17679 17.2628 6.17677 16.9699 6.46965L13.9697 9.46965C13.6768 9.76253 13.6768 10.2374 13.9696 10.5303C14.2625 10.8232 14.7374 10.8232 15.0303 10.5304L18.0306 7.53035Z" fill="#2D2E2E"/>
<path d="M16.0303 5.46967C16.3232 5.76256 16.3232 6.23744 16.0303 6.53033L14.5303 8.03033C14.2374 8.32322 13.7626 8.32322 13.4697 8.03033C13.1768 7.73744 13.1768 7.26256 13.4697 6.96967L14.9697 5.46967C15.2626 5.17678 15.7374 5.17678 16.0303 5.46967Z" fill="#2D2E2E"/>
<path d="M19.0303 9.53033C19.3232 9.23744 19.3232 8.76256 19.0303 8.46967C18.7374 8.17678 18.2626 8.17678 17.9697 8.46967L16.4697 9.96967C16.1768 10.2626 16.1768 10.7374 16.4697 11.0303C16.7626 11.3232 17.2374 11.3232 17.5303 11.0303L19.0303 9.53033Z" fill="#2D2E2E"/>
<path fill-rule="evenodd" clip-rule="evenodd" d="M12 1.75C6.33908 1.75 1.75 6.33908 1.75 12C1.75 17.6609 6.33908 22.25 12 22.25C17.6609 22.25 22.25 17.6609 22.25 12C22.25 6.33908 17.6609 1.75 12 1.75ZM6.36578 5.30512C7.88802 4.02271 9.85377 3.25 12 3.25C16.8325 3.25 20.75 7.16751 20.75 12C20.75 14.1462 19.9773 16.112 18.6949 17.6342L17.5303 16.4697C17.2374 16.1768 16.7626 16.1768 16.4697 16.4697C16.1768 16.7626 16.1768 17.2374 16.4697 17.5303L17.6342 18.6949C16.112 19.9773 14.1462 20.75 12 20.75C7.16751 20.75 3.25 16.8325 3.25 12C3.25 9.85377 4.02271 7.88802 5.30512 6.36578L6.96967 8.03033C7.26256 8.32322 7.73744 8.32322 8.03033 8.03033C8.32322 7.73744 8.32322 7.26256 8.03033 6.96967L6.36578 5.30512Z" fill="#2D2E2E"/>
</svg>
