<svg width="24" height="24" viewBox="0 0 24 24" fill="none" xmlns="http://www.w3.org/2000/svg">
<path fill-rule="evenodd" clip-rule="evenodd" d="M12 4.25C10.4812 4.25 9.25 5.48122 9.25 7V7.5C9.25 7.91421 9.58579 8.25 10 8.25C10.4142 8.25 10.75 7.91421 10.75 7.5V7C10.75 6.30964 11.3096 5.75 12 5.75C12.6904 5.75 13.25 6.30964 13.25 7V7.32295C13.25 8.06668 12.8298 8.74657 12.1646 9.07918C11.6041 9.35944 11.25 9.93233 11.25 10.559V11.4144L5.33303 12.8937C4.10882 13.1997 3.25 14.2997 3.25 15.5616V16C3.25 17.5188 4.48122 18.75 6 18.75H18C19.5188 18.75 20.75 17.5188 20.75 16V15.5616C20.75 14.2997 19.8912 13.1997 18.667 12.8937L12.75 11.4144V10.559C12.75 10.5005 12.7831 10.447 12.8354 10.4208C14.0088 9.83413 14.75 8.63484 14.75 7.32295V7C14.75 5.48122 13.5188 4.25 12 4.25ZM18 17.25C18.6904 17.25 19.25 16.6904 19.25 16V15.5616C19.25 14.988 18.8596 14.488 18.3032 14.3489L12 12.7731L5.69683 14.3489C5.14037 14.488 4.75 14.988 4.75 15.5616V16C4.75 16.6904 5.30964 17.25 6 17.25H18Z" fill="#2D2E2E"/>
</svg>
