<svg width="24" height="24" viewBox="0 0 24 24" fill="none" xmlns="http://www.w3.org/2000/svg">
<path fill-rule="evenodd" clip-rule="evenodd" d="M3.25 8.69466C3.25 5.19125 7.10363 3.05538 10.0745 4.91218L12 6.11562L13.9255 4.9122C16.8964 3.05539 20.75 5.19125 20.75 8.69466C20.75 10.3697 20.0846 11.9761 18.9002 13.1605L12.5303 19.5304C12.2374 19.8233 11.7626 19.8233 11.4697 19.5304L5.09983 13.1605C3.9154 11.9761 3.25 10.3697 3.25 8.69466ZM9.27952 6.18418C7.3077 4.95179 4.75 6.3694 4.75 8.69466C4.75 9.97187 5.25737 11.1968 6.16049 12.0999L12 17.9394L17.8395 12.0999C18.7426 11.1968 19.25 9.97187 19.25 8.69466C19.25 6.36941 16.6923 4.95181 14.7205 6.1842L12.3975 7.63605C12.1543 7.78805 11.8457 7.78805 11.6025 7.63605L9.27952 6.18418Z" fill="#2D2E2E"/>
</svg>
