<svg width="24" height="24" viewBox="0 0 24 24" fill="none" xmlns="http://www.w3.org/2000/svg">
<path fill-rule="evenodd" clip-rule="evenodd" d="M13.0671 3.87463C12.4381 3.39075 11.5622 3.39075 10.9331 3.87462L5.0464 8.40284L3.05005 9.90009C2.71868 10.1486 2.65152 10.6187 2.90004 10.9501C3.14857 11.2815 3.61867 11.3486 3.95004 11.1001L4.75007 10.5001L4.7501 19.5001C4.75011 20.4666 5.53361 21.2501 6.5001 21.2501H17.5001C18.4666 21.2501 19.2501 20.4666 19.2501 19.5001V10.5001L20.05 11.1001C20.3814 11.3486 20.8515 11.2815 21.1 10.9501C21.3486 10.6187 21.2814 10.1486 20.9501 9.90009L18.9538 8.40283L13.0671 3.87463ZM15.25 19.7501H17.5001C17.6382 19.7501 17.7501 19.6382 17.7501 19.5001V9.36939L12.1525 5.06356C12.0627 4.99444 11.9375 4.99444 11.8477 5.06356L6.25007 9.36939L6.2501 19.5001C6.25011 19.6382 6.36203 19.7501 6.5001 19.7501H8.75004V13.5001C8.75004 12.5336 9.53355 11.7501 10.5 11.7501H13.5C14.4665 11.7501 15.25 12.5336 15.25 13.5001V19.7501ZM10.25 19.7501H13.75V13.5001C13.75 13.362 13.6381 13.2501 13.5 13.2501H10.5C10.362 13.2501 10.25 13.362 10.25 13.5001V19.7501Z" fill="#2D2E2E"/>
</svg>
