<svg width="24" height="24" viewBox="0 0 24 24" fill="none" xmlns="http://www.w3.org/2000/svg">
<path fill-rule="evenodd" clip-rule="evenodd" d="M11.3559 11.2797C9.91114 10.5998 8.25004 11.654 8.25004 13.2507C8.25004 14.0483 8.57935 14.8104 9.16013 15.357L11.486 17.5461C11.7748 17.8179 12.2253 17.8179 12.5141 17.5461L14.84 15.357C15.4207 14.8104 15.75 14.0483 15.75 13.2507C15.75 11.654 14.0889 10.5998 12.6442 11.2797L12.0001 11.5828L11.3559 11.2797ZM9.75004 13.2507C9.75004 12.7535 10.2673 12.4252 10.7172 12.6369L11.6807 13.0903C11.883 13.1855 12.1171 13.1855 12.3194 13.0903L13.2829 12.6369C13.7328 12.4252 14.25 12.7535 14.25 13.2507C14.25 13.6347 14.0915 14.0016 13.8119 14.2647L12 15.97L10.1882 14.2647C9.90858 14.0016 9.75004 13.6347 9.75004 13.2507Z" fill="#2D2E2E"/>
<path fill-rule="evenodd" clip-rule="evenodd" d="M13.0671 3.8745C12.4381 3.39063 11.5622 3.39063 10.9331 3.8745L5.0464 8.40271L3.05005 9.89996C2.71868 10.1485 2.65152 10.6186 2.90004 10.95C3.14857 11.2813 3.61867 11.3485 3.95004 11.1L4.75007 10.5L4.7501 19.5C4.75011 20.4665 5.53361 21.25 6.5001 21.25H17.5001C18.4666 21.25 19.2501 20.4665 19.2501 19.5V10.5L20.05 11.1C20.3814 11.3485 20.8515 11.2813 21.1 10.95C21.3486 10.6186 21.2814 10.1485 20.9501 9.89997L18.9538 8.40271L13.0671 3.8745ZM6.2501 19.5L6.25007 9.36927L11.8477 5.06344C11.9375 4.99432 12.0627 4.99432 12.1525 5.06344L17.7501 9.36927V19.5C17.7501 19.638 17.6382 19.75 17.5001 19.75H6.5001C6.36203 19.75 6.25011 19.638 6.2501 19.5Z" fill="#2D2E2E"/>
</svg>
