<svg width="24" height="24" viewBox="0 0 24 24" fill="none" xmlns="http://www.w3.org/2000/svg">
<path fill-rule="evenodd" clip-rule="evenodd" d="M16.8787 19.7785L18.3128 19.4917C19.0166 19.351 19.591 18.8439 19.8179 18.163L20.3394 16.5985C20.6206 15.7551 20.1102 14.8537 19.2424 14.6609L14.8414 13.6828C14.6578 13.6421 14.4784 13.7661 14.4519 13.9522C14.3265 14.8298 13.2531 15.1876 12.6263 14.5608L9.30497 11.2395C8.67814 10.6127 9.03595 9.53926 9.91351 9.41389C10.0996 9.38731 10.2237 9.20792 10.1829 9.0244L9.2049 4.62337C9.01204 3.75553 8.11068 3.24518 7.26729 3.52631L5.70274 4.04783C5.02185 4.27479 4.51479 4.84919 4.37403 5.55296L4.08721 6.98709C3.95955 7.62534 3.93279 8.27967 4.00787 8.92621C4.67434 14.665 9.2008 19.1914 14.9395 19.8579C15.5861 19.933 16.2404 19.9062 16.8787 19.7785ZM6.17708 5.47086L7.74081 4.94961L8.51152 8.41781C7.33798 9.30371 7.07218 11.128 8.24431 12.3002L11.5656 15.6214C12.7377 16.7936 14.562 16.5278 15.4479 15.3542L18.9161 16.1249L18.3949 17.6887C18.3382 17.8589 18.1946 17.9857 18.0186 18.0209L16.5845 18.3077C16.1 18.4046 15.6033 18.4249 15.1126 18.3679C10.0652 17.7817 6.08404 13.8006 5.49786 8.75317C5.44086 8.26241 5.46118 7.76574 5.55808 7.28127L5.8449 5.84714C5.88009 5.6712 6.00686 5.5276 6.17708 5.47086Z" fill="#2D2E2E"/>
<path d="M16.4823 11.268C16.8965 11.268 17.2323 10.9322 17.2323 10.518C17.2323 10.1037 16.8965 9.76796 16.4823 9.76796H15.3069L19.0527 5.95768C19.3431 5.66229 19.339 5.18744 19.0436 4.89705C18.7483 4.60667 18.2734 4.61072 17.983 4.90611L14.2678 8.68522V7.43214C14.2678 7.01792 13.9321 6.68214 13.5178 6.68214C13.1036 6.68214 12.7678 7.01792 12.7678 7.43214V10.518C12.7678 10.9322 13.1036 11.268 13.5178 11.268H16.4823Z" fill="#2D2E2E"/>
</svg>
