<svg width="24" height="24" viewBox="0 0 24 24" fill="none" xmlns="http://www.w3.org/2000/svg">
<path d="M9 10.75C8.58579 10.75 8.25 11.0858 8.25 11.5C8.25 11.9143 8.58579 12.25 9 12.25H9.01C9.42421 12.25 9.76 11.9143 9.76 11.5C9.76 11.0858 9.42421 10.75 9.01 10.75H9Z" fill="#2D2E2E"/>
<path d="M14.99 10.75C14.5758 10.75 14.24 11.0858 14.24 11.5C14.24 11.9143 14.5758 12.25 14.99 12.25H15C15.4142 12.25 15.75 11.9143 15.75 11.5C15.75 11.0858 15.4142 10.75 15 10.75H14.99Z" fill="#2D2E2E"/>
<path d="M10.124 15.084C9.89427 14.7394 9.42862 14.6462 9.08397 14.876C8.73933 15.1058 8.6462 15.5714 8.87596 15.9161L9.04391 16.168C9.70283 17.1564 10.8121 17.75 12 17.75C13.1879 17.75 14.2972 17.1564 14.9561 16.168L15.124 15.9161C15.3538 15.5714 15.2607 15.1058 14.916 14.876C14.5714 14.6462 14.1057 14.7394 13.876 15.084L13.708 15.3359C13.3273 15.907 12.6864 16.25 12 16.25C11.3136 16.25 10.6727 15.907 10.292 15.3359L10.124 15.084Z" fill="#2D2E2E"/>
<path fill-rule="evenodd" clip-rule="evenodd" d="M11.6183 4.25928C11.7449 4.25315 11.8721 4.25004 12 4.25004C15.7817 4.25004 19.0098 6.96224 19.6881 10.5658C19.8083 10.6641 19.9478 10.7967 20.0857 10.969C20.4344 11.4049 20.75 12.0679 20.75 13C20.75 14.1992 20.2977 15.1032 19.85 15.7C19.627 15.9974 19.4035 16.2213 19.2326 16.3731C19.1819 16.4182 19.1355 16.4573 19.0947 16.4902C17.803 19.0333 15.006 20.75 12 20.75C8.99398 20.75 6.19699 19.0333 4.90529 16.4902C4.86453 16.4573 4.81811 16.4182 4.76735 16.3731C4.59653 16.2213 4.37299 15.9974 4.15 15.7C3.70234 15.1032 3.25 14.1992 3.25 13C3.25 12.0679 3.56563 11.4049 3.91435 10.969C4.05224 10.7967 4.19168 10.6641 4.31187 10.5658C4.94671 7.19331 7.81482 4.60154 11.2799 4.28302C11.389 4.24963 11.5049 4.24127 11.6183 4.25928ZM11.0368 6.86763L11.8741 5.75128C11.916 5.75046 11.9579 5.75004 12 5.75004C15.1574 5.75004 17.8257 8.08739 18.2576 11.1062L18.3132 11.4952L18.6527 11.6649L18.6537 11.6655C18.662 11.6706 18.6806 11.6824 18.7063 11.7016C18.7578 11.7403 18.8349 11.8068 18.9143 11.9061C19.0656 12.0952 19.25 12.4322 19.25 13C19.25 13.8009 18.9523 14.3969 18.65 14.8C18.498 15.0027 18.3465 15.1538 18.2361 15.252C18.1812 15.3008 18.1373 15.3357 18.1099 15.3566C18.0996 15.3645 18.0917 15.3703 18.0864 15.3741L18.0822 15.3771L18.0803 15.3785L17.9115 15.491L17.8226 15.6782C16.8276 17.7727 14.5129 19.25 12 19.25C9.4871 19.25 7.17242 17.7727 6.17745 15.6782L6.0885 15.491L5.91974 15.3785L5.9178 15.3771C5.91322 15.3739 5.90375 15.367 5.89008 15.3566C5.86268 15.3357 5.81882 15.3008 5.7639 15.252C5.65347 15.1538 5.50201 15.0027 5.35 14.8C5.04766 14.3969 4.75 13.8009 4.75 13C4.75 12.4322 4.93437 12.0952 5.08565 11.9061C5.1651 11.8068 5.24218 11.7403 5.29375 11.7016C5.31937 11.6824 5.33795 11.6706 5.34626 11.6655L5.34734 11.6649L5.68681 11.4952L5.74244 11.1062C6.06342 8.86226 7.62017 6.99483 9.69494 6.18402C9.38965 6.72089 9.34122 7.37252 9.57402 7.95454C10.1194 9.31795 11.8811 9.67956 12.9195 8.64122L13.0303 8.53037C13.3232 8.23748 13.3232 7.76261 13.0303 7.46971C12.7374 7.17682 12.2626 7.17682 11.9697 7.46971L11.8588 7.58056C11.5819 7.85744 11.1122 7.76101 10.9667 7.39745C10.896 7.22071 10.9226 7.01991 11.0368 6.86763Z" fill="#2D2E2E"/>
</svg>
