<svg width="24" height="24" viewBox="0 0 24 24" fill="none" xmlns="http://www.w3.org/2000/svg">
<path d="M10.5 9.25C10.9142 9.25 11.25 9.58579 11.25 10V11C11.25 11.4142 10.9142 11.75 10.5 11.75C10.0858 11.75 9.75 11.4142 9.75 11V10C9.75 9.58579 10.0858 9.25 10.5 9.25Z" fill="#2D2E2E"/>
<path d="M11.25 6C11.25 5.58579 10.9142 5.25 10.5 5.25C10.0858 5.25 9.75 5.58579 9.75 6V7C9.75 7.41421 10.0858 7.75 10.5 7.75C10.9142 7.75 11.25 7.41421 11.25 7V6Z" fill="#2D2E2E"/>
<path d="M10.5 13.25C10.9142 13.25 11.25 13.5858 11.25 14V15C11.25 15.4142 10.9142 15.75 10.5 15.75C10.0858 15.75 9.75 15.4142 9.75 15V14C9.75 13.5858 10.0858 13.25 10.5 13.25Z" fill="#2D2E2E"/>
<path d="M14.25 10C14.25 9.58579 13.9142 9.25 13.5 9.25C13.0858 9.25 12.75 9.58579 12.75 10V11C12.75 11.4142 13.0858 11.75 13.5 11.75C13.9142 11.75 14.25 11.4142 14.25 11V10Z" fill="#2D2E2E"/>
<path d="M13.5 5.25C13.9142 5.25 14.25 5.58579 14.25 6V7C14.25 7.41421 13.9142 7.75 13.5 7.75C13.0858 7.75 12.75 7.41421 12.75 7V6C12.75 5.58579 13.0858 5.25 13.5 5.25Z" fill="#2D2E2E"/>
<path d="M14.25 14C14.25 13.5858 13.9142 13.25 13.5 13.25C13.0858 13.25 12.75 13.5858 12.75 14V15C12.75 15.4142 13.0858 15.75 13.5 15.75C13.9142 15.75 14.25 15.4142 14.25 15V14Z" fill="#2D2E2E"/>
<path fill-rule="evenodd" clip-rule="evenodd" d="M15 2H9C7.89543 2 7 2.89543 7 4V20.75L5 20.75C4.58578 20.75 4.25 21.0858 4.25 21.5001C4.25 21.9143 4.58579 22.25 5 22.25L19 22.25C19.4142 22.25 19.75 21.9142 19.75 21.5C19.75 21.0858 19.4142 20.75 19 20.75L17 20.75V4C17 2.89543 16.1046 2 15 2ZM9 3.5H15C15.2761 3.5 15.5 3.72386 15.5 4V20.5H8.5V4C8.5 3.72386 8.72386 3.5 9 3.5Z" fill="#2D2E2E"/>
</svg>
