<svg width="24" height="24" viewBox="0 0 24 24" fill="none" xmlns="http://www.w3.org/2000/svg">
<path d="M7.06495 6.00451C7.34358 5.69801 7.321 5.22368 7.01451 4.94505C6.70802 4.66642 6.23368 4.689 5.95505 4.99549L5.94505 5.00649C5.66642 5.31299 5.689 5.78732 5.99549 6.06595C6.30199 6.34458 6.77632 6.322 7.05495 6.01551L7.06495 6.00451Z" fill="#2D2E2E"/>
<path d="M13.7646 12.8529C13.8458 12.4467 14.2409 12.1833 14.6471 12.2646C15.0533 12.3458 15.3167 12.7409 15.2354 13.1471L15.2178 13.2354C14.8672 14.9883 13.3281 16.25 11.5406 16.25H11.5C11.0858 16.25 10.75 15.9142 10.75 15.5C10.75 15.0858 11.0858 14.75 11.5 14.75H11.5406C12.6131 14.75 13.5366 13.993 13.7469 12.9413L13.7646 12.8529Z" fill="#2D2E2E"/>
<path fill-rule="evenodd" clip-rule="evenodd" d="M12 7C8.68629 7 6 9.68629 6 13C6 16.3137 8.68629 19 12 19C15.3137 19 18 16.3137 18 13C18 9.68629 15.3137 7 12 7ZM7.5 13C7.5 15.4853 9.51472 17.5 12 17.5C14.4853 17.5 16.5 15.4853 16.5 13C16.5 10.5147 14.4853 8.5 12 8.5C9.51472 8.5 7.5 10.5147 7.5 13Z" fill="#2D2E2E"/>
<path fill-rule="evenodd" clip-rule="evenodd" d="M21 4V20C21 20.5304 20.7893 21.0391 20.4142 21.4142C20.0391 21.7893 19.5304 22 19 22H5C4.46957 22 3.96086 21.7893 3.58579 21.4142C3.21071 21.0391 3 20.5304 3 20V4C3 3.46957 3.21071 2.96086 3.58579 2.58579C3.96086 2.21071 4.46957 2 5 2H19C19.5304 2 20.0391 2.21071 20.4142 2.58579C20.7893 2.96086 21 3.46957 21 4ZM19.5 4V20C19.5 20.1326 19.4473 20.2598 19.3536 20.3536C19.2598 20.4473 19.1326 20.5 19 20.5H5C4.86739 20.5 4.74022 20.4473 4.64645 20.3536C4.55268 20.2598 4.5 20.1326 4.5 20V4C4.5 3.86739 4.55268 3.74021 4.64645 3.64645C4.74021 3.55268 4.86739 3.5 5 3.5H19C19.1326 3.5 19.2598 3.55268 19.3536 3.64645C19.4473 3.74022 19.5 3.86739 19.5 4Z" fill="#2D2E2E"/>
</svg>
