<svg width="24" height="24" viewBox="0 0 24 24" fill="none" xmlns="http://www.w3.org/2000/svg">
<path fill-rule="evenodd" clip-rule="evenodd" d="M3.25 5C3.25 3.75736 4.25736 2.75 5.5 2.75H18.5C19.7426 2.75 20.75 3.75736 20.75 5C20.75 6.24264 19.7426 7.25 18.5 7.25H5.5C4.25736 7.25 3.25 6.24264 3.25 5ZM5.5 4.25C5.08579 4.25 4.75 4.58579 4.75 5C4.75 5.41421 5.08579 5.75 5.5 5.75H18.5C18.9142 5.75 19.25 5.41421 19.25 5C19.25 4.58579 18.9142 4.25 18.5 4.25H5.5Z" fill="#2D2E2E"/>
<path fill-rule="evenodd" clip-rule="evenodd" d="M3.25 12C3.25 10.7574 4.25736 9.75 5.5 9.75H18.5C19.7426 9.75 20.75 10.7574 20.75 12C20.75 13.2426 19.7426 14.25 18.5 14.25H5.5C4.25736 14.25 3.25 13.2426 3.25 12ZM5.5 11.25C5.08579 11.25 4.75 11.5858 4.75 12C4.75 12.4142 5.08579 12.75 5.5 12.75H18.5C18.9142 12.75 19.25 12.4142 19.25 12C19.25 11.5858 18.9142 11.25 18.5 11.25H5.5Z" fill="#2D2E2E"/>
<path fill-rule="evenodd" clip-rule="evenodd" d="M5.5 16.75C4.25736 16.75 3.25 17.7574 3.25 19C3.25 20.2426 4.25736 21.25 5.5 21.25H18.5C19.7426 21.25 20.75 20.2426 20.75 19C20.75 17.7574 19.7426 16.75 18.5 16.75H5.5ZM4.75 19C4.75 18.5858 5.08579 18.25 5.5 18.25H18.5C18.9142 18.25 19.25 18.5858 19.25 19C19.25 19.4142 18.9142 19.75 18.5 19.75H5.5C5.08579 19.75 4.75 19.4142 4.75 19Z" fill="#2D2E2E"/>
</svg>
