<svg width="24" height="24" viewBox="0 0 24 24" fill="none" xmlns="http://www.w3.org/2000/svg">
<path d="M12.75 3C12.75 2.58579 12.4142 2.25 12 2.25C11.5858 2.25 11.25 2.58579 11.25 3V6C11.25 6.41421 11.5858 6.75 12 6.75C12.4142 6.75 12.75 6.41421 12.75 6V3Z" fill="#2D2E2E"/>
<path d="M8.14952 3.83075C7.94241 3.47203 7.48372 3.34912 7.125 3.55623C6.76628 3.76334 6.64337 4.22203 6.85048 4.58075L8.35048 7.17883C8.55759 7.53755 9.01628 7.66045 9.375 7.45334C9.73372 7.24624 9.85663 6.78755 9.64952 6.42883L8.14952 3.83075Z" fill="#2D2E2E"/>
<path d="M3.55629 7.12506C3.7634 6.76634 4.22209 6.64344 4.58081 6.85054L7.17889 8.35054C7.53761 8.55765 7.66051 9.01634 7.45341 9.37506C7.2463 9.73378 6.78761 9.85669 6.42889 9.64958L3.83081 8.14958C3.47209 7.94247 3.34918 7.48378 3.55629 7.12506Z" fill="#2D2E2E"/>
<path d="M21 12.75C21.4142 12.75 21.75 12.4142 21.75 12C21.75 11.5858 21.4142 11.25 21 11.25H18C17.5858 11.25 17.25 11.5858 17.25 12C17.25 12.4142 17.5858 12.75 18 12.75H21Z" fill="#2D2E2E"/>
<path d="M6.75 12C6.75 12.4142 6.41421 12.75 6 12.75H3C2.58579 12.75 2.25 12.4142 2.25 12C2.25 11.5858 2.58579 11.25 3 11.25H6C6.41421 11.25 6.75 11.5858 6.75 12Z" fill="#2D2E2E"/>
<path d="M20.1692 8.14952C20.5279 7.94241 20.6508 7.48372 20.4437 7.125C20.2366 6.76628 19.7779 6.64337 19.4192 6.85048L16.8211 8.35048C16.4624 8.55759 16.3395 9.01628 16.5466 9.375C16.7537 9.73372 17.2124 9.85663 17.5711 9.64952L20.1692 8.14952Z" fill="#2D2E2E"/>
<path d="M7.45335 14.625C7.66046 14.9837 7.53755 15.4424 7.17883 15.6495L4.58076 17.1495C4.22204 17.3566 3.76334 17.2337 3.55624 16.875C3.34913 16.5163 3.47204 16.0576 3.83076 15.8505L6.42883 14.3505C6.78755 14.1434 7.24625 14.2663 7.45335 14.625Z" fill="#2D2E2E"/>
<path d="M17.1495 4.58075C17.3566 4.22203 17.2337 3.76334 16.875 3.55623C16.5163 3.34912 16.0576 3.47203 15.8505 3.83075L14.3505 6.42883C14.1434 6.78755 14.2663 7.24624 14.625 7.45334C14.9837 7.66045 15.4424 7.53755 15.6495 7.17883L17.1495 4.58075Z" fill="#2D2E2E"/>
<path opacity="0.75" d="M16.5464 14.625C16.7535 14.2663 17.2122 14.1434 17.5709 14.3505L20.169 15.8505C20.5277 16.0576 20.6506 16.5163 20.4435 16.875C20.2364 17.2337 19.7777 17.3566 19.419 17.1495L16.8209 15.6495C16.4622 15.4424 16.3393 14.9837 16.5464 14.625Z" fill="#2D2E2E"/>
<path opacity="0.5" d="M14.6249 16.5467C14.9836 16.3395 15.4423 16.4625 15.6494 16.8212L17.1494 19.4192C17.3565 19.778 17.2336 20.2367 16.8749 20.4438C16.5162 20.6509 16.0575 20.528 15.8504 20.1692L14.3504 17.5712C14.1433 17.2125 14.2662 16.7538 14.6249 16.5467Z" fill="#2D2E2E"/>
<path opacity="0.25" d="M12 17.25C12.4142 17.25 12.75 17.5858 12.75 18V21C12.75 21.4142 12.4142 21.75 12 21.75C11.5858 21.75 11.25 21.4142 11.25 21V18C11.25 17.5858 11.5858 17.25 12 17.25Z" fill="#2D2E2E"/>
</svg>
