<svg width="24" height="24" viewBox="0 0 24 24" fill="none" xmlns="http://www.w3.org/2000/svg">
<path d="M15.3337 2.00012C15.7019 2.00012 16.0003 2.2986 16.0003 2.66679V4.66679C16.0003 5.03498 15.7019 5.33346 15.3337 5.33346C14.9655 5.33346 14.667 5.03498 14.667 4.66679V2.66679C14.667 2.2986 14.9655 2.00012 15.3337 2.00012Z" fill="#2D2E2E"/>
<path d="M20.0473 3.95257C20.3076 4.21292 20.3076 4.63503 20.0473 4.89538L18.6331 6.30959C18.3727 6.56994 17.9506 6.56994 17.6903 6.30959C17.4299 6.04924 17.4299 5.62713 17.6903 5.36678L19.1045 3.95257C19.3648 3.69222 19.7869 3.69222 20.0473 3.95257Z" fill="#2D2E2E"/>
<path d="M21.3333 9.33329C21.7015 9.33329 22 9.03482 22 8.66663C22 8.29844 21.7015 7.99996 21.3333 7.99996H19.3333C18.9652 7.99996 18.6667 8.29844 18.6667 8.66663C18.6667 9.03482 18.9652 9.33329 19.3333 9.33329H21.3333Z" fill="#2D2E2E"/>
<path d="M20.0476 13.3807C19.7872 13.6411 19.3651 13.6411 19.1048 13.3807L17.6905 11.9665C17.4302 11.7062 17.4302 11.2841 17.6905 11.0237C17.9509 10.7634 18.373 10.7634 18.6334 11.0237L20.0476 12.4379C20.3079 12.6983 20.3079 13.1204 20.0476 13.3807Z" fill="#2D2E2E"/>
<path d="M12.0335 6.30969C12.2938 6.57004 12.7159 6.57004 12.9763 6.30969C13.2366 6.04934 13.2366 5.62723 12.9763 5.36688L11.5621 3.95266C11.3017 3.69231 10.8796 3.69231 10.6193 3.95266C10.3589 4.21301 10.3589 4.63512 10.6193 4.89547L12.0335 6.30969Z" fill="#2D2E2E"/>
<path fill-rule="evenodd" clip-rule="evenodd" d="M13.6956 7.02856C14.6003 6.12387 16.0671 6.12387 16.9717 7.02855C17.8764 7.93324 17.8764 9.40001 16.9717 10.3047L5.97174 21.3047C5.06706 22.2094 3.60028 22.2094 2.6956 21.3047C1.79092 20.4 1.79092 18.9332 2.6956 18.0286L13.6956 7.02856ZM16.0289 7.97136C15.645 7.58738 15.0224 7.58738 14.6384 7.97136L6.83537 15.7744L8.22589 17.1649L16.0289 9.36189C16.4129 8.9779 16.4129 8.35535 16.0289 7.97136ZM7.16523 18.2256L5.77471 16.8351L3.63841 18.9714C3.25443 19.3553 3.25443 19.9779 3.63841 20.3619C4.02239 20.7459 4.64495 20.7459 5.02894 20.3619L7.16523 18.2256Z" fill="#2D2E2E"/>
</svg>
