<svg width="24" height="24" viewBox="0 0 24 24" fill="none" xmlns="http://www.w3.org/2000/svg">
<path fill-rule="evenodd" clip-rule="evenodd" d="M16.1489 2.87598C16.3566 2.51757 16.2344 2.05869 15.876 1.85105C15.5176 1.6434 15.0587 1.76562 14.851 2.12403L13.3168 4.77222C13.2131 4.75757 13.1073 4.75 13 4.75C11.7573 4.75 10.75 5.75736 10.75 7C10.75 7.53182 10.9348 8.0203 11.2425 8.40492L10.8414 9.14116C10.6432 9.50489 10.7774 9.96041 11.1411 10.1586C11.5049 10.3568 11.9604 10.2226 12.1586 9.85884L12.5185 9.19822C12.6738 9.23213 12.835 9.25 13 9.25C14.2426 9.25 15.25 8.24264 15.25 7C15.25 6.40744 15.0209 5.869 14.6474 5.46769L16.1489 2.87598ZM12.25 7C12.25 6.58579 12.5858 6.25 13 6.25C13.1218 6.25 13.2349 6.2785 13.3348 6.32851C13.5825 6.45251 13.75 6.70738 13.75 7C13.75 7.41422 13.4142 7.75 13 7.75C12.8472 7.75 12.7072 7.70512 12.5897 7.62801C12.3835 7.49276 12.25 7.26178 12.25 7Z" fill="#2D2E2E"/>
<path d="M8.99998 6.25012H6.58922L12 12.8203L17.5403 6.09279C17.3637 5.95558 17.25 5.74113 17.25 5.50012C17.25 5.08591 17.5858 4.75012 18 4.75012H18.3996C19.2729 4.75012 19.7524 5.76624 19.1973 6.44036L12.75 14.2692V20.7501H15C15.4142 20.7501 15.75 21.0859 15.75 21.5001C15.75 21.9143 15.4142 22.2501 15 22.2501H8.99998C8.58577 22.2501 8.24998 21.9143 8.24998 21.5001C8.24998 21.0859 8.58577 20.7501 8.99998 20.7501H11.25V14.2692L4.8027 6.44036C4.24755 5.76624 4.72707 4.75012 5.60036 4.75012H8.99998C9.4142 4.75012 9.74998 5.08591 9.74998 5.50012C9.74998 5.91434 9.4142 6.25012 8.99998 6.25012Z" fill="#2D2E2E"/>
</svg>
