<svg width="24" height="24" viewBox="0 0 24 24" fill="none" xmlns="http://www.w3.org/2000/svg">
<path d="M9.32121 3.11807C10.8061 1.63322 13.1983 1.5854 14.7413 3.00971C15.5437 3.75034 16 4.79259 16 5.88452V9.99994C16 10.4142 15.6642 10.7499 15.25 10.7499C14.8358 10.7499 14.5 10.4142 14.5 9.99994V5.88452C14.5 5.21124 14.2186 4.56859 13.7239 4.11192C12.7725 3.23369 11.2974 3.26318 10.3819 4.17873L10.2803 4.28027C9.98743 4.57317 9.51256 4.57317 9.21966 4.28027C8.92677 3.98738 8.92677 3.51251 9.21967 3.21961L9.32121 3.11807Z" fill="#2D2E2E"/>
<path fill-rule="evenodd" clip-rule="evenodd" d="M7.99999 7.256L5.4504 4.51028C5.16855 4.20675 5.18612 3.7322 5.48966 3.45035C5.79319 3.1685 6.26774 3.18607 6.54959 3.48961L19.5496 17.4896C19.8314 17.7931 19.8139 18.2677 19.5103 18.5495C19.2068 18.8314 18.7323 18.8138 18.4504 18.5103L16.3098 16.2051L16.05 16.3999C15.0828 17.1253 13.9425 17.5748 12.75 17.7082V19.7499H14.5C14.9142 19.7499 15.25 20.0857 15.25 20.4999C15.25 20.9142 14.9142 21.2499 14.5 21.2499H9.5C9.08578 21.2499 8.74999 20.9142 8.74999 20.4999C8.74999 20.0857 9.08578 19.7499 9.5 19.7499H11.25V17.7079C8.32955 17.3787 5.93119 15.1492 5.4382 12.1913L5.2602 11.1232C5.1921 10.7147 5.46812 10.3282 5.8767 10.2601C6.28527 10.1921 6.67169 10.4681 6.73979 10.8766L6.9178 11.9447C7.33186 14.4291 9.48135 16.2499 12 16.2499C13.1359 16.2499 14.2412 15.8815 15.15 15.1999L15.2835 15.0998L14.535 14.2937L13.571 14.6793C12.5546 15.0859 11.4157 15.0563 10.4218 14.5976C8.94544 13.9162 7.99999 12.4385 7.99999 10.8125V7.256ZM9.5 8.87138V10.8125C9.5 11.8535 10.1053 12.7994 11.0504 13.2356C11.6701 13.5217 12.3802 13.5401 13.0139 13.2866L13.4412 13.1157L9.5 8.87138Z" fill="#2D2E2E"/>
<path d="M18.0004 10.2499C18.4146 10.25 18.7503 10.5859 18.7502 11.0001L18.75 12.5001C18.7499 12.9143 18.4141 13.25 17.9999 13.2499C17.5857 13.2499 17.2499 12.914 17.25 12.4998L17.2502 10.9998C17.2503 10.5856 17.5861 10.2499 18.0004 10.2499Z" fill="#2D2E2E"/>
</svg>
