<svg width="24" height="24" viewBox="0 0 24 24" fill="none" xmlns="http://www.w3.org/2000/svg">
<path fill-rule="evenodd" clip-rule="evenodd" d="M9 12C9 10.8954 9.89543 10 11 10H13C14.1046 10 15 10.8954 15 12V13C15 14.1046 14.1046 15 13 15H11C9.89543 15 9 14.1046 9 13V12ZM11 11.5H13C13.2761 11.5 13.5 11.7239 13.5 12V13C13.5 13.2761 13.2761 13.5 13 13.5H11C10.7239 13.5 10.5 13.2761 10.5 13V12C10.5 11.7239 10.7239 11.5 11 11.5Z" fill="#2D2E2E"/>
<path d="M4.75 10.5C4.75 10.0858 5.08579 9.75 5.5 9.75H6C6.41421 9.75 6.75 10.0858 6.75 10.5C6.75 10.9142 6.41421 11.25 6 11.25H5.5C5.08579 11.25 4.75 10.9142 4.75 10.5Z" fill="#2D2E2E"/>
<path d="M18 9.75C17.5858 9.75 17.25 10.0858 17.25 10.5C17.25 10.9142 17.5858 11.25 18 11.25H18.5C18.9142 11.25 19.25 10.9142 19.25 10.5C19.25 10.0858 18.9142 9.75 18.5 9.75H18Z" fill="#2D2E2E"/>
<path d="M4.75 14.5C4.75 14.0858 5.08579 13.75 5.5 13.75H6C6.41421 13.75 6.75 14.0858 6.75 14.5C6.75 14.9142 6.41421 15.25 6 15.25H5.5C5.08579 15.25 4.75 14.9142 4.75 14.5Z" fill="#2D2E2E"/>
<path d="M18 13.75C17.5858 13.75 17.25 14.0858 17.25 14.5C17.25 14.9142 17.5858 15.25 18 15.25H18.5C18.9142 15.25 19.25 14.9142 19.25 14.5C19.25 14.0858 18.9142 13.75 18.5 13.75H18Z" fill="#2D2E2E"/>
<path fill-rule="evenodd" clip-rule="evenodd" d="M2 9C2 7.89543 2.89543 7 4 7H20C21.1046 7 22 7.89543 22 9V16C22 17.1046 21.1046 18 20 18H4C2.89543 18 2 17.1046 2 16V9ZM4 8.5H20C20.2761 8.5 20.5 8.72386 20.5 9V16C20.5 16.2761 20.2761 16.5 20 16.5H4C3.72386 16.5 3.5 16.2761 3.5 16V9C3.5 8.72386 3.72386 8.5 4 8.5Z" fill="#2D2E2E"/>
</svg>
