<svg width="24" height="24" viewBox="0 0 24 24" fill="none" xmlns="http://www.w3.org/2000/svg">
<path fill-rule="evenodd" clip-rule="evenodd" d="M11.9998 18C7.17416 18 4.66735 19.3839 3.35099 20.7671C3.06543 21.0671 2.59071 21.0789 2.29065 20.7933C1.9906 20.5077 1.97885 20.033 2.2644 19.733C3.93325 17.9794 6.87625 16.5 11.9998 16.5C17.1233 16.5 20.0663 17.9794 21.7352 19.733C22.0208 20.033 22.009 20.5077 21.7089 20.7933C21.4089 21.0789 20.9342 21.0671 20.6486 20.7671C19.3322 19.3839 16.8254 18 11.9998 18Z" fill="#2D2E2E"/>
<path fill-rule="evenodd" clip-rule="evenodd" d="M5.42958 13.4547C5.42958 9.82721 8.37026 6.88654 11.9978 6.88654C15.6253 6.88654 18.5659 9.82721 18.5659 13.4547C18.5659 14.022 18.4939 14.5735 18.358 15.1001C18.2545 15.5012 17.8454 15.7424 17.4444 15.6389C17.0433 15.5354 16.8021 15.1264 16.9055 14.7253C17.0101 14.3201 17.0659 13.8945 17.0659 13.4547C17.0659 10.6556 14.7968 8.38654 11.9978 8.38654C9.19868 8.38654 6.92958 10.6556 6.92958 13.4547C6.92958 13.8939 6.98528 14.3191 7.08961 14.7239C7.19298 15.125 6.95162 15.5339 6.55051 15.6373C6.1494 15.7407 5.74044 15.4993 5.63707 15.0982C5.50149 14.5721 5.42958 14.0213 5.42958 13.4547Z" fill="#2D2E2E"/>
<path fill-rule="evenodd" clip-rule="evenodd" d="M11.9937 3.25017C12.4079 3.25017 12.7437 3.58595 12.7437 4.00017V5.45471C12.7437 5.86893 12.4079 6.20471 11.9937 6.20471C11.5795 6.20471 11.2437 5.86893 11.2437 5.45471V4.00017C11.2437 3.58595 11.5795 3.25017 11.9937 3.25017Z" fill="#2D2E2E"/>
<path fill-rule="evenodd" clip-rule="evenodd" d="M6.89001 4.61736C7.24873 4.41026 7.70743 4.53316 7.91453 4.89188L8.64181 6.15156C8.84891 6.51027 8.72601 6.96897 8.36729 7.17607C8.00857 7.38318 7.54987 7.26027 7.34277 6.90156L6.6155 5.64188C6.40839 5.28316 6.53129 4.82447 6.89001 4.61736Z" fill="#2D2E2E"/>
<path fill-rule="evenodd" clip-rule="evenodd" d="M3.15242 8.35253C3.35953 7.99381 3.81822 7.8709 4.17694 8.07801L5.43661 8.80528C5.79533 9.01239 5.91824 9.47108 5.71113 9.8298C5.50403 10.1885 5.04533 10.3114 4.68661 10.1043L3.42694 9.37705C3.06822 9.16994 2.94531 8.71125 3.15242 8.35253Z" fill="#2D2E2E"/>
<path fill-rule="evenodd" clip-rule="evenodd" d="M17.1 4.61734C17.4588 4.82444 17.5817 5.28314 17.3746 5.64186L16.6473 6.90153C16.4402 7.26025 15.9815 7.38315 15.6228 7.17605C15.264 6.96894 15.1411 6.51025 15.3482 6.15153L16.0755 4.89186C16.2826 4.53314 16.7413 4.41023 17.1 4.61734Z" fill="#2D2E2E"/>
<path fill-rule="evenodd" clip-rule="evenodd" d="M20.8314 8.35238C21.0385 8.7111 20.9156 9.16979 20.5569 9.3769L19.2972 10.1042C18.9385 10.3113 18.4798 10.1884 18.2727 9.82965C18.0656 9.47093 18.1885 9.01224 18.5472 8.80513L19.8069 8.07786C20.1656 7.87075 20.6243 7.99366 20.8314 8.35238Z" fill="#2D2E2E"/>
<path fill-rule="evenodd" clip-rule="evenodd" d="M22.2001 13.4547C22.2001 13.8689 21.8643 14.2047 21.4501 14.2047H19.9955C19.5813 14.2047 19.2455 13.8689 19.2455 13.4547C19.2455 13.0405 19.5813 12.7047 19.9955 12.7047H21.4501C21.8643 12.7047 22.2001 13.0405 22.2001 13.4547Z" fill="#2D2E2E"/>
<path fill-rule="evenodd" clip-rule="evenodd" d="M4.74959 13.4547C4.74959 13.8689 4.4138 14.2047 3.99959 14.2047H2.54504C2.13083 14.2047 1.79504 13.8689 1.79504 13.4547C1.79504 13.0405 2.13083 12.7047 2.54504 12.7047H3.99959C4.4138 12.7047 4.74959 13.0405 4.74959 13.4547Z" fill="#2D2E2E"/>
</svg>
