<svg width="24" height="24" viewBox="0 0 24 24" fill="none" xmlns="http://www.w3.org/2000/svg">
<path fill-rule="evenodd" clip-rule="evenodd" d="M14.4203 4.55785C11.153 4.47385 8.12947 6.62391 7.24054 9.91924C6.87278 11.2826 6.75604 12.0516 6.72547 12.4591C6.71095 12.6526 6.71679 12.7533 6.72051 12.7901C6.8229 13.1398 6.65739 13.5214 6.31693 13.6799C5.94142 13.8547 5.49528 13.6921 5.32045 13.3166L6.00036 13C5.32045 13.3166 5.31941 13.3143 5.31941 13.3143L5.31838 13.3121L5.31634 13.3076L5.31234 13.2985L5.3046 13.2801C5.29957 13.2677 5.29477 13.255 5.2902 13.2419C5.28108 13.2159 5.27281 13.1885 5.26539 13.1596C5.25061 13.1021 5.23875 13.0369 5.23036 12.9621C5.21375 12.814 5.20946 12.6163 5.22967 12.3469C5.26992 11.8103 5.41121 10.9414 5.79231 9.52858C6.93462 5.29393 10.9953 2.62842 15.2244 3.11186C15.82 3.17995 16.1793 3.62879 16.2703 4.08281C16.3583 4.52143 16.2179 5.0327 15.8006 5.36151C15.0327 5.96669 14.0295 6.93266 13.4692 8.14921C12.9282 9.3237 12.7835 10.756 13.7485 12.4338C14.6867 14.0653 15.9031 14.5931 17.0782 14.6627C18.3104 14.7357 19.559 14.3035 20.4523 13.879C20.9523 13.6413 21.491 13.7605 21.845 14.0524C22.2136 14.3563 22.4453 14.914 22.1803 15.4875C21.2275 17.5489 19.5311 19.1072 17.5138 19.9225C17.1298 20.0778 16.6927 19.8923 16.5374 19.5082C16.3822 19.1242 16.5677 18.6871 16.9517 18.5318C18.4074 17.9435 19.659 16.8902 20.4788 15.5052C19.5295 15.889 18.2861 16.2369 16.9894 16.1601C15.3309 16.0618 13.6485 15.2688 12.4482 13.1816C11.2169 11.0406 11.3835 9.09183 12.1068 7.52166C12.6929 6.24911 13.6329 5.24414 14.4203 4.55785Z" fill="#2D2E2E"/>
<path fill-rule="evenodd" clip-rule="evenodd" d="M11.1269 16.2024C11.9671 16.0799 13.019 16.0287 13.8301 16.3977C15.1855 17.0143 15.794 18.3643 16.0394 19.087C16.3273 19.9351 15.6414 20.6527 14.8895 20.6527H2.69797C2.05363 20.6527 1.44182 20.1338 1.48697 19.39C1.54213 18.4814 1.86352 16.4173 3.66119 15.0692C4.26289 14.6179 4.90235 14.4323 5.53299 14.4535C6.148 14.4742 6.70721 14.6894 7.17768 14.9606C8.03879 15.457 8.72163 16.2109 9.09236 16.6709C9.56894 16.5254 10.326 16.3192 11.1269 16.2024ZM11.3433 17.6867C10.5769 17.7985 9.83622 18.0085 9.41175 18.1424C8.88174 18.3095 8.31855 18.115 7.99168 17.6969C7.68147 17.3001 7.10352 16.6492 6.42858 16.2602C6.09741 16.0693 5.77893 15.9627 5.48252 15.9527C5.20174 15.9432 4.89603 16.0181 4.56114 16.2692C3.46176 17.0937 3.11609 18.3378 3.01468 19.1527H14.4545C14.2096 18.6135 13.8134 18.038 13.2089 17.763C12.8211 17.5866 12.1488 17.5692 11.3433 17.6867Z" fill="#2D2E2E"/>
</svg>
