<svg width="24" height="24" viewBox="0 0 24 24" fill="none" xmlns="http://www.w3.org/2000/svg">
<path d="M10 17.75C9.58579 17.75 9.25 18.0858 9.25 18.5C9.25 18.9142 9.58579 19.25 10 19.25H14C14.4142 19.25 14.75 18.9142 14.75 18.5C14.75 18.0858 14.4142 17.75 14 17.75H10Z" fill="#2D2E2E"/>
<path fill-rule="evenodd" clip-rule="evenodd" d="M6 5C6 3.34315 7.34315 2 9 2H15C16.6569 2 18 3.34315 18 5V19C18 20.6569 16.6569 22 15 22H9C7.34315 22 6 20.6569 6 19V5ZM9 3.5H15C15.8284 3.5 16.5 4.17157 16.5 5V19C16.5 19.8284 15.8284 20.5 15 20.5H9C8.17157 20.5 7.5 19.8284 7.5 19V5C7.5 4.17157 8.17157 3.5 9 3.5Z" fill="#2D2E2E"/>
</svg>
