<svg width="24" height="24" viewBox="0 0 24 24" fill="none" xmlns="http://www.w3.org/2000/svg">
<path fill-rule="evenodd" clip-rule="evenodd" d="M10.2496 6.3028V8.75002H11.7496V6.3028C11.7496 5.5505 12.1256 4.84798 12.7515 4.43068C13.5073 3.92683 14.4919 3.92683 15.2477 4.43068C15.8736 4.84798 16.2496 5.5505 16.2496 6.3028V8.75002H21.4996C21.9138 8.75002 22.2496 9.08581 22.2496 9.50002C22.2496 9.91423 21.9138 10.25 21.4996 10.25H16.2496V14.9167C16.6051 14.9354 16.959 14.9941 17.3045 15.0928L18.3908 15.4032C19.0833 15.6011 19.822 15.5633 20.4907 15.2958L21.7211 14.8037C22.1056 14.6498 22.5421 14.8369 22.696 15.2215C22.8498 15.6061 22.6627 16.0425 22.2781 16.1964L21.0478 16.6885C20.0704 17.0795 18.9909 17.1347 17.9787 16.8455L16.8924 16.5351C16.3089 16.3684 15.6903 16.3684 15.1067 16.5351L13.8045 16.9072C12.9516 17.1509 12.0476 17.1509 11.1947 16.9072L9.89244 16.5351C9.30888 16.3684 8.6903 16.3684 8.10675 16.5351L6.89548 16.8812C5.97504 17.1442 4.99662 17.1229 4.08847 16.8202L2.26242 16.2115C1.86946 16.0805 1.65709 15.6558 1.78808 15.2628C1.91907 14.8699 2.34381 14.6575 2.73676 14.7885L4.56281 15.3972C5.18417 15.6043 5.85362 15.6189 6.4834 15.4389L7.69467 15.0928C8.04018 14.9941 8.39409 14.9354 8.74959 14.9167V10.25H2.49959C2.08538 10.25 1.74959 9.91423 1.74959 9.50002C1.74959 9.08581 2.08538 8.75002 2.49959 8.75002H5.74959V6.3028C5.74959 5.5505 6.12557 4.84798 6.75152 4.43068C7.50729 3.92683 8.49189 3.92683 9.24767 4.43068C9.87362 4.84798 10.2496 5.5505 10.2496 6.3028ZM7.58357 5.67876C7.83549 5.51081 8.16369 5.51081 8.41562 5.67876C8.62427 5.81786 8.74959 6.05203 8.74959 6.3028V8.75002H7.24959V6.3028C7.24959 6.05203 7.37492 5.81786 7.58357 5.67876ZM14.7496 13.25V15.0775C14.7313 15.0825 14.713 15.0876 14.6947 15.0928L13.3924 15.4649C12.8089 15.6316 12.1903 15.6316 11.6067 15.4649L10.3045 15.0928C10.2862 15.0876 10.2679 15.0825 10.2496 15.0775V13.25H14.7496ZM14.7496 11.75V10.25H10.2496V11.75H14.7496ZM14.7496 8.75002H13.2496V6.3028C13.2496 6.05203 13.3749 5.81786 13.5836 5.67876C13.8355 5.51081 14.1637 5.51081 14.4156 5.67876C14.6243 5.81786 14.7496 6.05203 14.7496 6.3028V8.75002Z" fill="#2D2E2E"/>
<path d="M2.73676 18.7885C2.34381 18.6575 1.91907 18.8699 1.78808 19.2628C1.65709 19.6558 1.86946 20.0805 2.26242 20.2115L4.08847 20.8202C4.99662 21.1229 5.97504 21.1442 6.89548 20.8812L8.10675 20.5351C8.6903 20.3684 9.30888 20.3684 9.89244 20.5351L11.1947 20.9072C12.0476 21.1509 12.9516 21.1509 13.8045 20.9072L15.1067 20.5351C15.6903 20.3684 16.3089 20.3684 16.8924 20.5351L17.9787 20.8455C18.9909 21.1347 20.0704 21.0795 21.0478 20.6885L22.2781 20.1964C22.6627 20.0425 22.8498 19.6061 22.696 19.2215C22.5421 18.8369 22.1056 18.6498 21.7211 18.8037L20.4907 19.2958C19.822 19.5633 19.0833 19.6011 18.3908 19.4032L17.3045 19.0928C16.4516 18.8492 15.5476 18.8492 14.6947 19.0928L13.3924 19.4649C12.8089 19.6316 12.1903 19.6316 11.6067 19.4649L10.3045 19.0928C9.45163 18.8492 8.54755 18.8492 7.69467 19.0928L6.4834 19.4389C5.85362 19.6189 5.18417 19.6043 4.56281 19.3972L2.73676 18.7885Z" fill="#2D2E2E"/>
</svg>
