<svg width="24" height="24" viewBox="0 0 24 24" fill="none" xmlns="http://www.w3.org/2000/svg">
<path d="M7.75 6.5C7.75 6.08579 7.41421 5.75 7 5.75C6.58579 5.75 6.25 6.08579 6.25 6.5V7.50004C6.25 7.91425 6.58579 8.25004 7 8.25004C7.41421 8.25004 7.75 7.91425 7.75 7.50004V6.5Z" fill="#2D2E2E"/>
<path fill-rule="evenodd" clip-rule="evenodd" d="M3 6.7312C3 3.65856 3.65856 3 6.7312 3H7.2688C10.3414 3 11 3.65856 11 6.7312V7.2688C11 10.3414 10.3414 11 7.2688 11H6.7312C3.65856 11 3 10.3414 3 7.2688V6.7312ZM4.5 6.7312C4.5 5.99728 4.54128 5.50988 4.61518 5.17735C4.68506 4.86296 4.76281 4.78522 4.77391 4.77413C4.785 4.76304 4.86296 4.68506 5.17735 4.61518C5.50988 4.54128 5.99728 4.5 6.7312 4.5H7.2688C8.00272 4.5 8.49012 4.54128 8.82265 4.61518C9.13704 4.68506 9.21478 4.76281 9.22587 4.7739C9.23696 4.785 9.31494 4.86296 9.38482 5.17735C9.45872 5.50988 9.5 5.99728 9.5 6.7312V7.2688C9.5 8.00272 9.45872 8.49012 9.38482 8.82265C9.31494 9.13705 9.23719 9.21478 9.22609 9.22587C9.21501 9.23696 9.13705 9.31494 8.82265 9.38482C8.49012 9.45872 8.00272 9.5 7.2688 9.5H6.7312C5.99728 9.5 5.50988 9.45872 5.17735 9.38482C4.86296 9.31494 4.78522 9.23719 4.77413 9.2261C4.76304 9.215 4.68506 9.13704 4.61518 8.82265C4.54128 8.49012 4.5 8.00272 4.5 7.2688V6.7312Z" fill="#2D2E2E"/>
<path d="M16.5 6.25C16.0858 6.25 15.75 6.58579 15.75 7C15.75 7.41421 16.0858 7.75 16.5 7.75H17.5C17.9142 7.75 18.25 7.41421 18.25 7C18.25 6.58579 17.9142 6.25 17.5 6.25H16.5Z" fill="#2D2E2E"/>
<path fill-rule="evenodd" clip-rule="evenodd" d="M13 6.7312C13 3.65856 13.6586 3 16.7312 3H17.2688C20.3414 3 21 3.65856 21 6.7312V7.2688C21 10.3414 20.3414 11 17.2688 11H16.7312C13.6586 11 13 10.3414 13 7.2688V6.7312ZM14.5 6.7312C14.5 5.99728 14.5413 5.50988 14.6152 5.17735C14.6851 4.86296 14.7628 4.78522 14.7739 4.77413C14.785 4.76304 14.863 4.68506 15.1774 4.61518C15.5099 4.54128 15.9973 4.5 16.7312 4.5H17.2688C18.0027 4.5 18.4901 4.54128 18.8226 4.61518C19.137 4.68506 19.2148 4.76281 19.2259 4.7739C19.237 4.785 19.3149 4.86296 19.3848 5.17735C19.4587 5.50988 19.5 5.99728 19.5 6.7312V7.2688C19.5 8.00272 19.4587 8.49012 19.3848 8.82265C19.3149 9.13705 19.2372 9.21478 19.2261 9.22587C19.215 9.23696 19.137 9.31494 18.8226 9.38482C18.4901 9.45872 18.0027 9.5 17.2688 9.5H16.7312C15.9973 9.5 15.5099 9.45872 15.1774 9.38482C14.863 9.31494 14.7852 9.23719 14.7741 9.2261C14.763 9.215 14.6851 9.13704 14.6152 8.82265C14.5413 8.49012 14.5 8.00272 14.5 7.2688V6.7312Z" fill="#2D2E2E"/>
<path d="M8.03022 15.9696C8.32317 16.2624 8.32328 16.7373 8.03045 17.0302L7.03021 18.0304C6.73726 18.3233 6.26238 18.3232 5.96955 18.0302C5.67673 17.7373 5.67683 17.2624 5.96979 16.9696L6.96956 15.9698C7.26239 15.6768 7.73726 15.6767 8.03022 15.9696Z" fill="#2D2E2E"/>
<path fill-rule="evenodd" clip-rule="evenodd" d="M6.7312 13C3.65856 13 3 13.6586 3 16.7312V17.2688C3 20.3414 3.65856 21 6.7312 21H7.2688C10.3414 21 11 20.3414 11 17.2688V16.7312C11 13.6586 10.3414 13 7.2688 13H6.7312ZM4.61518 15.1774C4.54128 15.5099 4.5 15.9973 4.5 16.7312V17.2688C4.5 18.0027 4.54128 18.4901 4.61518 18.8226C4.68506 19.137 4.76281 19.2148 4.7739 19.2259C4.785 19.237 4.86296 19.3149 5.17735 19.3848C5.50988 19.4587 5.99728 19.5 6.7312 19.5H7.2688C8.00272 19.5 8.49012 19.4587 8.82265 19.3848C9.13705 19.3149 9.21478 19.2372 9.22587 19.2261C9.23696 19.215 9.31494 19.137 9.38482 18.8226C9.45872 18.4901 9.5 18.0027 9.5 17.2688V16.7312C9.5 15.9973 9.45872 15.5099 9.38482 15.1774C9.31494 14.863 9.23719 14.7852 9.2261 14.7741C9.215 14.763 9.13704 14.6851 8.82265 14.6152C8.49012 14.5413 8.00272 14.5 7.2688 14.5H6.7312C5.99728 14.5 5.50988 14.5413 5.17735 14.6152C4.86296 14.6851 4.78522 14.7628 4.77413 14.7739C4.76304 14.785 4.68506 14.863 4.61518 15.1774Z" fill="#2D2E2E"/>
<path d="M13.75 13.75C13.3358 13.75 13 14.0858 13 14.5C13 14.9142 13.3358 15.25 13.75 15.25H14.25C14.6642 15.25 15 14.9142 15 14.5C15 14.0858 14.6642 13.75 14.25 13.75H13.75Z" fill="#2D2E2E"/>
<path d="M19.25 13.75C18.8358 13.75 18.5 14.0858 18.5 14.5C18.5 14.9142 18.8358 15.25 19.25 15.25H19.75C20.1642 15.25 20.5 14.9142 20.5 14.5C20.5 14.0858 20.1642 13.75 19.75 13.75H19.25Z" fill="#2D2E2E"/>
<path d="M20.5 20C20.5 20.4142 20.1642 20.75 19.75 20.75H19.25C18.8358 20.75 18.5 20.4142 18.5 20C18.5 19.5858 18.8358 19.25 19.25 19.25H19.75C20.1642 19.25 20.5 19.5858 20.5 20Z" fill="#2D2E2E"/>
<path d="M13.7501 19.25C13.3359 19.25 13.0001 19.5858 13.0001 20C13.0001 20.4142 13.3359 20.75 13.7501 20.75H14.25C14.6642 20.75 15 20.4142 15 20C15 19.5858 14.6642 19.25 14.25 19.25H13.7501Z" fill="#2D2E2E"/>
<path d="M16.75 16.25C17.1642 16.25 17.5 16.5858 17.5 17V17.5C17.5 17.9142 17.1642 18.25 16.75 18.25C16.3358 18.25 16 17.9142 16 17.5V17C16 16.5858 16.3358 16.25 16.75 16.25Z" fill="#2D2E2E"/>
</svg>
