<svg width="24" height="24" viewBox="0 0 24 24" fill="none" xmlns="http://www.w3.org/2000/svg">
<path d="M13.2298 6.77639L13.2644 6.79366C14.1749 7.24891 14.75 8.1795 14.75 9.19745C14.75 9.91023 14.4669 10.5938 13.9628 11.0978L13.5303 11.5303C13.0307 12.03 12.75 12.7076 12.75 13.4142V13.5C12.75 13.9142 12.4142 14.25 12 14.25C11.5858 14.25 11.25 13.9142 11.25 13.5V13.4142C11.25 12.3098 11.6887 11.2506 12.4697 10.4697L12.9022 10.0372C13.1249 9.81445 13.25 9.5124 13.25 9.19745C13.25 8.74765 12.9959 8.33646 12.5936 8.1353L12.559 8.11803C12.2071 7.94208 11.7929 7.94208 11.441 8.11803C11.0175 8.32977 10.75 8.7626 10.75 9.23607V9.5C10.75 9.91421 10.4142 10.25 10 10.25C9.58579 10.25 9.25 9.91421 9.25 9.5V9.23607C9.25 8.19444 9.83851 7.24222 10.7702 6.77639C11.5444 6.38929 12.4556 6.38929 13.2298 6.77639Z" fill="#2D2E2E"/>
<path d="M12.75 16C12.75 15.5858 12.4142 15.25 12 15.25C11.5858 15.25 11.25 15.5858 11.25 16V16.5C11.25 16.9142 11.5858 17.25 12 17.25C12.4142 17.25 12.75 16.9142 12.75 16.5V16Z" fill="#2D2E2E"/>
<path fill-rule="evenodd" clip-rule="evenodd" d="M12 2C17.5228 2 22 6.47715 22 12C22 17.5228 17.5228 22 12 22C6.47715 22 2 17.5228 2 12C2 6.47715 6.47715 2 12 2ZM12 3.5C16.6944 3.5 20.5 7.30558 20.5 12C20.5 16.6944 16.6944 20.5 12 20.5C7.30558 20.5 3.5 16.6944 3.5 12C3.5 7.30558 7.30558 3.5 12 3.5Z" fill="#2D2E2E"/>
</svg>
