<svg width="24" height="24" viewBox="0 0 24 24" fill="none" xmlns="http://www.w3.org/2000/svg">
<path d="M11.5303 2.96967C11.2374 2.67678 10.7626 2.67678 10.4697 2.96967C10.1768 3.26256 10.1768 3.73744 10.4697 4.03033L11.6953 5.25592C7.55631 5.41596 4.25 8.82189 4.25 13C4.25 17.2802 7.71979 20.75 12 20.75C16.2802 20.75 19.75 17.2802 19.75 13C19.75 11.4411 19.2889 9.98762 18.4955 8.77118C18.2692 8.42425 17.8045 8.32644 17.4576 8.55273C17.1107 8.77902 17.0129 9.24371 17.2391 9.59065C17.8784 10.5708 18.25 11.7409 18.25 13C18.25 16.4518 15.4518 19.25 12 19.25C8.54822 19.25 5.75 16.4518 5.75 13C5.75 9.65514 8.37762 6.92395 11.6813 6.75803L10.4697 7.96967C10.1768 8.26256 10.1768 8.73744 10.4697 9.03033C10.7626 9.32322 11.2374 9.32322 11.5303 9.03033L14.0303 6.53033C14.3232 6.23744 14.3232 5.76256 14.0303 5.46967L11.5303 2.96967Z" fill="#2D2E2E"/>
</svg>
