<svg width="24" height="24" viewBox="0 0 24 24" fill="none" xmlns="http://www.w3.org/2000/svg">
<path d="M6.25 13.5C6.25 13.9142 6.58579 14.25 7 14.25H8C8.41421 14.25 8.75 13.9142 8.75 13.5C8.75 13.0858 8.41421 12.75 8 12.75H7C6.58579 12.75 6.25 13.0858 6.25 13.5Z" fill="#2D2E2E"/>
<path d="M16 14.25C15.5858 14.25 15.25 13.9142 15.25 13.5C15.25 13.0858 15.5858 12.75 16 12.75H17C17.4142 12.75 17.75 13.0858 17.75 13.5C17.75 13.9142 17.4142 14.25 17 14.25H16Z" fill="#2D2E2E"/>
<path fill-rule="evenodd" clip-rule="evenodd" d="M8.40085 4.75C7.24446 4.75 6.21161 5.47343 5.81642 6.56021L4.51146 10.1489C3.6283 10.4813 3 11.3339 3 12.3333C3 12.8734 3.09173 13.392 3.26046 13.8744C3.25358 13.9153 3.25 13.9572 3.25 14V18C3.25 18.9665 4.0335 19.75 5 19.75H6C6.9665 19.75 7.75 18.9665 7.75 18V17L16.25 17V18C16.25 18.9665 17.0335 19.75 18 19.75H19C19.9665 19.75 20.75 18.9665 20.75 18V14C20.75 13.9572 20.7464 13.9153 20.7395 13.8745C20.9083 13.392 21 12.8734 21 12.3333C21 11.3339 20.3717 10.4813 19.4885 10.1489L18.1836 6.56021C17.7884 5.47344 16.7555 4.75 15.5991 4.75H8.40085ZM19.25 15.9765C18.8007 16.3366 18.2834 16.6154 17.7203 16.7904C17.7396 16.8569 17.75 16.9273 17.75 17V18C17.75 18.1381 17.8619 18.25 18 18.25H19C19.1381 18.25 19.25 18.1381 19.25 18V15.9765ZM4.75 18V15.9765C5.19138 16.3303 5.69845 16.6056 6.25 16.7811V18C6.25 18.1381 6.13807 18.25 6 18.25H5C4.86193 18.25 4.75 18.1381 4.75 18ZM17.8383 10L16.7739 7.07282C16.5943 6.57883 16.1248 6.25 15.5991 6.25H8.40085C7.87522 6.25 7.40574 6.57883 7.22611 7.07282L6.16168 10L17.8383 10ZM16.3333 15.5L7.66667 15.5C5.91777 15.5 4.5 14.0822 4.5 12.3333C4.5 11.8731 4.8731 11.5 5.33333 11.5L18.6667 11.5C19.1269 11.5 19.5 11.8731 19.5 12.3333C19.5 14.0822 18.0822 15.5 16.3333 15.5Z" fill="#2D2E2E"/>
<path d="M2.25 9C2.25 9.41421 2.58579 9.75 3 9.75H4C4.41421 9.75 4.75 9.41421 4.75 9C4.75 8.58579 4.41421 8.25 4 8.25H3C2.58579 8.25 2.25 8.58579 2.25 9Z" fill="#2D2E2E"/>
<path d="M20 9.75C19.5858 9.75 19.25 9.41421 19.25 9C19.25 8.58579 19.5858 8.25 20 8.25H21C21.4142 8.25 21.75 8.58579 21.75 9C21.75 9.41421 21.4142 9.75 21 9.75H20Z" fill="#2D2E2E"/>
</svg>
