<svg width="24" height="24" viewBox="0 0 24 24" fill="none" xmlns="http://www.w3.org/2000/svg">
<path d="M16.1087 9.43823C16.3507 9.10208 16.2744 8.63338 15.9382 8.39135C15.6021 8.14932 15.1334 8.22562 14.8913 8.56177L11.7617 12.9085L9.98014 11.4238C9.66193 11.1587 9.18901 11.2017 8.92383 11.5199C8.65866 11.8381 8.70165 12.311 9.01986 12.5762L11.4199 14.5762C11.5797 14.7094 11.7878 14.7702 11.9943 14.7441C12.2007 14.7179 12.387 14.6071 12.5087 14.4382L16.1087 9.43823Z" fill="#2D2E2E"/>
<path fill-rule="evenodd" clip-rule="evenodd" d="M6.75 3C5.23122 3 4 4.23122 4 5.75V11.2741C4 14.4797 5.57571 17.4805 8.2146 19.3004L10.4387 20.8343C11.3787 21.4825 12.6213 21.4825 13.5613 20.8343L15.7854 19.3004C18.4243 17.4805 20 14.4797 20 11.2741V5.75C20 4.23122 18.7688 3 17.25 3H6.75ZM5.5 5.75C5.5 5.05964 6.05964 4.5 6.75 4.5H17.25C17.9404 4.5 18.5 5.05964 18.5 5.75V11.2741C18.5 13.9866 17.1667 16.5257 14.9338 18.0656L12.7097 19.5995C12.2824 19.8942 11.7176 19.8942 11.2903 19.5995L9.0662 18.0656C6.83329 16.5257 5.5 13.9866 5.5 11.2741V5.75Z" fill="#2D2E2E"/>
</svg>
