<svg width="24" height="24" viewBox="0 0 24 24" fill="none" xmlns="http://www.w3.org/2000/svg">
<path d="M8.01191 5.93056C7.69741 6.20012 7.66099 6.6736 7.93056 6.98809C8.20012 7.30259 8.6736 7.33901 8.98809 7.06944L11.25 5.13067V15C11.25 15.4142 11.5858 15.75 12 15.75C12.4142 15.75 12.75 15.4142 12.75 15V5.13067L15.0119 7.06944C15.3264 7.33901 15.7999 7.30259 16.0694 6.98809C16.339 6.6736 16.3026 6.20012 15.9881 5.93056L12.4881 2.93056C12.2072 2.68981 11.7928 2.68981 11.5119 2.93056L8.01191 5.93056Z" fill="#2D2E2E"/>
<path d="M5.25 11.5C5.25 11.0858 4.91421 10.75 4.5 10.75C4.08579 10.75 3.75 11.0858 3.75 11.5V17.5C3.75 19.5711 5.42893 21.25 7.5 21.25H16.5C18.5711 21.25 20.25 19.5711 20.25 17.5V11.5C20.25 11.0858 19.9142 10.75 19.5 10.75C19.0858 10.75 18.75 11.0858 18.75 11.5V17.5C18.75 18.7426 17.7426 19.75 16.5 19.75H7.5C6.25736 19.75 5.25 18.7426 5.25 17.5V11.5Z" fill="#2D2E2E"/>
</svg>
