<svg width="24" height="24" viewBox="0 0 24 24" fill="none" xmlns="http://www.w3.org/2000/svg">
<path fill-rule="evenodd" clip-rule="evenodd" d="M5.76283 7.21147C5.36987 7.08048 5.1575 6.65574 5.28849 6.26279C5.41948 5.86983 5.84422 5.65746 6.23717 5.78845L15.75 8.95943V6.49996C15.75 6.08575 16.0858 5.74996 16.5 5.74996H19.5C19.9142 5.74996 20.25 6.08575 20.25 6.49996V10.4595L21.2372 10.7885C21.6301 10.9195 21.8425 11.3442 21.7115 11.7372C21.5805 12.1302 21.1558 12.3425 20.7628 12.2115L20.25 12.0406V20.75H21.5C21.9142 20.75 22.25 21.0857 22.25 21.5C22.25 21.9142 21.9142 22.25 21.5 22.25H19.5102C19.5068 22.25 19.5034 22.25 19.5 22.25L7.5 22.25C7.49943 22.25 7.49886 22.25 7.49829 22.25H4.51053C4.50703 22.25 4.50352 22.25 4.5 22.25C4.49648 22.25 4.49297 22.25 4.48947 22.25H2.5C2.08579 22.25 1.75 21.9142 1.75 21.5C1.75 21.0857 2.08579 20.75 2.5 20.75H3.75V14.125L3.28849 14.3173C2.9124 14.4741 2.47998 14.3018 2.31458 13.9295C2.14918 13.5571 2.31131 13.1208 2.67974 12.9468L6.74999 11.0247L6.74998 7.72072C6.74998 7.61314 6.68117 7.51764 6.57914 7.48358L5.76283 7.21147ZM5.25 20.75H6.75L6.74999 12.6836L5.25 13.3919V20.75ZM10.75 20.75L8.25 20.75L8.24999 11.5163C8.25024 11.5051 8.25024 11.4938 8.24999 11.4826L8.24998 8.04053L18.75 11.5406V20.75H16.25V16.5C16.25 15.5335 15.4665 14.75 14.5 14.75H12.5C11.5335 14.75 10.75 15.5335 10.75 16.5V20.75ZM12.25 20.75H14.75V16.5C14.75 16.3619 14.6381 16.25 14.5 16.25H12.5C12.3619 16.25 12.25 16.3619 12.25 16.5V20.75ZM18.75 9.95945V7.24996H17.25V9.45944L18.75 9.95945Z" fill="#2D2E2E"/>
</svg>
