<svg width="24" height="24" viewBox="0 0 24 24" fill="none" xmlns="http://www.w3.org/2000/svg">
<path fill-rule="evenodd" clip-rule="evenodd" d="M13.25 6.11498C13.25 3.82029 10.6053 2.5349 8.80099 3.95261L5.2406 6.75005H3.5C2.5335 6.75005 1.75 7.53355 1.75 8.50005V15.5001C1.75 16.4666 2.5335 17.2501 3.5 17.2501H5.2406L8.80099 20.0475C10.6053 21.4652 13.25 20.1798 13.25 17.8851V6.11498ZM9.72772 5.13208C10.5479 4.48767 11.75 5.07194 11.75 6.11498V17.8851C11.75 18.9282 10.5479 19.5124 9.72773 18.868L5.7594 15.7501H3.5C3.36193 15.7501 3.25 15.6381 3.25 15.5001V8.50005C3.25 8.36198 3.36193 8.25005 3.5 8.25005H5.7594L9.72772 5.13208Z" fill="#2D2E2E"/>
<path d="M18.0151 6.67021C18.2223 6.31156 18.6811 6.18879 19.0397 6.39601C20.8576 7.44631 22.0836 9.41286 22.0836 11.6667C22.0836 13.9207 20.8574 15.8874 19.0392 16.9376C18.6805 17.1448 18.2218 17.022 18.0146 16.6633C17.8074 16.3046 17.9303 15.8459 18.2889 15.6387C19.6622 14.8455 20.5836 13.3632 20.5836 11.6667C20.5836 9.97025 19.6624 8.48812 18.2893 7.69481C17.9307 7.4876 17.8079 7.02887 18.0151 6.67021Z" fill="#2D2E2E"/>
<path d="M16.6863 8.98163C16.894 8.62326 17.3529 8.50112 17.7113 8.70883C18.7292 9.2988 19.4166 10.4019 19.4166 11.6665C19.4166 12.9323 18.728 14.0363 17.7085 14.6259C17.3499 14.8332 16.8911 14.7106 16.6838 14.3521C16.4764 13.9935 16.599 13.5347 16.9575 13.3273C17.5325 12.9948 17.9166 12.3751 17.9166 11.6665C17.9166 10.9586 17.5332 10.3393 16.9591 10.0066C16.6008 9.7989 16.4786 9.34001 16.6863 8.98163Z" fill="#2D2E2E"/>
</svg>
