<svg width="24" height="24" viewBox="0 0 24 24" fill="none" xmlns="http://www.w3.org/2000/svg">
<path fill-rule="evenodd" clip-rule="evenodd" d="M13.25 6.11498C13.25 3.82029 10.6053 2.5349 8.80099 3.95261L5.2406 6.75005H3.5C2.5335 6.75005 1.75 7.53355 1.75 8.50005V15.5001C1.75 16.4666 2.5335 17.2501 3.5 17.2501H5.2406L8.80099 20.0475C10.6053 21.4652 13.25 20.1798 13.25 17.8851V6.11498ZM9.72772 5.13208C10.5479 4.48767 11.75 5.07194 11.75 6.11498V17.8851C11.75 18.9282 10.5479 19.5124 9.72773 18.868L5.7594 15.7501H3.5C3.36193 15.7501 3.25 15.6381 3.25 15.5001V8.50005C3.25 8.36198 3.36193 8.25005 3.5 8.25005H5.7594L9.72772 5.13208Z" fill="#2D2E2E"/>
<path d="M16.4697 9.46972C16.7626 9.17683 17.2374 9.17683 17.5303 9.46972L19 10.9394L20.4697 9.46972C20.7626 9.17683 21.2374 9.17683 21.5303 9.46972C21.8232 9.76262 21.8232 10.2375 21.5303 10.5304L20.0607 12.0001L21.5303 13.4697C21.8232 13.7626 21.8232 14.2375 21.5303 14.5304C21.2374 14.8233 20.7626 14.8233 20.4697 14.5304L19 13.0607L17.5303 14.5304C17.2374 14.8233 16.7626 14.8233 16.4697 14.5304C16.1768 14.2375 16.1768 13.7626 16.4697 13.4697L17.9393 12.0001L16.4697 10.5304C16.1768 10.2375 16.1768 9.76262 16.4697 9.46972Z" fill="#2D2E2E"/>
</svg>
