<svg width="24" height="24" viewBox="0 0 24 24" fill="none" xmlns="http://www.w3.org/2000/svg">
<path fill-rule="evenodd" clip-rule="evenodd" d="M13.9999 9C13.9999 7.89543 14.8954 7 15.9999 7C17.1045 7 17.9999 7.89543 17.9999 9C17.9999 10.1046 17.1045 11 15.9999 11C14.8954 11 13.9999 10.1046 13.9999 9ZM15.9999 9.5C15.7238 9.5 15.4999 9.27614 15.4999 9C15.4999 8.72386 15.7238 8.5 15.9999 8.5C16.2761 8.5 16.4999 8.72386 16.4999 9C16.4999 9.27614 16.2761 9.5 15.9999 9.5Z" fill="#2D2E2E"/>
<path fill-rule="evenodd" clip-rule="evenodd" d="M17.4999 3.25H15.8994C13.844 3.25 11.8728 4.06652 10.4194 5.51992L3.88383 12.0555C2.80989 13.1294 2.80988 14.8706 3.88382 15.9445L9.01867 21.0794C10.1121 22.1728 11.8919 22.15 12.957 21.0289L19.1187 14.5429C20.487 13.1025 21.2499 11.1917 21.2499 9.20507V7C21.2499 4.92893 19.571 3.25 17.4999 3.25ZM15.8994 4.75H17.4999C18.7426 4.75 19.7499 5.75736 19.7499 7V9.20507C19.7499 10.8072 19.1347 12.3482 18.0312 13.5098L11.8695 19.9958C11.3853 20.5054 10.5764 20.5158 10.0793 20.0187L4.94448 14.8839C4.45633 14.3957 4.45633 13.6043 4.94449 13.1161L11.48 6.58059C12.6521 5.40848 14.2418 4.75 15.8994 4.75Z" fill="#2D2E2E"/>
</svg>
