<svg width="24" height="24" viewBox="0 0 24 24" fill="none" xmlns="http://www.w3.org/2000/svg">
<path fill-rule="evenodd" clip-rule="evenodd" d="M3 6.7312C3 3.65856 3.65856 3 6.7312 3H7.2688C10.3414 3 11 3.65856 11 6.7312V7.2688C11 10.3414 10.3414 11 7.2688 11H6.7312C3.65856 11 3 10.3414 3 7.2688V6.7312ZM4.5 6.7312C4.5 5.99728 4.54128 5.50988 4.61518 5.17735C4.68506 4.86296 4.76281 4.78522 4.77391 4.77413C4.785 4.76304 4.86296 4.68506 5.17735 4.61518C5.50988 4.54128 5.99728 4.5 6.7312 4.5H7.2688C8.00272 4.5 8.49012 4.54128 8.82265 4.61518C9.13704 4.68506 9.21478 4.76281 9.22587 4.7739C9.23696 4.785 9.31494 4.86296 9.38482 5.17735C9.45872 5.50988 9.5 5.99728 9.5 6.7312V7.2688C9.5 8.00272 9.45872 8.49012 9.38482 8.82265C9.31494 9.13705 9.23719 9.21478 9.22609 9.22587C9.21501 9.23696 9.13705 9.31494 8.82265 9.38482C8.49012 9.45872 8.00272 9.5 7.2688 9.5H6.7312C5.99728 9.5 5.50988 9.45872 5.17735 9.38482C4.86296 9.31494 4.78522 9.23719 4.77413 9.2261C4.76304 9.215 4.68506 9.13704 4.61518 8.82265C4.54128 8.49012 4.5 8.00272 4.5 7.2688V6.7312Z" fill="#2D2E2E"/>
<path fill-rule="evenodd" clip-rule="evenodd" d="M13 6.7312C13 3.65856 13.6586 3 16.7312 3H17.2688C20.3414 3 21 3.65856 21 6.7312V7.2688C21 10.3414 20.3414 11 17.2688 11H16.7312C13.6586 11 13 10.3414 13 7.2688V6.7312ZM14.5 6.7312C14.5 5.99728 14.5413 5.50988 14.6152 5.17735C14.6851 4.86296 14.7628 4.78522 14.7739 4.77413C14.785 4.76304 14.863 4.68506 15.1774 4.61518C15.5099 4.54128 15.9973 4.5 16.7312 4.5H17.2688C18.0027 4.5 18.4901 4.54128 18.8226 4.61518C19.137 4.68506 19.2148 4.76281 19.2259 4.7739C19.237 4.785 19.3149 4.86296 19.3848 5.17735C19.4587 5.50988 19.5 5.99728 19.5 6.7312V7.2688C19.5 8.00272 19.4587 8.49012 19.3848 8.82265C19.3149 9.13705 19.2372 9.21478 19.2261 9.22587C19.215 9.23696 19.137 9.31494 18.8226 9.38482C18.4901 9.45872 18.0027 9.5 17.2688 9.5H16.7312C15.9973 9.5 15.5099 9.45872 15.1774 9.38482C14.863 9.31494 14.7852 9.23719 14.7741 9.2261C14.763 9.215 14.6851 9.13704 14.6152 8.82265C14.5413 8.49012 14.5 8.00272 14.5 7.2688V6.7312Z" fill="#2D2E2E"/>
<path fill-rule="evenodd" clip-rule="evenodd" d="M6.7312 13C3.65856 13 3 13.6586 3 16.7312V17.2688C3 20.3414 3.65856 21 6.7312 21H7.2688C10.3414 21 11 20.3414 11 17.2688V16.7312C11 13.6586 10.3414 13 7.2688 13H6.7312ZM4.61518 15.1774C4.54128 15.5099 4.5 15.9973 4.5 16.7312V17.2688C4.5 18.0027 4.54128 18.4901 4.61518 18.8226C4.68506 19.137 4.76281 19.2148 4.7739 19.2259C4.785 19.237 4.86296 19.3149 5.17735 19.3848C5.50988 19.4587 5.99728 19.5 6.7312 19.5H7.2688C8.00272 19.5 8.49012 19.4587 8.82265 19.3848C9.13705 19.3149 9.21478 19.2372 9.22587 19.2261C9.23696 19.215 9.31494 19.137 9.38482 18.8226C9.45872 18.4901 9.5 18.0027 9.5 17.2688V16.7312C9.5 15.9973 9.45872 15.5099 9.38482 15.1774C9.31494 14.863 9.23719 14.7852 9.2261 14.7741C9.215 14.763 9.13704 14.6851 8.82265 14.6152C8.49012 14.5413 8.00272 14.5 7.2688 14.5H6.7312C5.99728 14.5 5.50988 14.5413 5.17735 14.6152C4.86296 14.6851 4.78522 14.7628 4.77413 14.7739C4.76304 14.785 4.68506 14.863 4.61518 15.1774Z" fill="#2D2E2E"/>
<path fill-rule="evenodd" clip-rule="evenodd" d="M13 16.7312C13 13.6586 13.6586 13 16.7312 13H17.2688C20.3414 13 21 13.6586 21 16.7312V17.2688C21 20.3414 20.3414 21 17.2688 21H16.7312C13.6586 21 13 20.3414 13 17.2688V16.7312ZM14.5 16.7312C14.5 15.9973 14.5413 15.5099 14.6152 15.1774C14.6851 14.863 14.7628 14.7852 14.7739 14.7741C14.785 14.763 14.863 14.6851 15.1774 14.6152C15.5099 14.5413 15.9973 14.5 16.7312 14.5H17.2688C18.0027 14.5 18.4901 14.5413 18.8226 14.6152C19.137 14.6851 19.2148 14.7628 19.2259 14.7739C19.237 14.785 19.3149 14.863 19.3848 15.1774C19.4587 15.5099 19.5 15.9973 19.5 16.7312V17.2688C19.5 18.0027 19.4587 18.4901 19.3848 18.8226C19.3149 19.137 19.2372 19.2148 19.2261 19.2259C19.215 19.237 19.137 19.3149 18.8226 19.3848C18.4901 19.4587 18.0027 19.5 17.2688 19.5H16.7312C15.9973 19.5 15.5099 19.4587 15.1774 19.3848C14.863 19.3149 14.7852 19.2372 14.7741 19.2261C14.763 19.215 14.6851 19.137 14.6152 18.8226C14.5413 18.4901 14.5 18.0027 14.5 17.2688V16.7312Z" fill="#2D2E2E"/>
</svg>
