<svg width="24" height="24" viewBox="0 0 24 24" fill="none" xmlns="http://www.w3.org/2000/svg">
<path fill-rule="evenodd" clip-rule="evenodd" d="M3 2.75006C2.58579 2.75006 2.25 3.08585 2.25 3.50006C2.25 3.91427 2.58579 4.25006 3 4.25006H3.31746C4.63595 4.25006 5.82379 5.04665 6.32424 6.26648L7.58735 9.3452C4.74229 9.85443 2.58295 12.3416 2.58295 15.3332C2.58295 18.6929 5.30655 21.4165 8.66628 21.4165C12.026 21.4165 14.7496 18.6929 14.7496 15.3332C14.7496 14.9047 14.7053 14.4866 14.6211 14.0831H17.9166V16.0201C16.7625 16.3467 15.9169 17.4078 15.9169 18.6665C15.9169 20.1853 17.1481 21.4165 18.6669 21.4165C20.1857 21.4165 21.4169 20.1853 21.4169 18.6665C21.4169 17.4076 20.571 16.3463 19.4166 16.0199V13C19.4166 10.9289 17.7377 9.24998 15.6666 9.24998H9.16961L8.41738 7.41646H15.3329C15.7472 7.41646 16.0829 7.08068 16.0829 6.66646C16.0829 6.25225 15.7472 5.91646 15.3329 5.91646H7.80198L7.71199 5.69713C6.98056 3.91431 5.24449 2.75006 3.31746 2.75006H3ZM17.8781 12.5831H14.094C13.7388 11.8833 13.2521 11.2615 12.6666 10.75H15.6666C16.7669 10.75 17.6826 11.5397 17.8781 12.5831ZM18.6551 17.4166L18.6666 17.4166L18.6784 17.4166C19.3635 17.4227 19.9169 17.98 19.9169 18.6665C19.9169 19.3569 19.3573 19.9165 18.6669 19.9165C17.9766 19.9165 17.4169 19.3569 17.4169 18.6665C17.4169 17.9801 17.9702 17.4229 18.6551 17.4166ZM8.62732 10.75H8.70524C11.2186 10.7709 13.2496 12.8148 13.2496 15.3332C13.2496 17.8645 11.1976 19.9165 8.66628 19.9165C6.13497 19.9165 4.08295 17.8645 4.08295 15.3332C4.08295 12.8148 6.11395 10.7709 8.62732 10.75Z" fill="#2D2E2E"/>
</svg>
