<svg width="24" height="24" viewBox="0 0 24 24" fill="none" xmlns="http://www.w3.org/2000/svg">
<path fill-rule="evenodd" clip-rule="evenodd" d="M9 1.75C8.0335 1.75 7.25 2.5335 7.25 3.5V6.6014C7.25 6.86804 7.09935 7.1118 6.86085 7.23105C5.90574 7.7086 5.207 8.57967 4.94801 9.61563L4.85598 9.98373C4.78559 10.2653 4.75 10.5544 4.75 10.8447V20.5C4.75 21.4665 5.5335 22.25 6.5 22.25H12.5C13.4665 22.25 14.25 21.4665 14.25 20.5V10.8447C14.25 10.5544 14.2144 10.2653 14.144 9.98373L14.052 9.61563C13.793 8.57967 13.0943 7.7086 12.1391 7.23105C11.9007 7.1118 11.75 6.86804 11.75 6.6014V3.5C11.75 2.5335 10.9665 1.75 10 1.75H9ZM8.75 3.5C8.75 3.36193 8.86193 3.25 9 3.25H10C10.1381 3.25 10.25 3.36193 10.25 3.5V6.6014C10.25 7.4362 10.7217 8.19935 11.4683 8.57269C12.0318 8.85441 12.444 9.36828 12.5968 9.97943L12.6888 10.3475C12.7218 10.4795 12.7415 10.6143 12.7478 10.75H6.25219C6.25846 10.6143 6.27821 10.4795 6.3112 10.3475L6.40322 9.97943C6.55601 9.36828 6.96822 8.85441 7.53167 8.57269C8.27835 8.19935 8.75 7.4362 8.75 6.6014V3.5ZM6.25 12.25H12.75V16.75H6.25V12.25ZM6.25 18.25H12.75V20.5C12.75 20.6381 12.6381 20.75 12.5 20.75H6.5C6.36193 20.75 6.25 20.6381 6.25 20.5V18.25Z" fill="#2D2E2E"/>
<path d="M15.25 6C15.25 5.58579 15.5858 5.25 16 5.25H19.6591C20.3941 5.25 21.0152 5.79489 21.1109 6.52364L21.5892 10.1662C21.7085 11.0744 21.5688 11.9979 21.1863 12.8302C20.7155 13.8546 19.9034 14.6836 18.8889 15.1754L17.25 15.9699V20.75H19.5C19.9142 20.75 20.25 21.0858 20.25 21.5C20.25 21.9142 19.9142 22.25 19.5 22.25H15C14.5858 22.25 14.25 21.9142 14.25 21.5C14.25 21.0858 14.5858 20.75 15 20.75H15.75V15.5C15.75 15.2126 15.9142 14.9505 16.1728 14.8251L18.2346 13.8256C18.9361 13.4855 19.4977 12.9122 19.8233 12.2038C20.0879 11.6282 20.1845 10.9896 20.102 10.3615L19.6278 6.75H16C15.5858 6.75 15.25 6.41421 15.25 6Z" fill="#2D2E2E"/>
</svg>
