<svg width="24" height="24" viewBox="0 0 24 24" fill="none" xmlns="http://www.w3.org/2000/svg">
<path d="M4.75012 14.4999C4.75012 14.9142 5.08591 15.2499 5.50012 15.2499C5.91434 15.2499 6.25012 14.9142 6.25012 14.4999V7.43312L17.8366 18.8971C18.131 19.1884 18.6059 19.1859 18.8972 18.8914C19.1885 18.597 19.186 18.1221 18.8916 17.8308L7.32448 6.38599H14.5001C14.9143 6.38599 15.2501 6.0502 15.2501 5.63599C15.2501 5.22177 14.9143 4.88599 14.5001 4.88599L5.50012 4.88599C5.30121 4.88599 5.11044 4.965 4.96979 5.10566C4.82914 5.24631 4.75012 5.43707 4.75012 5.63599L4.75012 14.4999Z" fill="#2D2E2E"/>
</svg>
