<svg width="24" height="24" viewBox="0 0 24 24" fill="none" xmlns="http://www.w3.org/2000/svg">
<path d="M18.614 8.86396C19.0282 8.86396 19.364 9.19975 19.364 9.61396L19.364 18.614C19.364 18.8129 19.2849 19.0036 19.1443 19.1443C19.0036 19.2849 18.8129 19.364 18.614 19.364L9.61396 19.364C9.19974 19.364 8.86396 19.0282 8.86396 18.614C8.86396 18.1998 9.19974 17.864 9.61396 17.864H16.8033L5.21967 6.28033C4.92678 5.98744 4.92678 5.51256 5.21967 5.21967C5.51256 4.92678 5.98744 4.92678 6.28033 5.21967L17.864 16.8033V9.61396C17.864 9.19975 18.1997 8.86396 18.614 8.86396Z" fill="#2D2E2E"/>
</svg>
