<svg width="24" height="24" viewBox="0 0 24 24" fill="none" xmlns="http://www.w3.org/2000/svg">
<path d="M18.5303 14.4697C18.8232 14.7626 18.8232 15.2374 18.5303 15.5303L12.5303 21.5303C12.3897 21.671 12.1989 21.75 12 21.75C11.8011 21.75 11.6103 21.671 11.4697 21.5303L5.46967 15.5303C5.17678 15.2374 5.17678 14.7626 5.46967 14.4697C5.76256 14.1768 6.23744 14.1768 6.53033 14.4697L11.25 19.1893V3C11.25 2.58579 11.5858 2.25 12 2.25C12.4142 2.25 12.75 2.58579 12.75 3V19.1893L17.4697 14.4697C17.7626 14.1768 18.2374 14.1768 18.5303 14.4697Z" fill="#2D2E2E"/>
</svg>
