<svg width="24" height="24" viewBox="0 0 24 24" fill="none" xmlns="http://www.w3.org/2000/svg">
<path d="M2.46967 9.46967C2.17678 9.76256 2.17678 10.2374 2.46967 10.5303C2.76256 10.8232 3.23744 10.8232 3.53033 10.5303L6.25001 7.81066L6.25001 18C6.25001 18.4142 6.58579 18.75 7.00001 18.75C7.41422 18.75 7.75001 18.4142 7.75001 18L7.75001 7.81066L10.4697 10.5303C10.7626 10.8232 11.2374 10.8232 11.5303 10.5303C11.8232 10.2374 11.8232 9.76256 11.5303 9.46967L7.53034 5.46967C7.38969 5.32902 7.19892 5.25 7.00001 5.25C6.8011 5.25 6.61033 5.32902 6.46968 5.46967L2.46967 9.46967Z" fill="#2D2E2E"/>
<path d="M12.4697 14.5303C12.1768 14.2374 12.1768 13.7626 12.4697 13.4697C12.7626 13.1768 13.2374 13.1768 13.5303 13.4697L16.25 16.1893V6C16.25 5.58579 16.5858 5.25 17 5.25C17.4142 5.25 17.75 5.58579 17.75 6V16.1893L20.4697 13.4697C20.7626 13.1768 21.2374 13.1768 21.5303 13.4697C21.8232 13.7626 21.8232 14.2374 21.5303 14.5303L17.5303 18.5303C17.3897 18.671 17.1989 18.75 17 18.75C16.8011 18.75 16.6103 18.671 16.4697 18.5303L12.4697 14.5303Z" fill="#2D2E2E"/>
</svg>
