<svg width="24" height="24" viewBox="0 0 24 24" fill="none" xmlns="http://www.w3.org/2000/svg">
<path d="M4.5 3.25C3.80964 3.25 3.25 3.80964 3.25 4.5V7.5C3.25 7.91421 2.91421 8.25 2.5 8.25C2.08579 8.25 1.75 7.91421 1.75 7.5V4.5C1.75 2.98122 2.98122 1.75 4.5 1.75H7.5C7.91421 1.75 8.25 2.08579 8.25 2.5C8.25 2.91421 7.91421 3.25 7.5 3.25H4.5Z" fill="#2D2E2E"/>
<path d="M6.8733 9.2602C7.28188 9.3283 7.55789 9.71472 7.4898 10.1233L7.46434 10.276C7.32169 11.1319 7.25 11.9981 7.25 12.8659C7.25 13.9032 7.35247 14.9381 7.55592 15.9553L7.73544 16.8529C7.81667 17.2591 7.55326 17.6542 7.14709 17.7354C6.74092 17.8167 6.3458 17.5533 6.26456 17.1471L6.08505 16.2495C5.86223 15.1354 5.75 14.002 5.75 12.8659C5.75 11.9155 5.82852 10.9668 5.98475 10.0294L6.0102 9.8767C6.0783 9.46812 6.46472 9.19211 6.8733 9.2602Z" fill="#2D2E2E"/>
<path d="M4.5 20.75C3.80964 20.75 3.25 20.1904 3.25 19.5V16.5C3.25 16.0858 2.91421 15.75 2.5 15.75C2.08579 15.75 1.75 16.0858 1.75 16.5V19.5C1.75 21.0188 2.98122 22.25 4.5 22.25H7.5C7.91421 22.25 8.25 21.9142 8.25 21.5C8.25 21.0858 7.91421 20.75 7.5 20.75H4.5Z" fill="#2D2E2E"/>
<path d="M20.75 19.5C20.75 20.1904 20.1904 20.75 19.5 20.75H16.5C16.0858 20.75 15.75 21.0858 15.75 21.5C15.75 21.9142 16.0858 22.25 16.5 22.25H19.5C21.0188 22.25 22.25 21.0188 22.25 19.5V16.5C22.25 16.0858 21.9142 15.75 21.5 15.75C21.0858 15.75 20.75 16.0858 20.75 16.5V19.5Z" fill="#2D2E2E"/>
<path d="M20.75 4.5C20.75 3.80964 20.1904 3.25 19.5 3.25H16.5C16.0858 3.25 15.75 2.91421 15.75 2.5C15.75 2.08579 16.0858 1.75 16.5 1.75H19.5C21.0188 1.75 22.25 2.98122 22.25 4.5V7.5C22.25 7.91421 21.9142 8.25 21.5 8.25C21.0858 8.25 20.75 7.91421 20.75 7.5V4.5Z" fill="#2D2E2E"/>
<path d="M13.6179 6.99656C12.3515 6.57442 10.9611 6.76062 9.85042 7.5011L8.91603 8.12404C8.57138 8.3538 8.10573 8.26067 7.87596 7.91603C7.6462 7.57138 7.73933 7.10573 8.08397 6.87596L9.01837 6.25303C10.5142 5.25578 12.3867 5.00501 14.0923 5.57353L14.1917 5.60667C14.617 5.74842 15.0214 5.94624 15.3944 6.19489C16.1725 6.7136 16.8017 7.42638 17.2199 8.26278L17.4208 8.66458C17.6061 9.03507 17.4559 9.48557 17.0854 9.67082C16.7149 9.85606 16.2644 9.7059 16.0792 9.33542L15.8783 8.93361C15.5768 8.33069 15.1232 7.81688 14.5623 7.44296C14.3003 7.26827 14.0161 7.12929 13.7174 7.0297L13.6179 6.99656Z" fill="#2D2E2E"/>
<path d="M17.9963 11.9254C17.9551 11.5132 17.5875 11.2125 17.1754 11.2537C16.7632 11.2949 16.4625 11.6625 16.5037 12.0746L16.6197 13.2346C16.7012 14.049 16.661 14.8709 16.5005 15.6735L16.2646 16.8529C16.1833 17.2591 16.4467 17.6542 16.8529 17.7354C17.2591 17.8167 17.6542 17.5533 17.7354 17.1471L17.9713 15.9676C18.161 15.0192 18.2085 14.0478 18.1123 13.0853L17.9963 11.9254Z" fill="#2D2E2E"/>
<path d="M9.8734 9.24081C11.1167 8.24618 12.8833 8.24619 14.1266 9.24082L14.1597 9.26725C14.8248 9.79935 15.2701 10.5583 15.4101 11.3985L15.5637 12.3203C15.6968 13.1186 15.6641 13.9358 15.4678 14.7209L14.9776 16.6819C14.8771 17.0837 14.4699 17.3281 14.0681 17.2276C13.6663 17.1271 13.4219 16.7199 13.5224 16.3181L14.0126 14.3571C14.159 13.7716 14.1834 13.1622 14.0841 12.5669L13.9305 11.6451C13.8512 11.1694 13.5991 10.7398 13.2226 10.4386L13.1896 10.4121C12.4941 9.85575 11.5059 9.85575 10.8104 10.4121C10.4231 10.722 10.172 11.1707 10.1105 11.6629L9.99421 12.593C9.94283 13.004 9.56799 13.2956 9.15697 13.2442C8.74596 13.1928 8.45441 12.818 8.50579 12.407L8.62206 11.4768C8.73204 10.597 9.18099 9.79474 9.8734 9.24081Z" fill="#2D2E2E"/>
<path d="M9.3767 14.2602C9.78528 14.1921 10.1717 14.4681 10.2398 14.8767L10.4898 16.3767C10.5579 16.7853 10.2819 17.1717 9.8733 17.2398C9.46472 17.3079 9.0783 17.0319 9.0102 16.6233L8.7602 15.1233C8.69211 14.7147 8.96812 14.3283 9.3767 14.2602Z" fill="#2D2E2E"/>
<path d="M12.75 12.5C12.75 12.0858 12.4142 11.75 12 11.75C11.5858 11.75 11.25 12.0858 11.25 12.5V14.6118C11.25 15.026 11.5858 15.3618 12 15.3618C12.4142 15.3618 12.75 15.026 12.75 14.6118V12.5Z" fill="#2D2E2E"/>
</svg>
