<svg width="24" height="24" viewBox="0 0 24 24" fill="none" xmlns="http://www.w3.org/2000/svg">
<path fill-rule="evenodd" clip-rule="evenodd" d="M7.86769 9.34632C7.50667 9.14325 7.04939 9.27129 6.84632 9.63231C6.64325 9.99333 6.77129 10.4506 7.13231 10.6537L9.52577 12L7.1323 13.3463C6.77129 13.5494 6.64325 14.0067 6.84632 14.3677C7.04939 14.7287 7.50668 14.8568 7.8677 14.6537L9.75004 13.5949L9.75007 17.5C9.75007 17.7702 9.89541 18.0195 10.1305 18.1527C10.3657 18.2858 10.6542 18.2821 10.8859 18.1431L15.8859 15.1431C16.1151 15.0056 16.2537 14.7567 16.25 14.4895C16.2463 14.2223 16.1006 13.9773 15.8678 13.8463L12.5854 12L15.8677 10.1537C16.1006 10.0227 16.2462 9.77768 16.2499 9.51051C16.2537 9.24334 16.115 8.99435 15.8859 8.85688L10.8859 5.85688C10.6542 5.71786 10.3656 5.71422 10.1305 5.84735C9.89534 5.98048 9.75 6.2298 9.75 6.5L9.75002 10.4051L7.86769 9.34632ZM14.0075 14.5209L11.25 12.9699L11.2501 16.1754L14.0075 14.5209ZM11.25 7.82465L11.25 11.0301L14.0074 9.47908L11.25 7.82465Z" fill="#2D2E2E"/>
<path fill-rule="evenodd" clip-rule="evenodd" d="M2 12C2 6.47715 6.47715 2 12 2C17.5228 2 22 6.47715 22 12C22 17.5228 17.5228 22 12 22C6.47715 22 2 17.5228 2 12ZM12 20.5C7.30558 20.5 3.5 16.6944 3.5 12C3.5 7.30558 7.30558 3.5 12 3.5C16.6944 3.5 20.5 7.30558 20.5 12C20.5 16.6944 16.6944 20.5 12 20.5Z" fill="#2D2E2E"/>
</svg>
