<svg width="24" height="24" viewBox="0 0 24 24" fill="none" xmlns="http://www.w3.org/2000/svg">
<path d="M12.2724 9.3181C12.3729 8.91625 12.7801 8.67193 13.1819 8.77239L13.6816 8.89733C14.828 9.18392 15.8264 9.8875 16.4818 10.8707L16.624 11.084C16.8538 11.4286 16.7607 11.8943 16.416 12.124C16.0714 12.3538 15.6057 12.2607 15.376 11.916L15.2338 11.7027C14.7853 11.03 14.1022 10.5486 13.3178 10.3525L12.8181 10.2276C12.4163 10.1271 12.1719 9.71994 12.2724 9.3181Z" fill="#2D2E2E"/>
<path fill-rule="evenodd" clip-rule="evenodd" d="M12 2.75C10.7574 2.75 9.75 3.75736 9.75 5C9.75 5.35331 9.83144 5.68761 9.97656 5.98513C6.11966 6.89823 3.25 10.364 3.25 14.5V15.7508C2.4171 15.7772 1.75 16.4607 1.75 17.3C1.75 19.4815 3.51847 21.25 5.7 21.25H18.3C20.4815 21.25 22.25 19.4815 22.25 17.3C22.25 16.4607 21.5829 15.7772 20.75 15.7508V14.5C20.75 10.364 17.8803 6.89823 14.0234 5.98513C14.1686 5.68761 14.25 5.35331 14.25 5C14.25 3.75736 13.2426 2.75 12 2.75ZM12 5.75C12.4142 5.75 12.75 5.41421 12.75 5C12.75 4.58579 12.4142 4.25 12 4.25C11.5858 4.25 11.25 4.58579 11.25 5C11.25 5.41421 11.5858 5.75 12 5.75ZM12 7.25C7.99594 7.25 4.75 10.4959 4.75 14.5V15.75H19.25V14.5C19.25 10.4959 16.0041 7.25 12 7.25ZM3.25 17.3C3.25 17.2724 3.27239 17.25 3.3 17.25H20.7C20.7276 17.25 20.75 17.2724 20.75 17.3C20.75 18.6531 19.6531 19.75 18.3 19.75H5.7C4.3469 19.75 3.25 18.6531 3.25 17.3Z" fill="#2D2E2E"/>
</svg>
