<svg width="24" height="24" viewBox="0 0 24 24" fill="none" xmlns="http://www.w3.org/2000/svg">
<path d="M3.75 6.5C3.75 6.08579 4.08579 5.75 4.5 5.75H19.5C19.9142 5.75 20.25 6.08579 20.25 6.5C20.25 6.91421 19.9142 7.25 19.5 7.25H4.5C4.08579 7.25 3.75 6.91421 3.75 6.5Z" fill="#2D2E2E"/>
<path d="M3.75 12C3.75 11.5858 4.08579 11.25 4.5 11.25H19.5C19.9142 11.25 20.25 11.5858 20.25 12C20.25 12.4142 19.9142 12.75 19.5 12.75H4.5C4.08579 12.75 3.75 12.4142 3.75 12Z" fill="#2D2E2E"/>
<path d="M4.5 16.75C4.08579 16.75 3.75 17.0858 3.75 17.5C3.75 17.9142 4.08579 18.25 4.5 18.25H19.5C19.9142 18.25 20.25 17.9142 20.25 17.5C20.25 17.0858 19.9142 16.75 19.5 16.75H4.5Z" fill="#2D2E2E"/>
</svg>
