<svg width="24" height="24" viewBox="0 0 24 24" fill="none" xmlns="http://www.w3.org/2000/svg">
<path d="M5.75 6.5C5.75 6.08579 6.08579 5.75 6.5 5.75H9.5C9.91421 5.75 10.25 6.08579 10.25 6.5C10.25 6.91421 9.91421 7.25 9.5 7.25H6.5C6.08579 7.25 5.75 6.91421 5.75 6.5Z" fill="#2D2E2E"/>
<path d="M6.5 8.75C6.08579 8.75 5.75 9.08579 5.75 9.5C5.75 9.91421 6.08579 10.25 6.5 10.25H9.5C9.91421 10.25 10.25 9.91421 10.25 9.5C10.25 9.08579 9.91421 8.75 9.5 8.75H6.5Z" fill="#2D2E2E"/>
<path d="M6.5 11.75C6.08579 11.75 5.75 12.0858 5.75 12.5C5.75 12.9142 6.08579 13.25 6.5 13.25H9.5C9.91421 13.25 10.25 12.9142 10.25 12.5C10.25 12.0858 9.91421 11.75 9.5 11.75H6.5Z" fill="#2D2E2E"/>
<path fill-rule="evenodd" clip-rule="evenodd" d="M17.25 11.75V5.2543C17.25 4.47296 16.732 3.78628 15.9808 3.57163L9.60504 1.75H5.5C4.5335 1.75 3.75 2.5335 3.75 3.5V20.7501L3 20.75C2.58579 20.75 2.25 21.0858 2.25 21.5C2.25 21.9143 2.58578 22.25 3 22.25L17.5 22.2501C17.5043 22.2501 17.5085 22.2501 17.5128 22.25H17.75C19.0482 22.25 20.3114 21.8289 21.35 21.05C21.9166 20.6251 22.25 19.9582 22.25 19.25V14.5C22.25 13.9492 21.9907 13.4305 21.55 13.1L21.35 12.95C20.3114 12.1711 19.0482 11.75 17.75 11.75H17.25ZM5.5 3.25C5.36193 3.25 5.25 3.36193 5.25 3.5V20.7501L13.323 20.7501C12.9574 20.3414 12.75 19.8085 12.75 19.25V14.5C12.75 13.9492 13.0093 13.4305 13.45 13.1L13.65 12.95C14.2812 12.4766 14.9954 12.1354 15.75 11.9405V5.2543C15.75 5.14268 15.676 5.04458 15.5687 5.01392L9.39496 3.25H5.5ZM14.55 14.15C15.3289 13.5658 16.2763 13.25 17.25 13.25H17.75C18.7237 13.25 19.6711 13.5658 20.45 14.15L20.4768 14.1701C19.6536 14.5518 18.7564 14.75 17.8475 14.75H17.1525C16.2436 14.75 15.3464 14.5518 14.5232 14.1701L14.55 14.15ZM17.8475 16.25C18.8442 16.25 19.8295 16.0578 20.75 15.686V17.0365L20.6426 17.0902C19.7748 17.5241 18.8178 17.75 17.8475 17.75H17.1525C16.1822 17.75 15.2252 17.5241 14.3574 17.0902L14.25 17.0365V15.686C15.1705 16.0578 16.1558 16.25 17.1525 16.25H17.8475ZM17.8475 19.25C18.8442 19.25 19.8295 19.0578 20.75 18.686V19.25C20.75 19.4861 20.6389 19.7083 20.45 19.85C19.6711 20.4342 18.7237 20.75 17.75 20.75H17.25C16.2763 20.75 15.3289 20.4342 14.55 19.85C14.3611 19.7083 14.25 19.4861 14.25 19.25V18.686C15.1705 19.0578 16.1558 19.25 17.1525 19.25H17.8475Z" fill="#2D2E2E"/>
</svg>
