<svg width="24" height="24" viewBox="0 0 24 24" fill="none" xmlns="http://www.w3.org/2000/svg">
<path d="M8.25 5C8.25 4.58579 7.91421 4.25 7.5 4.25C7.08579 4.25 6.75 4.58579 6.75 5V6C6.75 6.41421 7.08579 6.75 7.5 6.75C7.91421 6.75 8.25 6.41421 8.25 6V5Z" fill="#2D2E2E"/>
<path fill-rule="evenodd" clip-rule="evenodd" d="M7 1.75C4.92893 1.75 3.25 3.42893 3.25 5.5C3.25 7.57107 4.92893 9.25 7 9.25H10.125C11.0225 9.25 11.75 8.52246 11.75 7.625C11.75 7.55596 11.806 7.5 11.875 7.5H17.6379C18.0473 7.5 18.4438 7.35647 18.7583 7.09439L19.9801 6.07617C20.1511 5.93367 20.25 5.72259 20.25 5.5C20.25 5.27742 20.1511 5.06634 19.9801 4.92384L18.7583 3.90563C18.4438 3.64353 18.0474 3.5 17.638 3.5H11.875C11.806 3.5 11.75 3.44404 11.75 3.375C11.75 2.47754 11.0225 1.75 10.125 1.75H7ZM4.75 5.5C4.75 4.25736 5.75736 3.25 7 3.25L10.125 3.25C10.194 3.25 10.25 3.30597 10.25 3.375C10.25 4.27246 10.9775 5 11.875 5L17.638 5C17.6965 5 17.7531 5.0205 17.798 5.05795L18.3285 5.49999L17.798 5.94206C17.7531 5.9795 17.6964 6 17.638 6H11.875C10.9775 6 10.25 6.72754 10.25 7.625C10.25 7.69404 10.194 7.75 10.125 7.75H7C5.75736 7.75 4.75 6.74264 4.75 5.5Z" fill="#2D2E2E"/>
<path fill-rule="evenodd" clip-rule="evenodd" d="M10.5575 10.2522C10.5135 10.2488 10.4693 10.2493 10.4254 10.2537L7.61911 10.5343C5.99741 10.6965 4.57208 11.6788 3.84322 13.1365L3.53647 13.75H3.5C2.5335 13.75 1.75 14.5335 1.75 15.5V18.5C1.75 19.4665 2.5335 20.25 3.5 20.25H4.27202C4.74603 21.2828 5.78925 22 7 22C8.21075 22 9.25398 21.2828 9.72798 20.25H13.272C13.746 21.2828 14.7892 22 16 22C17.2107 22 18.254 21.2828 18.728 20.25H20.5C21.4665 20.25 22.25 19.4665 22.25 18.5C22.25 15.937 20.22 13.8481 17.6801 13.7534C17.3505 12.015 15.8909 10.6625 14.0664 10.5221L10.5575 10.2522ZM16.1349 13.75C15.8365 12.8048 14.9884 12.0975 13.9514 12.0177L11.1431 11.8017L10.8648 13.75H16.1349ZM9.34957 13.75L9.62218 11.8415L7.76836 12.0269C6.68017 12.1357 5.72121 12.7842 5.21424 13.75H9.34957ZM3.5 15.25C3.36193 15.25 3.25 15.3619 3.25 15.5V18.5C3.25 18.6381 3.36193 18.75 3.5 18.75H4.01027C4.13731 17.2101 5.42734 16 7 16C8.57267 16 9.86269 17.2101 9.98973 18.75H13.0103C13.1373 17.2101 14.4273 16 16 16C17.5727 16 18.8627 17.2101 18.9897 18.75H20.5C20.6381 18.75 20.75 18.6381 20.75 18.5C20.75 16.7051 19.2949 15.25 17.5 15.25H3.5ZM17.5 19C17.5 19.8284 16.8284 20.5 16 20.5C15.1716 20.5 14.5 19.8284 14.5 19C14.5 18.1716 15.1716 17.5 16 17.5C16.8284 17.5 17.5 18.1716 17.5 19ZM7 20.5C7.82843 20.5 8.5 19.8284 8.5 19C8.5 18.1716 7.82843 17.5 7 17.5C6.17157 17.5 5.5 18.1716 5.5 19C5.5 19.8284 6.17157 20.5 7 20.5Z" fill="#2D2E2E"/>
</svg>
