<svg width="24" height="24" viewBox="0 0 24 24" fill="none" xmlns="http://www.w3.org/2000/svg">
<path d="M16 3.25C15.5858 3.25 15.25 3.58579 15.25 4V4.5C15.25 5.22935 15.5397 5.92882 16.0555 6.44454C16.5712 6.96027 17.2707 7.25 18 7.25C18.5967 7.25 19.169 7.48705 19.591 7.90901C20.0129 8.33097 20.25 8.90326 20.25 9.5V10C20.25 10.4142 20.5858 10.75 21 10.75C21.4142 10.75 21.75 10.4142 21.75 10V9.5C21.75 8.50544 21.3549 7.55161 20.6517 6.84835C19.9484 6.14509 18.9946 5.75 18 5.75C17.6685 5.75 17.3505 5.6183 17.1161 5.38388C16.8817 5.14946 16.75 4.83152 16.75 4.5V4C16.75 3.58579 16.4142 3.25 16 3.25Z" fill="#2D2E2E"/>
<path d="M12 3.75C11.5858 3.75 11.25 4.08579 11.25 4.5V5.143C11.25 6.09964 11.63 7.01709 12.3065 7.69353C12.9829 8.36998 13.9004 8.75 14.857 8.75C15.3854 8.75 15.7184 8.92921 15.9213 9.14223C16.1335 9.3651 16.25 9.67434 16.25 10C16.25 10.4142 16.5858 10.75 17 10.75C17.4142 10.75 17.75 10.4142 17.75 10C17.75 9.32566 17.5095 8.6349 17.0075 8.10777C16.4961 7.57079 15.7576 7.25 14.857 7.25C14.2982 7.25 13.7623 7.02801 13.3671 6.63287C12.972 6.23774 12.75 5.70181 12.75 5.143V4.5C12.75 4.08579 12.4142 3.75 12 3.75Z" fill="#2D2E2E"/>
<path d="M1.75 13.5C1.75 12.5335 2.5335 11.75 3.5 11.75H16.5C16.9142 11.75 17.25 12.0858 17.25 12.5C17.25 12.9142 16.9142 13.25 16.5 13.25H3.5C3.36193 13.25 3.25 13.3619 3.25 13.5V15.5C3.25 15.6381 3.36193 15.75 3.5 15.75H16.5C16.9142 15.75 17.25 16.0858 17.25 16.5C17.25 16.9142 16.9142 17.25 16.5 17.25H3.5C2.5335 17.25 1.75 16.4665 1.75 15.5V13.5Z" fill="#2D2E2E"/>
<path fill-rule="evenodd" clip-rule="evenodd" d="M18.6 11.75C18.1306 11.75 17.75 12.1306 17.75 12.6V16.4C17.75 16.8694 18.1306 17.25 18.6 17.25H20.5C21.4665 17.25 22.25 16.4665 22.25 15.5V13.5C22.25 12.5335 21.4665 11.75 20.5 11.75H18.6ZM19.25 15.75V13.25H20.5C20.6381 13.25 20.75 13.3619 20.75 13.5V15.5C20.75 15.6381 20.6381 15.75 20.5 15.75H19.25Z" fill="#2D2E2E"/>
</svg>
