<svg width="24" height="24" viewBox="0 0 24 24" fill="none" xmlns="http://www.w3.org/2000/svg">
<path d="M12.75 7.99988C12.75 7.58566 12.4142 7.24988 12 7.24988C11.5858 7.24988 11.25 7.58566 11.25 7.99988V12.5001C11.25 12.7587 11.3832 12.9991 11.6025 13.1361L15.6025 15.6359C15.9538 15.8554 16.4165 15.7486 16.636 15.3973C16.8555 15.0461 16.7487 14.5834 16.3975 14.3639L12.75 12.0844V7.99988Z" fill="#2D2E2E"/>
<path fill-rule="evenodd" clip-rule="evenodd" d="M3 11.3953C3 4.48187 4.48175 3.00012 11.3952 3.00012H12.6048C19.5182 3.00012 21 4.48187 21 11.3953V12.6049C21 19.5184 19.5182 21.0001 12.6048 21.0001H11.3952C4.48175 21.0001 3 19.5184 3 12.6049V11.3953ZM4.5 11.3953C4.5 9.7012 4.59273 8.4422 4.80382 7.49238C5.01112 6.5596 5.3121 6.01945 5.66572 5.66584C6.01933 5.31223 6.55948 5.01125 7.49226 4.80394C8.44208 4.59285 9.70107 4.50012 11.3952 4.50012H12.6048C14.2989 4.50012 15.5579 4.59285 16.5077 4.80394C17.4405 5.01125 17.9807 5.31223 18.3343 5.66584C18.6879 6.01945 18.9889 6.5596 19.1962 7.49238C19.4073 8.4422 19.5 9.7012 19.5 11.3953V12.6049C19.5 14.299 19.4073 15.558 19.1962 16.5079C18.9889 17.4406 18.6879 17.9808 18.3343 18.3344C17.9807 18.688 17.4405 18.989 16.5077 19.1963C15.5579 19.4074 14.2989 19.5001 12.6048 19.5001H11.3952C9.70107 19.5001 8.44208 19.4074 7.49226 19.1963C6.55948 18.989 6.01933 18.688 5.66572 18.3344C5.3121 17.9808 5.01112 17.4406 4.80382 16.5079C4.59273 15.558 4.5 14.299 4.5 12.6049V11.3953Z" fill="#2D2E2E"/>
</svg>
