<svg width="24" height="24" viewBox="0 0 24 24" fill="none" xmlns="http://www.w3.org/2000/svg">
<path fill-rule="evenodd" clip-rule="evenodd" d="M3 6C3 4.89543 3.89543 4 5 4H19C20.1046 4 21 4.89543 21 6V9C21 10.1046 20.1046 11 19 11H5C3.89543 11 3 10.1046 3 9V6ZM5 5.5H19C19.2761 5.5 19.5 5.72386 19.5 6V9C19.5 9.27614 19.2761 9.5 19 9.5H5C4.72386 9.5 4.5 9.27614 4.5 9V6C4.5 5.72386 4.72386 5.5 5 5.5Z" fill="#2D2E2E"/>
<path fill-rule="evenodd" clip-rule="evenodd" d="M3 15C3 13.8954 3.89543 13 5 13H19C20.1046 13 21 13.8954 21 15V18C21 19.1046 20.1046 20 19 20H5C3.89543 20 3 19.1046 3 18V15ZM5 14.5H19C19.2761 14.5 19.5 14.7239 19.5 15V18C19.5 18.2761 19.2761 18.5 19 18.5H5C4.72386 18.5 4.5 18.2761 4.5 18V15C4.5 14.7239 4.72386 14.5 5 14.5Z" fill="#2D2E2E"/>
</svg>
