<svg width="24" height="24" viewBox="0 0 24 24" fill="none" xmlns="http://www.w3.org/2000/svg">
<path d="M4.5 3.25C3.80964 3.25 3.25 3.80964 3.25 4.5V7.5C3.25 7.91421 2.91421 8.25 2.5 8.25C2.08579 8.25 1.75 7.91421 1.75 7.5V4.5C1.75 2.98122 2.98122 1.75 4.5 1.75H7.5C7.91421 1.75 8.25 2.08579 8.25 2.5C8.25 2.91421 7.91421 3.25 7.5 3.25H4.5Z" fill="#2D2E2E"/>
<path d="M3.25 19.5C3.25 20.1904 3.80964 20.75 4.5 20.75H7.5C7.91421 20.75 8.25 21.0858 8.25 21.5C8.25 21.9142 7.91421 22.25 7.5 22.25H4.5C2.98122 22.25 1.75 21.0188 1.75 19.5V16.5C1.75 16.0858 2.08579 15.75 2.5 15.75C2.91421 15.75 3.25 16.0858 3.25 16.5V19.5Z" fill="#2D2E2E"/>
<path d="M20.75 19.5C20.75 20.1904 20.1904 20.75 19.5 20.75H16.5C16.0858 20.75 15.75 21.0858 15.75 21.5C15.75 21.9142 16.0858 22.25 16.5 22.25H19.5C21.0188 22.25 22.25 21.0188 22.25 19.5V16.5C22.25 16.0858 21.9142 15.75 21.5 15.75C21.0858 15.75 20.75 16.0858 20.75 16.5V19.5Z" fill="#2D2E2E"/>
<path d="M20.75 4.5C20.75 3.80964 20.1904 3.25 19.5 3.25H16.5C16.0858 3.25 15.75 2.91421 15.75 2.5C15.75 2.08579 16.0858 1.75 16.5 1.75H19.5C21.0188 1.75 22.25 2.98122 22.25 4.5V7.5C22.25 7.91421 21.9142 8.25 21.5 8.25C21.0858 8.25 20.75 7.91421 20.75 7.5V4.5Z" fill="#2D2E2E"/>
<path d="M8 8.25C8.41421 8.25 8.75 8.58579 8.75 9V10.5C8.75 10.9142 8.41421 11.25 8 11.25C7.58579 11.25 7.25 10.9142 7.25 10.5V9C7.25 8.58579 7.58579 8.25 8 8.25Z" fill="#2D2E2E"/>
<path d="M16.75 9C16.75 8.58579 16.4142 8.25 16 8.25C15.5858 8.25 15.25 8.58579 15.25 9V10.5C15.25 10.9142 15.5858 11.25 16 11.25C16.4142 11.25 16.75 10.9142 16.75 10.5V9Z" fill="#2D2E2E"/>
<path d="M12 8.25C12.4142 8.25 12.75 8.58579 12.75 9V11.9682C12.75 12.7687 12.2069 13.4671 11.431 13.6643L11.1847 13.7269C10.7833 13.8289 10.3751 13.5862 10.2731 13.1847C10.1711 12.7833 10.4138 12.3751 10.8153 12.2731L11.0616 12.2105C11.1724 12.1823 11.25 12.0826 11.25 11.9682V9C11.25 8.58579 11.5858 8.25 12 8.25Z" fill="#2D2E2E"/>
<path d="M9.53033 14.9697C9.23744 14.6768 8.76256 14.6768 8.46967 14.9697C8.17678 15.2626 8.17678 15.7374 8.46967 16.0303L8.70348 16.2641C9.30095 16.8616 10.0496 17.2855 10.8693 17.4904C11.6117 17.676 12.3883 17.676 13.1307 17.4904C13.9504 17.2855 14.699 16.8616 15.2965 16.2641L15.5303 16.0303C15.8232 15.7374 15.8232 15.2626 15.5303 14.9697C15.2374 14.6768 14.7626 14.6768 14.4697 14.9697L14.2359 15.2035C13.8306 15.6087 13.3229 15.8962 12.7669 16.0352C12.2634 16.1611 11.7366 16.1611 11.2331 16.0352C10.6771 15.8962 10.1694 15.6087 9.76414 15.2035L9.53033 14.9697Z" fill="#2D2E2E"/>
</svg>
