<svg width="24" height="24" viewBox="0 0 24 24" fill="none" xmlns="http://www.w3.org/2000/svg">
<path fill-rule="evenodd" clip-rule="evenodd" d="M4 7.17157C4 7.70201 4.21071 8.21071 4.58579 8.58579L8.70711 12.7071C8.89464 12.8946 9 13.149 9 13.4142V20.382C9 21.1253 9.78231 21.6088 10.4472 21.2764L14.4472 19.2764C14.786 19.107 15 18.7607 15 18.382V13.4142C15 13.149 15.1054 12.8946 15.2929 12.7071L19.4142 8.58579C19.7893 8.21071 20 7.70201 20 7.17157V6C20 4.89543 19.1046 4 18 4H6C4.89543 4 4 4.89543 4 6V7.17157ZM5.5 6V7.17157C5.5 7.30418 5.55268 7.43136 5.64645 7.52513L9.76777 11.6464C10.2366 12.1153 10.5 12.7512 10.5 13.4142V19.5729L13.5 18.0729V13.4142C13.5 12.7512 13.7634 12.1153 14.2322 11.6464L18.3536 7.52513C18.4473 7.43136 18.5 7.30418 18.5 7.17157V6C18.5 5.72386 18.2761 5.5 18 5.5H6C5.72386 5.5 5.5 5.72386 5.5 6Z" fill="#2D2E2E"/>
</svg>
