<svg width="24" height="24" viewBox="0 0 24 24" fill="none" xmlns="http://www.w3.org/2000/svg">
<path fill-rule="evenodd" clip-rule="evenodd" d="M10.6839 10.9849C10.1305 11.4592 9.27188 11.2011 9.07164 10.5003L7.82058 6.12197C7.78548 5.99913 7.75844 5.8748 7.73938 5.74976H7C6.30976 5.74976 5.75024 6.30938 5.75037 6.99962C5.75044 7.41383 5.41472 7.74968 5.0005 7.74976C4.58629 7.74983 4.25044 7.41411 4.25037 6.99989C4.25009 5.48112 5.48122 4.24976 7 4.24976H7.89414C7.93127 4.15016 7.97383 4.05219 8.02177 3.95629L8.72362 2.55236C8.893 2.21354 9.23928 1.99951 9.61808 1.99951H16.3819C16.7607 1.99951 17.107 2.21354 17.2764 2.55236L17.9782 3.95629C18.0262 4.05219 18.0687 4.15016 18.1059 4.24976H19C20.5188 4.24976 21.75 5.48097 21.75 6.99976V17.9998C21.75 20.0708 20.0711 21.7498 18 21.7498H7C5.48122 21.7498 4.25012 20.5183 4.25049 18.9996C4.25059 18.5854 4.58646 18.2497 5.00067 18.2498C5.41489 18.2499 5.75059 18.5857 5.75049 18.9999C5.75032 19.6901 6.30979 20.2498 7 20.2498H18C19.2426 20.2498 20.25 19.2424 20.25 17.9998V6.99976C20.25 6.3094 19.6904 5.74976 19 5.74976H18.2606C18.2416 5.87481 18.2145 5.99913 18.1794 6.12197L16.9284 10.5003C16.7281 11.2011 15.8695 11.4592 15.3161 10.9849L13.6507 9.55768C13.2763 9.23676 12.7237 9.23676 12.3493 9.55768L10.6839 10.9849ZM11.3732 8.41871L10.2997 9.33866L9.26286 5.70986C9.15976 5.34904 9.19566 4.96268 9.36346 4.62702L9.84896 3.65585L9.93372 4.1644C10.1643 5.54757 10.6384 6.87887 11.3341 8.09637C11.3809 8.17824 11.4322 8.25491 11.4875 8.32638C11.4487 8.35588 11.4106 8.38666 11.3732 8.41871ZM14.6268 8.41872C14.5894 8.38666 14.5513 8.35588 14.5125 8.32638C14.5678 8.25491 14.6191 8.17824 14.6659 8.09637C15.3616 6.87887 15.8357 5.54757 16.0663 4.1644L16.151 3.65585L16.6365 4.62702C16.8043 4.96268 16.8402 5.34904 16.7371 5.70986L15.7003 9.33866L14.6268 8.41872ZM11.3436 3.49951H14.6564L14.5867 3.9178C14.3853 5.12593 13.9712 6.28874 13.3635 7.35216C13.2028 7.63344 12.7972 7.63344 12.6365 7.35216C12.0288 6.28874 11.6147 5.12593 11.4133 3.9178L11.3436 3.49951Z" fill="#2D2E2E"/>
<path d="M13.25 18.25C13.6642 18.25 14 17.9142 14 17.5C14 17.0858 13.6642 16.75 13.25 16.75H12.75C12.3358 16.75 12 17.0858 12 17.5C12 17.9142 12.3358 18.25 12.75 18.25H13.25Z" fill="#2D2E2E"/>
<path d="M14 13.5C14 13.9142 13.6642 14.25 13.25 14.25H12.75C12.3358 14.25 12 13.9142 12 13.5C12 13.0858 12.3358 12.75 12.75 12.75H13.25C13.6642 12.75 14 13.0858 14 13.5Z" fill="#2D2E2E"/>
<path fill-rule="evenodd" clip-rule="evenodd" d="M5.73454 9.8485C5.66266 9.50002 5.35582 9.25 5 9.25C4.64418 9.25 4.33734 9.50002 4.26546 9.8485L4.03854 10.9487C3.93054 11.4723 3.63962 11.9404 3.21788 12.269L3.03901 12.4084C2.85664 12.5505 2.75 12.7688 2.75 13C2.75 13.2312 2.85664 13.4495 3.03901 13.5916L3.21788 13.731C3.63961 14.0596 3.93054 14.5277 4.03854 15.0513L4.26546 16.1515C4.33734 16.5 4.64418 16.75 5 16.75C5.35582 16.75 5.66266 16.5 5.73454 16.1515L5.96146 15.0513C6.06946 14.5277 6.36039 14.0596 6.78212 13.731L6.96099 13.5916C7.14336 13.4495 7.25 13.2312 7.25 13C7.25 12.7688 7.14336 12.5505 6.96099 12.4084L6.78211 12.269C6.36038 11.9404 6.06946 11.4723 5.96146 10.9487L5.73454 9.8485ZM4.62484 13C4.7636 12.8455 4.88904 12.68 5 12.5054C5.11096 12.68 5.2364 12.8455 5.37516 13C5.2364 13.1545 5.11096 13.32 5 13.4946C4.88904 13.32 4.7636 13.1545 4.62484 13Z" fill="#2D2E2E"/>
</svg>
