<svg width="24" height="24" viewBox="0 0 24 24" fill="none" xmlns="http://www.w3.org/2000/svg">
<path fill-rule="evenodd" clip-rule="evenodd" d="M21.4435 5.60485C21.7775 5.3599 21.8498 4.89055 21.6048 4.55653C21.3599 4.2225 20.8905 4.1503 20.5565 4.39525L13.0565 9.89525C13.0135 9.92673 12.9749 9.96192 12.9408 10.0001H12.0607L16.5303 5.53038C16.8232 5.23749 16.8232 4.76261 16.5303 4.46972C16.2374 4.17683 15.7626 4.17683 15.4697 4.46972L9.96967 9.96972C9.95976 9.97963 9.95019 9.98974 9.94096 10.0001H2.90909C2.40701 10.0001 2 10.4071 2 10.9091C2 15.9299 6.07014 20.0001 11.0909 20.0001H12.9091C17.9299 20.0001 22 15.9299 22 10.9091C22 10.4071 21.593 10.0001 21.0909 10.0001H15.4501L21.4435 5.60485ZM12.9091 18.5001H11.0909C7.09741 18.5001 3.82418 15.4162 3.52266 11.5001H20.4773C20.1758 15.4162 16.9026 18.5001 12.9091 18.5001Z" fill="#2D2E2E"/>
</svg>
