<svg width="24" height="24" viewBox="0 0 24 24" fill="none" xmlns="http://www.w3.org/2000/svg">
<path d="M5 1.75C5.41421 1.75 5.75 2.08579 5.75 2.5V8.16667C5.75 8.86987 5.97808 9.5541 6.4 10.1167L6.9 10.7833C7.12719 11.0863 7.25 11.4547 7.25 11.8333V20C7.25 20.4142 7.58579 20.75 8 20.75C8.41421 20.75 8.75 20.4142 8.75 20V11.8333C8.75 11.4547 8.87281 11.0863 9.1 10.7833L9.60002 10.1166C10.0219 9.55409 10.25 8.86987 10.25 8.16669L10.2501 2.49999C10.2501 2.08578 10.5859 1.74999 11.0001 1.75C11.4143 1.75001 11.7501 2.0858 11.7501 2.50001L11.75 8.16671C11.75 9.19444 11.4167 10.1945 10.8 11.0166L10.3 11.6833C10.2675 11.7266 10.25 11.7792 10.25 11.8333V20C10.25 21.2426 9.24264 22.25 8 22.25C6.75736 22.25 5.75 21.2426 5.75 20V11.8333C5.75 11.7792 5.73246 11.7266 5.7 11.6833L5.2 11.0167C4.58334 10.1945 4.25 9.19443 4.25 8.16667V2.5C4.25 2.08579 4.58579 1.75 5 1.75Z" fill="#2D2E2E"/>
<path fill-rule="evenodd" clip-rule="evenodd" d="M17.9483 1.95641C18.5211 1.61267 19.25 2.02534 19.25 2.69344V20C19.25 21.2426 18.2426 22.25 17 22.25C15.7574 22.25 14.75 21.2426 14.75 20V14.25H12.75V11.1375C12.75 7.37657 14.7233 3.89139 17.9483 1.95641ZM17.75 3.91248C15.5564 5.64471 14.25 8.29983 14.25 11.1375V12.75H16.25V20C16.25 20.4142 16.5858 20.75 17 20.75C17.4142 20.75 17.75 20.4142 17.75 20V3.91248Z" fill="#2D2E2E"/>
<path d="M8.75 2.5C8.75 2.08579 8.41421 1.75 8 1.75C7.58579 1.75 7.25 2.08579 7.25 2.5V8.5C7.25 8.91421 7.58579 9.25 8 9.25C8.41421 9.25 8.75 8.91421 8.75 8.5V2.5Z" fill="#2D2E2E"/>
</svg>
