<svg width="24" height="24" viewBox="0 0 24 24" fill="none" xmlns="http://www.w3.org/2000/svg">
<path fill-rule="evenodd" clip-rule="evenodd" d="M4.75012 4.10678C4.75012 2.56894 6.31318 1.5249 7.73378 2.11386L10.5027 3.26183C10.8907 2.88763 11.4186 2.65747 12.0002 2.65747C12.5818 2.65747 13.1096 2.8876 13.4976 3.26176L16.2664 2.11397C17.687 1.52508 19.25 2.56912 19.25 4.10692V5.74996H20.5C21.4665 5.74996 22.25 6.53346 22.25 7.49996V9.49996C22.25 10.4665 21.4665 11.25 20.5 11.25H20.2499V19.5C20.2499 21.0187 19.0187 22.25 17.4999 22.25H6.49989C4.9811 22.25 3.74988 21.0187 3.74989 19.4999L3.74995 11.25H3.5C2.5335 11.25 1.75 10.4665 1.75 9.49996V7.49996C1.75 6.53346 2.5335 5.74996 3.5 5.74996H4.75012V4.10678ZM14.25 20.75H17.4999C18.1902 20.75 18.7499 20.1903 18.7499 19.5V11.25H14.25V20.75ZM12.75 11.25V20.75H11.25V11.25H12.75ZM9.75 20.75V11.25H5.24995L5.24989 19.4999C5.24989 20.1903 5.80953 20.75 6.49989 20.75H9.75ZM17.75 5.74996V4.10692C17.75 3.63832 17.2737 3.32018 16.8408 3.49963L14.1485 4.6157C14.1545 4.68129 14.1576 4.74773 14.1576 4.81488C14.1576 5.14989 14.0812 5.46707 13.945 5.74996H17.75ZM3.5 7.24996C3.36193 7.24996 3.25 7.36188 3.25 7.49996V9.49996C3.25 9.63803 3.36193 9.74996 3.5 9.74996H20.5C20.6381 9.74996 20.75 9.63803 20.75 9.49996V7.49996C20.75 7.36188 20.6381 7.24996 20.5 7.24996H3.5ZM7.1593 3.4995L9.85184 4.61579C9.84584 4.68135 9.84277 4.74776 9.84277 4.81488C9.84277 5.14989 9.91913 5.46707 10.0554 5.74996H6.25012V4.10678C6.25012 3.63817 6.72642 3.32003 7.1593 3.4995ZM11.3428 4.81488C11.3428 4.4518 11.6371 4.15747 12.0002 4.15747C12.3633 4.15747 12.6576 4.4518 12.6576 4.81488C12.6576 5.17795 12.3633 5.47229 12.0002 5.47229C11.6371 5.47229 11.3428 5.17795 11.3428 4.81488Z" fill="#2D2E2E"/>
</svg>
