<svg width="24" height="24" viewBox="0 0 24 24" fill="none" xmlns="http://www.w3.org/2000/svg">
<path fill-rule="evenodd" clip-rule="evenodd" d="M9.12011 8.47153C8.05197 7.93746 6.75473 8.2437 6.0382 9.19907L5.93131 9.34158C5.43524 10.003 5.35545 10.8879 5.7252 11.6274C5.83012 11.8373 5.96818 12.0288 6.13408 12.1947L6.25116 12.3118C6.81428 12.8749 7.56548 13.2067 8.35711 13.2461C7.89087 13.6908 7.4744 14.1863 7.11583 14.7242L6.87596 15.084C6.6462 15.4286 6.73933 15.8943 7.08397 16.124C7.42862 16.3538 7.89427 16.2607 8.12404 15.916L8.36391 15.5562C8.81983 14.8723 9.38873 14.271 10.0463 13.7778L10.5 13.4375L10.9537 13.7778C11.6113 14.271 12.1802 14.8723 12.6361 15.5562L12.876 15.916C13.1057 16.2607 13.5714 16.3538 13.916 16.124C14.2607 15.8943 14.3538 15.4286 14.124 15.084L13.8842 14.7242C13.5256 14.1863 13.1091 13.6908 12.6429 13.2461C13.4345 13.2067 14.1857 12.8749 14.7488 12.3118L14.8659 12.1947C15.0318 12.0288 15.1699 11.8373 15.2748 11.6274C15.6446 10.8879 15.5648 10.003 15.0687 9.34158L14.9618 9.19907C14.2453 8.2437 12.948 7.93746 11.8799 8.47153L11.828 8.49749C11.2253 8.79882 10.767 9.32723 10.5539 9.96645L10.5 10.1283L10.4461 9.96645C10.233 9.32723 9.7747 8.79882 9.17203 8.49749L9.12011 8.47153ZM11.977 10.4408L11.5406 11.75H12.4839C12.9356 11.75 13.3688 11.5706 13.6882 11.2512L13.8053 11.1341C13.8572 11.0822 13.9003 11.0223 13.9332 10.9566C14.0488 10.7253 14.0239 10.4485 13.8687 10.2416L13.7618 10.0991C13.4802 9.72364 12.9705 9.6033 12.5507 9.81317L12.4988 9.83913C12.2519 9.96255 12.0642 10.179 11.977 10.4408ZM8.51612 11.75H9.45943L9.02303 10.4408C8.93576 10.179 8.74805 9.96255 8.50121 9.83913L8.44929 9.81317C8.02954 9.6033 7.51977 9.72364 7.2382 10.0991L7.13131 10.2416C6.97614 10.4485 6.95118 10.7253 7.06684 10.9566C7.09966 11.0223 7.14285 11.0822 7.19474 11.1341L7.31182 11.2512C7.63122 11.5706 8.06442 11.75 8.51612 11.75Z" fill="#2D2E2E"/>
<path fill-rule="evenodd" clip-rule="evenodd" d="M2 7C2 5.89543 2.89543 5 4 5H20C21.1046 5 22 5.89543 22 7V17C22 18.1046 21.1046 19 20 19H4C2.89543 19 2 18.1046 2 17V7ZM4 6.5H9.75V7C9.75 7.41421 10.0858 7.75 10.5 7.75C10.9142 7.75 11.25 7.41421 11.25 7V6.5H20C20.2761 6.5 20.5 6.72386 20.5 7V10.75H17.5C17.0858 10.75 16.75 11.0858 16.75 11.5C16.75 11.9142 17.0858 12.25 17.5 12.25H20.5V17C20.5 17.2761 20.2761 17.5 20 17.5H11.25V17C11.25 16.5858 10.9142 16.25 10.5 16.25C10.0858 16.25 9.75 16.5858 9.75 17V17.5H4C3.72386 17.5 3.5 17.2761 3.5 17V12.25H4C4.41421 12.25 4.75 11.9142 4.75 11.5C4.75 11.0858 4.41421 10.75 4 10.75H3.5V7C3.5 6.72386 3.72386 6.5 4 6.5Z" fill="#2D2E2E"/>
</svg>
