<svg width="24" height="24" viewBox="0 0 24 24" fill="none" xmlns="http://www.w3.org/2000/svg">
<mask id="path-1-inside-1_31679_243504" fill="white">
<path d="M14 9C14 10.1046 13.1046 11 12 11C10.8954 11 10 10.1046 10 9C10 7.89543 10.8954 7 12 7C13.1046 7 14 7.89543 14 9Z"/>
<path d="M6 17C7.10457 17 8 16.1046 8 15C8 13.8954 7.10457 13 6 13C4.89543 13 4 13.8954 4 15C4 16.1046 4.89543 17 6 17Z"/>
<path d="M14 15C14 16.1046 13.1046 17 12 17C10.8954 17 10 16.1046 10 15C10 13.8954 10.8954 13 12 13C13.1046 13 14 13.8954 14 15Z"/>
<path d="M20 15C20 16.1046 19.1046 17 18 17C16.8954 17 16 16.1046 16 15C16 13.8954 16.8954 13 18 13C19.1046 13 20 13.8954 20 15Z"/>
<path d="M18 11C19.1046 11 20 10.1046 20 9C20 7.89543 19.1046 7 18 7C16.8954 7 16 7.89543 16 9C16 10.1046 16.8954 11 18 11Z"/>
<path d="M8 9C8 10.1046 7.10457 11 6 11C4.89543 11 4 10.1046 4 9C4 7.89543 4.89543 7 6 7C7.10457 7 8 7.89543 8 9Z"/>
</mask>
<path d="M14 9C14 10.1046 13.1046 11 12 11C10.8954 11 10 10.1046 10 9C10 7.89543 10.8954 7 12 7C13.1046 7 14 7.89543 14 9Z" fill="#2D2E2E"/>
<path d="M6 17C7.10457 17 8 16.1046 8 15C8 13.8954 7.10457 13 6 13C4.89543 13 4 13.8954 4 15C4 16.1046 4.89543 17 6 17Z" fill="#2D2E2E"/>
<path d="M14 15C14 16.1046 13.1046 17 12 17C10.8954 17 10 16.1046 10 15C10 13.8954 10.8954 13 12 13C13.1046 13 14 13.8954 14 15Z" fill="#2D2E2E"/>
<path d="M20 15C20 16.1046 19.1046 17 18 17C16.8954 17 16 16.1046 16 15C16 13.8954 16.8954 13 18 13C19.1046 13 20 13.8954 20 15Z" fill="#2D2E2E"/>
<path d="M18 11C19.1046 11 20 10.1046 20 9C20 7.89543 19.1046 7 18 7C16.8954 7 16 7.89543 16 9C16 10.1046 16.8954 11 18 11Z" fill="#2D2E2E"/>
<path d="M8 9C8 10.1046 7.10457 11 6 11C4.89543 11 4 10.1046 4 9C4 7.89543 4.89543 7 6 7C7.10457 7 8 7.89543 8 9Z" fill="#2D2E2E"/>
<path d="M12.5 9C12.5 9.27614 12.2761 9.5 12 9.5V12.5C13.933 12.5 15.5 10.933 15.5 9H12.5ZM12 9.5C11.7239 9.5 11.5 9.27614 11.5 9H8.5C8.5 10.933 10.067 12.5 12 12.5V9.5ZM11.5 9C11.5 8.72386 11.7239 8.5 12 8.5V5.5C10.067 5.5 8.5 7.067 8.5 9H11.5ZM12 8.5C12.2761 8.5 12.5 8.72386 12.5 9H15.5C15.5 7.067 13.933 5.5 12 5.5V8.5ZM6 18.5C7.933 18.5 9.5 16.933 9.5 15H6.5C6.5 15.2761 6.27614 15.5 6 15.5V18.5ZM9.5 15C9.5 13.067 7.933 11.5 6 11.5V14.5C6.27614 14.5 6.5 14.7239 6.5 15H9.5ZM6 11.5C4.067 11.5 2.5 13.067 2.5 15H5.5C5.5 14.7239 5.72386 14.5 6 14.5V11.5ZM2.5 15C2.5 16.933 4.067 18.5 6 18.5V15.5C5.72386 15.5 5.5 15.2761 5.5 15H2.5ZM12.5 15C12.5 15.2761 12.2761 15.5 12 15.5V18.5C13.933 18.5 15.5 16.933 15.5 15H12.5ZM12 15.5C11.7239 15.5 11.5 15.2761 11.5 15H8.5C8.5 16.933 10.067 18.5 12 18.5V15.5ZM11.5 15C11.5 14.7239 11.7239 14.5 12 14.5V11.5C10.067 11.5 8.5 13.067 8.5 15H11.5ZM12 14.5C12.2761 14.5 12.5 14.7239 12.5 15H15.5C15.5 13.067 13.933 11.5 12 11.5V14.5ZM18.5 15C18.5 15.2761 18.2761 15.5 18 15.5V18.5C19.933 18.5 21.5 16.933 21.5 15H18.5ZM18 15.5C17.7239 15.5 17.5 15.2761 17.5 15H14.5C14.5 16.933 16.067 18.5 18 18.5V15.5ZM17.5 15C17.5 14.7239 17.7239 14.5 18 14.5V11.5C16.067 11.5 14.5 13.067 14.5 15H17.5ZM18 14.5C18.2761 14.5 18.5 14.7239 18.5 15H21.5C21.5 13.067 19.933 11.5 18 11.5V14.5ZM18 12.5C19.933 12.5 21.5 10.933 21.5 9H18.5C18.5 9.27614 18.2761 9.5 18 9.5V12.5ZM21.5 9C21.5 7.067 19.933 5.5 18 5.5V8.5C18.2761 8.5 18.5 8.72386 18.5 9H21.5ZM18 5.5C16.067 5.5 14.5 7.067 14.5 9H17.5C17.5 8.72386 17.7239 8.5 18 8.5V5.5ZM14.5 9C14.5 10.933 16.067 12.5 18 12.5V9.5C17.7239 9.5 17.5 9.27614 17.5 9H14.5ZM6.5 9C6.5 9.27614 6.27614 9.5 6 9.5V12.5C7.933 12.5 9.5 10.933 9.5 9H6.5ZM6 9.5C5.72386 9.5 5.5 9.27614 5.5 9H2.5C2.5 10.933 4.067 12.5 6 12.5V9.5ZM5.5 9C5.5 8.72386 5.72386 8.5 6 8.5V5.5C4.067 5.5 2.5 7.067 2.5 9H5.5ZM6 8.5C6.27614 8.5 6.5 8.72386 6.5 9H9.5C9.5 7.067 7.933 5.5 6 5.5V8.5Z" fill="#2D2E2E" mask="url(#path-1-inside-1_31679_243504)"/>
</svg>
