<svg width="24" height="24" viewBox="0 0 24 24" fill="none" xmlns="http://www.w3.org/2000/svg">
<mask id="path-1-inside-1_31679_243487" fill="white">
<path d="M13 6C13 7.10457 13.8954 8 15 8C16.1046 8 17 7.10457 17 6C17 4.89543 16.1046 4 15 4C13.8954 4 13 4.89543 13 6Z"/>
<path d="M15 14C13.8954 14 13 13.1046 13 12C13 10.8954 13.8954 10 15 10C16.1046 10 17 10.8954 17 12C17 13.1046 16.1046 14 15 14Z"/>
<path d="M15 20C13.8954 20 13 19.1046 13 18C13 16.8954 13.8954 16 15 16C16.1046 16 17 16.8954 17 18C17 19.1046 16.1046 20 15 20Z"/>
<path d="M9 14C7.89543 14 7 13.1046 7 12C7 10.8954 7.89543 10 9 10C10.1046 10 11 10.8954 11 12C11 13.1046 10.1046 14 9 14Z"/>
<path d="M7 18C7 19.1046 7.89543 20 9 20C10.1046 20 11 19.1046 11 18C11 16.8954 10.1046 16 9 16C7.89543 16 7 16.8954 7 18Z"/>
<path d="M9 8C7.89543 8 7 7.10457 7 6C7 4.89543 7.89543 4 9 4C10.1046 4 11 4.89543 11 6C11 7.10457 10.1046 8 9 8Z"/>
</mask>
<path d="M13 6C13 7.10457 13.8954 8 15 8C16.1046 8 17 7.10457 17 6C17 4.89543 16.1046 4 15 4C13.8954 4 13 4.89543 13 6Z" fill="#2D2E2E"/>
<path d="M15 14C13.8954 14 13 13.1046 13 12C13 10.8954 13.8954 10 15 10C16.1046 10 17 10.8954 17 12C17 13.1046 16.1046 14 15 14Z" fill="#2D2E2E"/>
<path d="M15 20C13.8954 20 13 19.1046 13 18C13 16.8954 13.8954 16 15 16C16.1046 16 17 16.8954 17 18C17 19.1046 16.1046 20 15 20Z" fill="#2D2E2E"/>
<path d="M9 14C7.89543 14 7 13.1046 7 12C7 10.8954 7.89543 10 9 10C10.1046 10 11 10.8954 11 12C11 13.1046 10.1046 14 9 14Z" fill="#2D2E2E"/>
<path d="M7 18C7 19.1046 7.89543 20 9 20C10.1046 20 11 19.1046 11 18C11 16.8954 10.1046 16 9 16C7.89543 16 7 16.8954 7 18Z" fill="#2D2E2E"/>
<path d="M9 8C7.89543 8 7 7.10457 7 6C7 4.89543 7.89543 4 9 4C10.1046 4 11 4.89543 11 6C11 7.10457 10.1046 8 9 8Z" fill="#2D2E2E"/>
<path d="M15 8L15 9.5H15V8ZM11 12H12.5H11ZM11 18H12.5H11ZM9 8L9 9.5H9V8ZM11 6L12.5 6V6H11ZM11.5 6C11.5 7.933 13.067 9.5 15 9.5L15 6.5C14.7239 6.5 14.5 6.27614 14.5 6H11.5ZM15 9.5C16.933 9.5 18.5 7.933 18.5 6H15.5C15.5 6.27614 15.2761 6.5 15 6.5V9.5ZM18.5 6C18.5 4.067 16.933 2.5 15 2.5V5.5C15.2761 5.5 15.5 5.72386 15.5 6H18.5ZM15 2.5C13.067 2.5 11.5 4.067 11.5 6H14.5C14.5 5.72386 14.7239 5.5 15 5.5V2.5ZM15 12.5C14.7239 12.5 14.5 12.2761 14.5 12H11.5C11.5 13.933 13.067 15.5 15 15.5V12.5ZM14.5 12C14.5 11.7239 14.7239 11.5 15 11.5V8.5C13.067 8.5 11.5 10.067 11.5 12H14.5ZM15 11.5C15.2761 11.5 15.5 11.7239 15.5 12H18.5C18.5 10.067 16.933 8.5 15 8.5V11.5ZM15.5 12C15.5 12.2761 15.2761 12.5 15 12.5V15.5C16.933 15.5 18.5 13.933 18.5 12H15.5ZM15 18.5C14.7239 18.5 14.5 18.2761 14.5 18H11.5C11.5 19.933 13.067 21.5 15 21.5V18.5ZM14.5 18C14.5 17.7239 14.7239 17.5 15 17.5V14.5C13.067 14.5 11.5 16.067 11.5 18H14.5ZM15 17.5C15.2761 17.5 15.5 17.7239 15.5 18H18.5C18.5 16.067 16.933 14.5 15 14.5V17.5ZM15.5 18C15.5 18.2761 15.2761 18.5 15 18.5V21.5C16.933 21.5 18.5 19.933 18.5 18H15.5ZM9 12.5C8.72386 12.5 8.5 12.2761 8.5 12H5.5C5.5 13.933 7.067 15.5 9 15.5V12.5ZM8.5 12C8.5 11.7239 8.72386 11.5 9 11.5V8.5C7.067 8.5 5.5 10.067 5.5 12H8.5ZM9 11.5C9.27614 11.5 9.5 11.7239 9.5 12H12.5C12.5 10.067 10.933 8.5 9 8.5V11.5ZM9.5 12C9.5 12.2761 9.27614 12.5 9 12.5V15.5C10.933 15.5 12.5 13.933 12.5 12L9.5 12ZM5.5 18C5.5 19.933 7.067 21.5 9 21.5V18.5C8.72386 18.5 8.5 18.2761 8.5 18H5.5ZM9 21.5C10.933 21.5 12.5 19.933 12.5 18H9.5C9.5 18.2761 9.27614 18.5 9 18.5V21.5ZM12.5 18C12.5 16.067 10.933 14.5 9 14.5V17.5C9.27614 17.5 9.5 17.7239 9.5 18H12.5ZM9 14.5C7.067 14.5 5.5 16.067 5.5 18H8.5C8.5 17.7239 8.72386 17.5 9 17.5V14.5ZM9 6.5C8.72386 6.5 8.5 6.27614 8.5 6H5.5C5.5 7.933 7.067 9.5 9 9.5L9 6.5ZM8.5 6C8.5 5.72386 8.72386 5.5 9 5.5V2.5C7.067 2.5 5.5 4.067 5.5 6H8.5ZM9 5.5C9.27614 5.5 9.5 5.72386 9.5 6H12.5C12.5 4.067 10.933 2.5 9 2.5V5.5ZM9.5 6C9.5 6.27614 9.27614 6.5 9 6.5V9.5C10.933 9.5 12.5 7.933 12.5 6L9.5 6Z" fill="#2D2E2E" mask="url(#path-1-inside-1_31679_243487)"/>
</svg>
