<svg width="24" height="24" viewBox="0 0 24 24" fill="none" xmlns="http://www.w3.org/2000/svg">
<path d="M17.6708 7.16459C17.4856 6.79411 17.0351 6.64393 16.6646 6.82916L15.6646 7.32913C15.2941 7.51436 15.144 7.96486 15.3292 8.33535C15.5144 8.70584 15.9649 8.85602 16.3354 8.67079L17.3354 8.17082C17.7059 7.98558 17.8561 7.53508 17.6708 7.16459Z" fill="#2D2E2E"/>
<path d="M12.75 14.5C12.75 14.0858 12.4142 13.75 12 13.75C11.5858 13.75 11.25 14.0858 11.25 14.5V17.5C11.25 17.9142 11.5858 18.25 12 18.25C12.4142 18.25 12.75 17.9142 12.75 17.5V14.5Z" fill="#2D2E2E"/>
<path d="M9.00002 14.25C9.41423 14.25 9.75002 14.5858 9.75002 15V17C9.75002 17.4142 9.41423 17.75 9.00002 17.75C8.5858 17.75 8.25002 17.4142 8.25002 17V15C8.25002 14.5858 8.5858 14.25 9.00002 14.25Z" fill="#2D2E2E"/>
<path d="M15.75 15C15.75 14.5858 15.4142 14.25 15 14.25C14.5858 14.25 14.25 14.5858 14.25 15V17C14.25 17.4142 14.5858 17.75 15 17.75C15.4142 17.75 15.75 17.4142 15.75 17V15Z" fill="#2D2E2E"/>
<path fill-rule="evenodd" clip-rule="evenodd" d="M19.8748 7.07955L19.1835 11H19.7802C20.4113 11 20.8846 11.5773 20.7608 12.1961L19.4823 18.5883C19.2019 19.9906 17.9706 21 16.5406 21H7.45943C6.02939 21 4.79814 19.9906 4.51769 18.5883L3.23924 12.1961C3.11548 11.5773 3.58878 11 4.21982 11H5.37565L6.25001 8.85312V6.20731C5.95872 6.10435 5.75002 5.82654 5.75002 5.49999C5.75002 5.08577 6.08581 4.74999 6.50002 4.74999H7.00001L10.5 4.74999C10.9142 4.74999 11.25 5.08578 11.25 5.49999C11.25 5.82655 11.0413 6.10436 10.75 6.20732L10.75 8.35312L11.7128 10.7171C11.7506 10.8098 11.7684 10.9057 11.7684 11H12.5916L12.6905 10.3922L12.6922 10.3825L13.4736 5.95084C13.7853 4.18318 15.4709 3.00288 17.2385 3.31457C19.0062 3.62625 20.1865 5.31189 19.8748 7.07955ZM16.9781 4.79178C17.9299 4.95961 18.5654 5.86726 18.3976 6.81908L17.6604 11H14.1113L14.1702 10.6381L14.9508 6.21131C15.1186 5.25949 16.0263 4.62395 16.9781 4.79178ZM10.2084 11L9.3054 8.78289C9.26881 8.69306 9.25 8.59699 9.25 8.49999L9.25 6.24999L7.75001 6.24999V8.99999C7.75001 9.09699 7.7312 9.19306 7.69462 9.28289L6.99528 11H10.2084ZM4.82972 12.5L5.98856 18.2942C6.12879 18.9953 6.74441 19.5 7.45943 19.5H16.5406C17.2556 19.5 17.8713 18.9953 18.0115 18.2942L19.1703 12.5H4.82972Z" fill="#2D2E2E"/>
</svg>
