<svg width="24" height="24" viewBox="0 0 24 24" fill="none" xmlns="http://www.w3.org/2000/svg">
<path fill-rule="evenodd" clip-rule="evenodd" d="M4.5 14.937V15C4.5 16.1046 5.39543 17 6.5 17H8C9.10457 17 10 16.1046 10 15V12.75H14V15C14 16.1046 14.8954 17 16 17H17.5C18.6046 17 19.5 16.1046 19.5 15V14.937C19.6598 14.9781 19.8274 15 20 15C21.1046 15 22 14.1046 22 13V11C22 9.89543 21.1046 9 20 9C19.8274 9 19.6598 9.02188 19.5 9.06301V9C19.5 7.89543 18.6046 7 17.5 7H16C14.8954 7 14 7.89543 14 9V11.25H10V9C10 7.89543 9.10457 7 8 7H6.5C5.39543 7 4.5 7.89543 4.5 9V9.06301C4.34019 9.02188 4.17265 9 4 9C2.89543 9 2 9.89543 2 11V13C2 14.1046 2.89543 15 4 15C4.17265 15 4.34019 14.9781 4.5 14.937ZM8 8.5H6.5C6.22386 8.5 6 8.72386 6 9V15C6 15.2761 6.22386 15.5 6.5 15.5H8C8.27614 15.5 8.5 15.2761 8.5 15V9C8.5 8.72386 8.27614 8.5 8 8.5ZM19.5 11V13C19.5 13.2761 19.7239 13.5 20 13.5C20.2761 13.5 20.5 13.2761 20.5 13V11C20.5 10.7239 20.2761 10.5 20 10.5C19.7239 10.5 19.5 10.7239 19.5 11ZM18 9C18 8.72386 17.7761 8.5 17.5 8.5H16C15.7239 8.5 15.5 8.72386 15.5 9V15C15.5 15.2761 15.7239 15.5 16 15.5H17.5C17.7761 15.5 18 15.2761 18 15V9ZM4.5 13V11C4.5 10.7239 4.27614 10.5 4 10.5C3.72386 10.5 3.5 10.7239 3.5 11V13C3.5 13.2761 3.72386 13.5 4 13.5C4.27614 13.5 4.5 13.2761 4.5 13Z" fill="#2D2E2E"/>
</svg>
