<svg width="24" height="24" viewBox="0 0 24 24" fill="none" xmlns="http://www.w3.org/2000/svg">
<path d="M6.5 3.25C4.70507 3.25 3.25 4.70507 3.25 6.5V7.5C3.25 7.91421 2.91421 8.25 2.5 8.25C2.08579 8.25 1.75 7.91421 1.75 7.5V6.5C1.75 3.87665 3.87665 1.75 6.5 1.75H17.5C20.1234 1.75 22.25 3.87665 22.25 6.5V7.5C22.25 7.91421 21.9142 8.25 21.5 8.25C21.0858 8.25 20.75 7.91421 20.75 7.5V6.5C20.75 4.70507 19.2949 3.25 17.5 3.25H6.5Z" fill="#2D2E2E"/>
<path d="M7.56327 8.61146C7.50078 7.90857 7.44632 7.29618 7.44632 6.98154C7.44632 6.03513 7.79882 5.49211 7.79882 5.49211C7.30586 5.22009 6.95399 3.99979 6.95399 3.99979C6.81043 4.33905 6.31747 5.08397 6.31747 5.08397C6.31747 5.08397 7.73014 11.7971 6.81042 12.607C5.8936 13.4198 4.05561 13.558 2.99688 12.8819C1.93567 12.2028 3.06597 10.0324 3.06597 10.0324C2.42966 10.7777 1.93567 11.6596 2.00683 12.607C2.07716 13.558 2.7836 14.5042 4.47948 14.5733C6.17411 14.6415 7.37496 12.9477 7.65857 12.2702C7.84835 11.8176 7.68942 10.0302 7.56327 8.61146Z" fill="#2D2E2E"/>
<path d="M14.8693 11.983C14.9202 11.8212 15.5524 9.8916 16.7026 9.76107C17.5519 9.66618 18.4004 10.1462 19.1245 10.5558C19.4249 10.7258 19.7039 10.8836 19.9526 10.9832C20.7981 11.32 22.0001 11.254 22.0001 11.254L21.1537 12.5411C21.1537 12.5411 20.049 12.3988 19.1045 12.7434C17.6206 13.2865 15.5716 13.965 14.5116 13.4881C13.4513 13.014 13.0963 11.9987 13.0963 7.93073C13.0963 7.93073 12.6039 10.7772 11.8963 12.1336C11.1915 13.4881 9.21448 14.7763 6.45801 14.3677C6.45801 14.3677 11.4033 13.284 12.323 8.94789C13.2399 4.60952 13.1691 5.56069 13.1691 5.56069C13.1691 5.56069 13.5923 5.35693 13.6643 7.45825C13.6713 7.66675 13.6768 7.88126 13.6824 8.09866C13.7334 10.0705 13.7906 12.2807 14.9357 12.4044C16.2065 12.5411 17.7631 12.4735 18.6092 11.7279C18.6092 11.7279 16.7735 10.7085 15.8544 11.1853C15.052 11.5997 14.896 11.9108 14.8693 11.983Z" fill="#2D2E2E"/>
<path d="M6.63429 19.5C6.96325 19.5 7.14716 19.2776 7.14716 18.8877V16.1123C7.14716 15.7224 6.96325 15.5 6.63429 15.5C6.30533 15.5 6.12401 15.7195 6.12401 16.1123V17.048H5.02315V16.1123C5.02315 15.7224 4.83924 15.5 4.51028 15.5C4.18391 15.5 4 15.7195 4 16.1123V18.8877C4 19.2805 4.18391 19.5 4.51028 19.5C4.83924 19.5 5.02315 19.2776 5.02315 18.8877V17.9347H6.12401V18.8877C6.12401 19.2805 6.30533 19.5 6.63429 19.5Z" fill="#2D2E2E"/>
<path fill-rule="evenodd" clip-rule="evenodd" d="M8.03044 19.5C8.29982 19.5 8.44488 19.344 8.5459 18.9426L8.61583 18.6827H9.74777L9.81771 18.9426C9.91614 19.3325 10.0741 19.5 10.3435 19.5C10.6362 19.5 10.8305 19.3065 10.8305 19.0061C10.8305 18.8877 10.802 18.7491 10.745 18.5469L10.0819 16.3087C9.90837 15.7253 9.66748 15.5 9.209 15.5C8.74794 15.5 8.50186 15.7282 8.3309 16.3087L7.66262 18.5469C7.59009 18.7924 7.5616 18.9253 7.5616 19.035C7.5616 19.3094 7.75587 19.5 8.03044 19.5ZM8.81269 17.874L9.15979 16.4906H9.21418L9.5535 17.874H8.81269Z" fill="#2D2E2E"/>
<path d="M13.2368 18.5325C13.4777 18.5325 13.6539 18.7289 13.6539 19.0004C13.6539 19.2747 13.4777 19.4711 13.2368 19.4711H11.7734C11.4418 19.4711 11.2424 19.2516 11.2424 18.8762V16.1123C11.2424 15.7195 11.4263 15.5 11.7526 15.5C12.0816 15.5 12.2655 15.7224 12.2655 16.1123V18.5325H13.2368Z" fill="#2D2E2E"/>
<path fill-rule="evenodd" clip-rule="evenodd" d="M14.3766 19.5C14.6459 19.5 14.791 19.344 14.892 18.9426L14.962 18.6827H16.0939L16.1638 18.9426C16.2623 19.3325 16.4203 19.5 16.6897 19.5C16.9824 19.5 17.1766 19.3065 17.1766 19.0061C17.1766 18.8877 17.1481 18.7491 17.0911 18.5469L16.428 16.3087C16.2545 15.7253 16.0136 15.5 15.5551 15.5C15.0941 15.5 14.848 15.7282 14.677 16.3087L14.0087 18.5469C13.9362 18.7924 13.9077 18.9253 13.9077 19.035C13.9077 19.3094 14.102 19.5 14.3766 19.5ZM15.1588 17.874L15.5059 16.4906H15.5603L15.8996 17.874H15.1588Z" fill="#2D2E2E"/>
<path d="M19.583 18.5325C19.8239 18.5325 20 18.7289 20 19.0004C20 19.2747 19.8239 19.4711 19.583 19.4711H18.1195C17.7879 19.4711 17.5885 19.2516 17.5885 18.8762V16.1123C17.5885 15.7195 17.7724 15.5 18.0988 15.5C18.4277 15.5 18.6116 15.7224 18.6116 16.1123V18.5325H19.583Z" fill="#2D2E2E"/>
<path d="M10.9791 11.2545C10.9791 11.2545 10.5546 9.55825 9.77827 9.01689C9.51656 8.83473 9.23141 8.72924 8.96543 8.63084C8.43944 8.43625 7.98844 8.26941 7.94214 7.59221C7.87036 6.5765 7.94214 6.37419 7.94214 6.37419C7.94214 6.37419 11.403 7.45878 10.9791 11.2545Z" fill="#2D2E2E"/>
<path d="M20.75 19.5C20.75 20.1904 20.1904 20.75 19.5 20.75H4.5C3.80964 20.75 3.25 20.1904 3.25 19.5V19C3.25 18.5858 2.91421 18.25 2.5 18.25C2.08579 18.25 1.75 18.5858 1.75 19V19.5C1.75 21.0188 2.98122 22.25 4.5 22.25H19.5C21.0188 22.25 22.25 21.0188 22.25 19.5V19C22.25 18.5858 21.9142 18.25 21.5 18.25C21.0858 18.25 20.75 18.5858 20.75 19V19.5Z" fill="#2D2E2E"/>
</svg>
