<svg width="24" height="24" viewBox="0 0 24 24" fill="none" xmlns="http://www.w3.org/2000/svg">
<path d="M8.25 4.5C8.25 4.08579 8.58579 3.75 9 3.75H11C11.4142 3.75 11.75 4.08579 11.75 4.5C11.75 4.91421 11.4142 5.25 11 5.25H9C8.58579 5.25 8.25 4.91421 8.25 4.5Z" fill="#2D2E2E"/>
<path fill-rule="evenodd" clip-rule="evenodd" d="M9.90549 17.75H14.0945C14.4275 19.0439 15.6021 20 17 20C18.3979 20 19.5725 19.0439 19.9055 17.75H21C21.9665 17.75 22.75 16.9665 22.75 16V14C22.75 11.9289 21.0711 10.25 19 10.25H17.6955C17.2957 7.5316 14.7558 5.56299 11.9442 5.96464L9.89399 6.25754C9.88025 6.2595 9.86657 6.26184 9.85297 6.26456L7.69611 6.69594C5.68062 7.09903 3.90782 8.28625 2.76767 9.99643L2.56173 10.3053C1.80733 10.4999 1.25 11.1848 1.25 12V16C1.25 16.9665 2.0335 17.75 3 17.75H4.09451C4.42755 19.0439 5.60212 20 7 20C8.39788 20 9.57246 19.0439 9.90549 17.75ZM3 11.75C2.86193 11.75 2.75 11.8619 2.75 12V16C2.75 16.1381 2.86193 16.25 3 16.25H4.09451C4.42755 14.9561 5.60212 14 7 14C8.39788 14 9.57246 14.9561 9.90549 16.25H14.0945C14.4275 14.9561 15.6021 14 17 14C18.3979 14 19.5725 14.9561 19.9055 16.25H21C21.1381 16.25 21.25 16.1381 21.25 16V14C21.25 12.7574 20.2426 11.75 19 11.75H3ZM16.1719 10.25C15.7901 8.44898 14.0617 7.17738 12.1564 7.44957L10.7501 7.65047V10.25H16.1719ZM9.25005 10.25V7.91485L7.99028 8.16681C6.60308 8.44425 5.35843 9.18229 4.45185 10.25H9.25005ZM17 18.5C17.8284 18.5 18.5 17.8284 18.5 17C18.5 16.1716 17.8284 15.5 17 15.5C16.1716 15.5 15.5 16.1716 15.5 17C15.5 17.8284 16.1716 18.5 17 18.5ZM8.5 17C8.5 17.8284 7.82843 18.5 7 18.5C6.17157 18.5 5.5 17.8284 5.5 17C5.5 16.1716 6.17157 15.5 7 15.5C7.82843 15.5 8.5 16.1716 8.5 17Z" fill="#2D2E2E"/>
</svg>
