<svg width="24" height="24" viewBox="0 0 24 24" fill="none" xmlns="http://www.w3.org/2000/svg">
<path fill-rule="evenodd" clip-rule="evenodd" d="M5.48824 3.45171C5.79105 3.16909 6.26564 3.18545 6.54827 3.48826L20.5483 18.4883C20.8309 18.7911 20.8145 19.2657 20.5117 19.5483C20.2089 19.8309 19.7343 19.8146 19.4517 19.5117L16.8171 16.689C13.8596 18.6033 10.0318 18.5377 7.1392 16.513L6.53663 16.0912L3.31051 13.2683C2.54867 12.6017 2.50965 11.4297 3.22546 10.7139L4.62944 9.30988C5.22313 8.71619 5.87402 8.18258 6.57262 7.71685L7.72567 6.94815L5.45168 4.51174C5.16906 4.20893 5.18542 3.73434 5.48824 3.45171ZM14.1883 13.8724L15.774 15.5714C13.3622 17.0077 10.3176 16.9068 7.9994 15.2841L7.46332 14.9089L4.29827 12.1394C4.18944 12.0442 4.18386 11.8768 4.28612 11.7745L5.6901 10.3705C6.21395 9.84669 6.78826 9.37587 7.40467 8.96493L8.76288 8.05945L10.2676 9.67169L9.77242 10.1669C9.09357 10.8457 8.79891 11.8189 8.98719 12.7603C9.21452 13.897 10.103 14.7855 11.2396 15.0128C12.181 15.2011 13.1542 14.9064 13.8331 14.2276L14.1883 13.8724ZM13.1642 12.7751L11.2917 10.7689L10.8331 11.2276C10.5089 11.5518 10.3681 12.0166 10.4581 12.4662C10.5666 13.009 10.991 13.4333 11.5338 13.5419C11.9834 13.6318 12.4482 13.4911 12.7724 13.1669L13.1642 12.7751Z" fill="#2D2E2E"/>
<path d="M11.2678 6.33731C11.3577 5.93296 11.7583 5.67801 12.1627 5.76786L13.2515 6.00982C15.6186 6.53584 17.7866 7.72597 19.5012 9.44059L20.8232 10.7626C21.5066 11.446 21.5066 12.554 20.8232 13.2374L19.5303 14.5303C19.2374 14.8232 18.7625 14.8232 18.4696 14.5303C18.1768 14.2374 18.1768 13.7626 18.4696 13.4697L19.7625 12.1768C19.8602 12.0791 19.8602 11.9209 19.7625 11.8232L18.4406 10.5013C16.9277 8.98835 15.0147 7.93824 12.9261 7.4741L11.8373 7.23214C11.4329 7.14229 11.178 6.74165 11.2678 6.33731Z" fill="#2D2E2E"/>
</svg>
