<svg width="24" height="24" viewBox="0 0 24 24" fill="none" xmlns="http://www.w3.org/2000/svg">
<path d="M10.0304 14.9696C9.73748 14.6767 9.26261 14.6767 8.96971 14.9696C8.67682 15.2625 8.67682 15.7374 8.96971 16.0303L9.34839 16.409C10.8129 17.8734 13.1872 17.8734 14.6517 16.409L15.0304 16.0303C15.3233 15.7374 15.3233 15.2625 15.0304 14.9696C14.7375 14.6767 14.2626 14.6767 13.9697 14.9696L13.591 15.3483C12.7124 16.227 11.2877 16.227 10.4091 15.3483L10.0304 14.9696Z" fill="#2D2E2E"/>
<path fill-rule="evenodd" clip-rule="evenodd" d="M13.0671 3.8745C12.4381 3.39063 11.5622 3.39063 10.9331 3.8745L5.0464 8.40271L3.05005 9.89996C2.71868 10.1485 2.65152 10.6186 2.90004 10.95C3.14857 11.2813 3.61867 11.3485 3.95004 11.1L4.75007 10.5L4.7501 19.5C4.75011 20.4665 5.53361 21.25 6.5001 21.25H17.5001C18.4666 21.25 19.2501 20.4665 19.2501 19.5V10.5L20.05 11.1C20.3814 11.3485 20.8515 11.2813 21.1 10.95C21.3486 10.6186 21.2814 10.1485 20.9501 9.89997L18.9538 8.40271L13.0671 3.8745ZM6.2501 19.5L6.25007 9.36927L11.8477 5.06344C11.9375 4.99432 12.0627 4.99432 12.1525 5.06344L17.7501 9.36927V19.5C17.7501 19.638 17.6382 19.75 17.5001 19.75H6.5001C6.36203 19.75 6.25011 19.638 6.2501 19.5Z" fill="#2D2E2E"/>
</svg>
