<svg width="24" height="24" viewBox="0 0 24 24" fill="none" xmlns="http://www.w3.org/2000/svg">
<path d="M6.33541 8.32918C5.96493 8.14394 5.51442 8.29411 5.32918 8.66459C5.14394 9.03507 5.29411 9.48558 5.66459 9.67082L11.6646 12.6708C11.8757 12.7764 12.1243 12.7764 12.3354 12.6708L18.3354 9.67082C18.7059 9.48558 18.8561 9.03507 18.6708 8.66459C18.4856 8.29411 18.0351 8.14394 17.6646 8.32918L12 11.1615L6.33541 8.32918Z" fill="#2D2E2E"/>
<path fill-rule="evenodd" clip-rule="evenodd" d="M2 7C2 5.89543 2.89543 5 4 5H20C21.1046 5 22 5.89543 22 7V18C22 19.1046 21.1046 20 20 20H4C2.89543 20 2 19.1046 2 18V7ZM4 6.5H20C20.2761 6.5 20.5 6.72386 20.5 7V18C20.5 18.2761 20.2761 18.5 20 18.5H4C3.72386 18.5 3.5 18.2761 3.5 18V7C3.5 6.72386 3.72386 6.5 4 6.5Z" fill="#2D2E2E"/>
</svg>
