<svg width="24" height="24" viewBox="0 0 24 24" fill="none" xmlns="http://www.w3.org/2000/svg">
<path d="M12 17.75C12.4142 17.75 12.75 17.4142 12.75 17V11C12.75 10.5858 12.4142 10.25 12 10.25C11.5858 10.25 11.25 10.5858 11.25 11V17C11.25 17.4142 11.5858 17.75 12 17.75Z" fill="#2D2E2E"/>
<path d="M12.75 8C12.75 8.41421 12.4142 8.75 12 8.75C11.5858 8.75 11.25 8.41421 11.25 8V7C11.25 6.58578 11.5858 6.25 12 6.25C12.4142 6.25 12.75 6.58578 12.75 7V8Z" fill="#2D2E2E"/>
<path fill-rule="evenodd" clip-rule="evenodd" d="M12 2C17.5228 2 22 6.47715 22 12C22 17.5228 17.5228 22 12 22C6.47715 22 2 17.5228 2 12C2 6.47715 6.47715 2 12 2ZM12 3.5C16.6944 3.5 20.5 7.30558 20.5 12C20.5 16.6944 16.6944 20.5 12 20.5C7.30558 20.5 3.5 16.6944 3.5 12C3.5 7.30558 7.30558 3.5 12 3.5Z" fill="#2D2E2E"/>
</svg>
