<svg width="24" height="24" viewBox="0 0 24 24" fill="none" xmlns="http://www.w3.org/2000/svg">
<path d="M8.24973 9C8.24973 8.58579 7.91394 8.25 7.49973 8.25C7.08552 8.25 6.74973 8.58579 6.74973 9V17C6.74973 17.4142 7.08552 17.75 7.49973 17.75C7.91394 17.75 8.24973 17.4142 8.24973 17V9Z" fill="#2D2E2E"/>
<path d="M10.4997 8.25C10.9139 8.25 11.2497 8.58579 11.2497 9V17C11.2497 17.4142 10.9139 17.75 10.4997 17.75C10.0855 17.75 9.74973 17.4142 9.74973 17V9C9.74973 8.58579 10.0855 8.25 10.4997 8.25Z" fill="#2D2E2E"/>
<path fill-rule="evenodd" clip-rule="evenodd" d="M5.74973 3.5C5.74973 2.5335 6.53323 1.75 7.49973 1.75H10.4997C11.4662 1.75 12.2497 2.5335 12.2497 3.5V4.75H12.9997C13.6901 4.75 14.2497 5.30964 14.2497 6L14.2497 19.3729C14.4054 19.3796 14.5611 19.394 14.7162 19.4162L16.1939 19.6273L17.5165 15.459L17.2454 15.1957L15.7204 15.1006C15.1252 15.0634 14.6439 14.4497 14.9045 13.8118C15.2693 12.9187 15.9638 12.1311 16.7883 11.6301C17.6127 11.1292 18.6455 10.8717 19.6564 11.1925C20.6672 11.5132 21.3627 12.3191 21.7474 13.2037C22.1322 14.0885 22.2455 15.1324 22.0287 16.0724C21.8738 16.7439 21.1267 16.9678 20.6189 16.6549L19.3181 15.8534L18.9465 15.9119L17.7287 19.75H21.9997C22.4139 19.75 22.7497 20.0858 22.7497 20.5C22.7497 20.9142 22.4139 21.25 21.9997 21.25H17.284C17.0592 21.25 16.8348 21.234 16.6122 21.2023L14.5041 20.9011C13.914 20.8168 13.3121 20.8964 12.7642 21.1312L12.126 21.4047C10.7568 21.9915 9.19158 21.902 7.8982 21.1629L7.31923 20.8321C6.69173 20.4735 5.96262 20.3343 5.24716 20.4366L3.1058 20.7425C2.69574 20.801 2.31585 20.5161 2.25727 20.1061C2.19869 19.696 2.48361 19.3161 2.89366 19.2575L3.74973 19.1352V6C3.74973 5.30964 4.30937 4.75 4.99973 4.75H5.74973V3.5ZM5.24973 18.9259C6.22572 18.8316 7.20903 19.0415 8.06344 19.5297L8.64241 19.8606C9.52736 20.3663 10.5983 20.4275 11.5351 20.026L12.1733 19.7525C12.3615 19.6718 12.5541 19.6037 12.7497 19.5483L12.7497 6.25H5.24973V18.9259ZM10.7497 3.5V4.75H7.24973V3.5C7.24973 3.36193 7.36166 3.25 7.49973 3.25H10.4997C10.6378 3.25 10.7497 3.36193 10.7497 3.5ZM17.5419 13.7112L16.7211 13.6601C16.9557 13.3664 17.2463 13.107 17.5672 12.912C18.1333 12.568 18.7152 12.4675 19.2027 12.6222C19.6902 12.7769 20.1077 13.1945 20.3719 13.8019C20.5216 14.1463 20.6095 14.5258 20.6319 14.901L19.9318 14.4696C19.7387 14.3506 19.5095 14.3047 19.2855 14.34L18.6246 14.4442L18.1447 13.978C17.982 13.82 17.7682 13.7254 17.5419 13.7112Z" fill="#2D2E2E"/>
</svg>
