<svg width="24" height="24" viewBox="0 0 24 24" fill="none" xmlns="http://www.w3.org/2000/svg">
<path fill-rule="evenodd" clip-rule="evenodd" d="M9.25 2.5C9.25 2.08579 8.91421 1.75 8.5 1.75C8.08579 1.75 7.75 2.08579 7.75 2.5V7.75H7C6.58579 7.75 6.25 8.08579 6.25 8.5C6.25 8.91421 6.58579 9.25 7 9.25H7.75V20.75H3.5C3.08579 20.75 2.75 21.0858 2.75 21.5C2.75 21.9142 3.08579 22.25 3.5 22.25H20.5C20.9142 22.25 21.25 21.9142 21.25 21.5C21.25 21.0858 20.9142 20.75 20.5 20.75H16.6078L17.0668 19.6024C17.8566 17.6278 18.0894 15.4744 17.7398 13.3767L17.6609 12.9031C17.4452 11.6093 16.9918 10.3713 16.3277 9.25H19C19.4142 9.25 19.75 8.91421 19.75 8.5C19.75 8.08579 19.4142 7.75 19 7.75H15.2534C13.6811 5.90135 11.5898 4.56626 9.25 3.91838V2.5ZM9.25 10.75V9.25H14.5307C14.8784 9.72132 15.1787 10.2238 15.4283 10.75H9.25ZM9.25 7.75H13.1715C12.0452 6.72416 10.7083 5.94955 9.25 5.48334V7.75ZM9.25 12.25H15.984C16.0647 12.5456 16.1306 12.8459 16.1813 13.1497L16.2602 13.6233C16.2672 13.6655 16.274 13.7077 16.2805 13.75H9.25V12.25ZM9.25 15.25H16.3978C16.3997 15.7523 16.3641 16.2537 16.2916 16.75H9.25V15.25ZM9.25 18.25H15.9544C15.8723 18.5182 15.7788 18.7836 15.6741 19.0453L14.9922 20.75H9.25V18.25Z" fill="#2D2E2E"/>
</svg>
