<svg width="24" height="24" viewBox="0 0 24 24" fill="none" xmlns="http://www.w3.org/2000/svg">
<path fill-rule="evenodd" clip-rule="evenodd" d="M8.84651 1.75024C8.32546 1.75024 7.85905 2.07346 7.6761 2.56134L5.21067 9.13582C4.8319 10.1459 5.44827 11.2547 6.50604 11.4663L9.59026 12.0831L7.75217 19.8031C7.44794 21.0809 9.06797 21.9031 9.91973 20.9032L19.3688 9.81083C20.0602 8.99924 19.4834 7.75024 18.4173 7.75024H15.5L18.5 3.75024C19.118 2.9262 18.5301 1.75024 17.5 1.75024H8.84651ZM6.61516 9.66251L9.01976 3.25024H17L14 7.25024C13.382 8.07429 13.97 9.25024 15 9.25024H17.8759L9.45226 19.1389L11.1095 12.1784C11.2735 11.4895 10.8331 10.802 10.1387 10.6631L6.80022 9.99543C6.64911 9.96521 6.56105 9.8068 6.61516 9.66251Z" fill="#2D2E2E"/>
</svg>
