<svg width="24" height="24" viewBox="0 0 24 24" fill="none" xmlns="http://www.w3.org/2000/svg">
<path fill-rule="evenodd" clip-rule="evenodd" d="M7.54824 2.48826C7.26561 2.18545 6.79102 2.16909 6.48821 2.45171C6.18539 2.73434 6.16903 3.20893 6.45165 3.51174L10.7181 8.08295L4.12784 11.8488C3.83257 12.0175 3.68779 12.3638 3.77507 12.6925C3.86236 13.0212 4.15987 13.25 4.49995 13.25H11.9144L13.7723 20.6819C13.8547 21.0113 14.148 21.2442 14.4875 21.2499C14.8269 21.2556 15.1278 21.0325 15.2211 20.706L16.927 14.7353L20.4517 18.5117C20.7343 18.8146 21.2089 18.8309 21.5117 18.5483C21.8145 18.2657 21.8309 17.7911 21.5482 17.4883L7.54824 2.48826ZM15.7326 13.4556L11.7697 9.20966L7.32412 11.75H12.4999C12.8441 11.75 13.1441 11.9842 13.2276 12.3181L14.5483 17.6009L15.7326 13.4556Z" fill="#2D2E2E"/>
<path d="M20.2168 3.72057C20.3081 3.42364 20.207 3.10112 19.9624 2.90956C19.7178 2.71799 19.3805 2.69705 19.1141 2.85688L14.1141 5.85688C13.7589 6.06999 13.6437 6.53069 13.8568 6.88587C14.0699 7.24106 14.5306 7.35623 14.8858 7.14312L18.2075 5.1501L16.7831 9.77944C16.6613 10.1753 16.8835 10.595 17.2794 10.7168C17.6753 10.8387 18.095 10.6165 18.2168 10.2206L20.2168 3.72057Z" fill="#2D2E2E"/>
</svg>
