<svg width="24" height="24" viewBox="0 0 24 24" fill="none" xmlns="http://www.w3.org/2000/svg">
<path fill-rule="evenodd" clip-rule="evenodd" d="M12 6.24997C9.92892 6.24997 8.24999 7.9289 8.24999 9.99997C8.24999 12.071 9.92892 13.75 12 13.75C14.0711 13.75 15.75 12.071 15.75 9.99997C15.75 7.9289 14.0711 6.24997 12 6.24997ZM9.74999 9.99997C9.74999 8.75733 10.7573 7.74997 12 7.74997C13.2426 7.74997 14.25 8.75733 14.25 9.99997C14.25 11.2426 13.2426 12.25 12 12.25C10.7573 12.25 9.74999 11.2426 9.74999 9.99997Z" fill="#2D2E2E"/>
<path fill-rule="evenodd" clip-rule="evenodd" d="M16.0999 3.16477C13.5893 1.60458 10.4107 1.60458 7.90001 3.16478C4.1145 5.51721 3.0805 10.5657 5.63636 14.2169L10.827 21.6321C11.397 22.4464 12.603 22.4464 13.173 21.6321L18.3636 14.217C20.9195 10.5657 19.8854 5.5172 16.0999 3.16477ZM8.69174 4.43882C10.7176 3.1799 13.2824 3.1799 15.3082 4.43881C18.3627 6.33697 19.1971 10.4106 17.1347 13.3568L12 20.6921L6.86521 13.3567C4.8029 10.4106 5.63723 6.33698 8.69174 4.43882Z" fill="#2D2E2E"/>
</svg>
