<svg width="24" height="24" viewBox="0 0 24 24" fill="none" xmlns="http://www.w3.org/2000/svg">
<path fill-rule="evenodd" clip-rule="evenodd" d="M10.9697 13.4697C11.5387 12.9006 12.4613 12.9006 13.0303 13.4697C13.5994 14.0387 13.5994 14.9613 13.0303 15.5303C12.4613 16.0994 11.5387 16.0994 10.9697 15.5303C10.4006 14.9613 10.4006 14.0387 10.9697 13.4697ZM11.9697 14.5303C11.9864 14.5471 12.0136 14.5471 12.0303 14.5303C12.0471 14.5136 12.0471 14.4864 12.0303 14.4697C12.0136 14.4529 11.9864 14.4529 11.9697 14.4697C11.9529 14.4864 11.9529 14.5136 11.9697 14.5303Z" fill="#2D2E2E"/>
<path fill-rule="evenodd" clip-rule="evenodd" d="M16.75 6.7C16.75 5.6435 16.9986 4.77091 17.4428 4.18163C17.865 3.62159 18.5118 3.25 19.5 3.25C20.4882 3.25 21.135 3.62159 21.5572 4.18163C22.0014 4.77091 22.25 5.6435 22.25 6.7V8.5C22.25 8.91421 22.5858 9.25 23 9.25C23.4142 9.25 23.75 8.91421 23.75 8.5V6.7C23.75 5.4369 23.4567 4.2095 22.755 3.27867C22.0312 2.31861 20.9281 1.75 19.5 1.75C18.0719 1.75 16.9688 2.31861 16.245 3.27867C15.5433 4.2095 15.25 5.4369 15.25 6.7V8H7C5.89543 8 5 8.89543 5 10V19C5 20.1046 5.89543 21 7 21H17C18.1046 21 19 20.1046 19 19V10C19 8.89543 18.1046 8 17 8H16.75V6.7ZM17 9.5H7C6.72386 9.5 6.5 9.72386 6.5 10V19C6.5 19.2761 6.72386 19.5 7 19.5H17C17.2761 19.5 17.5 19.2761 17.5 19V10C17.5 9.72386 17.2761 9.5 17 9.5Z" fill="#2D2E2E"/>
</svg>
