<svg width="24" height="24" viewBox="0 0 24 24" fill="none" xmlns="http://www.w3.org/2000/svg">
<path fill-rule="evenodd" clip-rule="evenodd" d="M13.0303 13.4696C12.4612 12.9006 11.5387 12.9006 10.9696 13.4696C10.4006 14.0387 10.4006 14.9612 10.9696 15.5303C11.5387 16.0993 12.4612 16.0993 13.0303 15.5303C13.5993 14.9612 13.5993 14.0387 13.0303 13.4696Z" fill="#2D2E2E"/>
<path fill-rule="evenodd" clip-rule="evenodd" d="M7.75 6.7V8H7C5.89543 8 5 8.89543 5 10V19C5 20.1046 5.89543 21 7 21H17C18.1046 21 19 20.1046 19 19V10C19 8.89543 18.1046 8 17 8H16.25V6.7C16.25 5.4369 15.9567 4.2095 15.255 3.27867C14.5312 2.31861 13.4281 1.75 12 1.75C10.5719 1.75 9.46877 2.31861 8.74502 3.27867C8.04331 4.2095 7.75 5.4369 7.75 6.7ZM9.9428 4.18163C9.49856 4.77091 9.25 5.6435 9.25 6.7V8H14.75V6.7C14.75 5.6435 14.5014 4.77091 14.0572 4.18163C13.635 3.62159 12.9882 3.25 12 3.25C11.0118 3.25 10.365 3.62159 9.9428 4.18163ZM7 9.5C6.72386 9.5 6.5 9.72386 6.5 10V19C6.5 19.2761 6.72386 19.5 7 19.5H17C17.2761 19.5 17.5 19.2761 17.5 19V10C17.5 9.72386 17.2761 9.5 17 9.5H7Z" fill="#2D2E2E"/>
</svg>
