<svg width="24" height="24" viewBox="0 0 24 24" fill="none" xmlns="http://www.w3.org/2000/svg">
<path d="M10.4997 5.25003C10.9139 5.25003 11.2497 5.58582 11.2497 6.00003V14C11.2497 14.4142 10.9139 14.75 10.4997 14.75C10.0855 14.75 9.74973 14.4142 9.74973 14V6.00003C9.74973 5.58582 10.0855 5.25003 10.4997 5.25003Z" fill="#2D2E2E"/>
<path d="M14.2497 6.00003C14.2497 5.58582 13.9139 5.25003 13.4997 5.25003C13.0855 5.25003 12.7497 5.58582 12.7497 6.00003V14C12.7497 14.4142 13.0855 14.75 13.4997 14.75C13.9139 14.75 14.2497 14.4142 14.2497 14V6.00003Z" fill="#2D2E2E"/>
<path fill-rule="evenodd" clip-rule="evenodd" d="M7.99973 1.75C7.30938 1.75 6.74973 2.30964 6.74973 3L6.74973 7.75003H5.49973C4.53323 7.75003 3.74973 8.53353 3.74973 9.50003V19.1353L2.89366 19.2576C2.48361 19.3162 2.19869 19.6961 2.25727 20.1061C2.31585 20.5162 2.69574 20.8011 3.1058 20.7425L5.24716 20.4366C5.96262 20.3344 6.69173 20.4736 7.31923 20.8322L7.87762 21.1512C9.19259 21.9027 10.8069 21.9027 12.1218 21.1512C12.9756 20.6633 14.0238 20.6633 14.8776 21.1512L15.049 21.2492C16.2427 21.9313 17.6782 22.0466 18.9655 21.5639L21.2631 20.7023C21.6509 20.5569 21.8474 20.1246 21.702 19.7367C21.5565 19.3489 21.1242 19.1524 20.7364 19.2978L20.2497 19.4803V6.50006C20.2497 5.53356 19.4662 4.75006 18.4997 4.75006H17.2497V3C17.2497 2.30964 16.6901 1.75 15.9997 1.75H7.99973ZM15.7497 3.25H8.24973L8.24973 19.6362L8.62183 19.8489C9.47565 20.3368 10.5238 20.3368 11.3776 19.8489C12.6926 19.0975 14.3069 19.0975 15.6218 19.8489L15.7497 19.922V3.25ZM17.2497 6.25006H18.4997C18.6378 6.25006 18.7497 6.36199 18.7497 6.50006V20.0428L18.4388 20.1594C18.0544 20.3035 17.6505 20.3688 17.2497 20.3568V6.25006ZM5.49973 9.25003H6.74973L6.74973 19.0199C6.2603 18.9097 5.75404 18.8772 5.24973 18.926V9.50003C5.24973 9.36196 5.36166 9.25003 5.49973 9.25003Z" fill="#2D2E2E"/>
</svg>
