<svg width="24" height="24" viewBox="0 0 24 24" fill="none" xmlns="http://www.w3.org/2000/svg">
<path fill-rule="evenodd" clip-rule="evenodd" d="M8 6C8 3.79086 9.79086 2 12 2C14.2091 2 16 3.79086 16 6V11C16 13.2091 14.2091 15 12 15C9.79086 15 8 13.2091 8 11V6ZM14.5 6V11C14.5 12.3807 13.3807 13.5 12 13.5C10.6193 13.5 9.5 12.3807 9.5 11V6C9.5 4.61929 10.6193 3.5 12 3.5C13.3807 3.5 14.5 4.61929 14.5 6Z" fill="#2D2E2E"/>
<path d="M6.75 11C6.75 10.5858 6.41421 10.25 6 10.25C5.58579 10.25 5.25 10.5858 5.25 11C5.25 14.4744 7.87504 17.3357 11.25 17.7088V19.75H9.5C9.08579 19.75 8.75 20.0858 8.75 20.5C8.75 20.9142 9.08579 21.25 9.5 21.25H14.5C14.9142 21.25 15.25 20.9142 15.25 20.5C15.25 20.0858 14.9142 19.75 14.5 19.75H12.75V17.7088C16.125 17.3357 18.75 14.4744 18.75 11C18.75 10.5858 18.4142 10.25 18 10.25C17.5858 10.25 17.25 10.5858 17.25 11C17.25 13.8995 14.8995 16.25 12 16.25C9.10051 16.25 6.75 13.8995 6.75 11Z" fill="#2D2E2E"/>
</svg>
