<svg width="24" height="24" viewBox="0 0 24 24" fill="none" xmlns="http://www.w3.org/2000/svg">
<path fill-rule="evenodd" clip-rule="evenodd" d="M11.9545 1.25017C12.3688 1.25017 12.7045 1.58595 12.7045 2.00017V3.45471C12.7045 3.86893 12.3688 4.20471 11.9545 4.20471C11.5403 4.20471 11.2045 3.86893 11.2045 3.45471V2.00017C11.2045 1.58595 11.5403 1.25017 11.9545 1.25017Z" fill="#2D2E2E"/>
<path fill-rule="evenodd" clip-rule="evenodd" d="M6.85223 2.61736C7.21095 2.41026 7.66965 2.53316 7.87675 2.89188L8.60403 4.15156C8.81113 4.51027 8.68823 4.96897 8.32951 5.17607C7.97079 5.38318 7.51209 5.26027 7.30499 4.90156L6.57771 3.64188C6.37061 3.28316 6.49351 2.82447 6.85223 2.61736Z" fill="#2D2E2E"/>
<path fill-rule="evenodd" clip-rule="evenodd" d="M3.1172 6.35253C3.32431 5.99381 3.783 5.8709 4.14172 6.07801L5.4014 6.80528C5.76012 7.01239 5.88302 7.47108 5.67592 7.8298C5.46881 8.18852 5.01012 8.31142 4.6514 8.10432L3.39172 7.37704C3.033 7.16994 2.9101 6.71125 3.1172 6.35253Z" fill="#2D2E2E"/>
<path fill-rule="evenodd" clip-rule="evenodd" d="M17.0567 2.61734C17.4154 2.82445 17.5383 3.28314 17.3312 3.64186L16.6039 4.90153C16.3968 5.26025 15.9381 5.38316 15.5794 5.17605C15.2207 4.96894 15.0978 4.51025 15.3049 4.15153L16.0322 2.89186C16.2393 2.53314 16.698 2.41023 17.0567 2.61734Z" fill="#2D2E2E"/>
<path fill-rule="evenodd" clip-rule="evenodd" d="M20.8309 6.35237C21.038 6.71109 20.9151 7.16978 20.5564 7.37689L19.2967 8.10416C18.938 8.31127 18.4793 8.18836 18.2722 7.82964C18.0651 7.47092 18.188 7.01223 18.5467 6.80512L19.8064 6.07785C20.1651 5.87074 20.6238 5.99365 20.8309 6.35237Z" fill="#2D2E2E"/>
<path fill-rule="evenodd" clip-rule="evenodd" d="M22.159 11.4547C22.159 11.8689 21.8232 12.2047 21.409 12.2047H19.9544C19.5402 12.2047 19.2044 11.8689 19.2044 11.4547C19.2044 11.0405 19.5402 10.7047 19.9544 10.7047H21.409C21.8232 10.7047 22.159 11.0405 22.159 11.4547Z" fill="#2D2E2E"/>
<path fill-rule="evenodd" clip-rule="evenodd" d="M4.70467 11.4547C4.70467 11.8689 4.36888 12.2047 3.95467 12.2047H2.50012C2.08591 12.2047 1.75012 11.8689 1.75012 11.4547C1.75012 11.0405 2.08591 10.7047 2.50012 10.7047H3.95467C4.36888 10.7047 4.70467 11.0405 4.70467 11.4547Z" fill="#2D2E2E"/>
<path fill-rule="evenodd" clip-rule="evenodd" d="M11.9545 18.72C12.3687 18.72 12.7045 19.0558 12.7045 19.47V20.9245C12.7045 21.3388 12.3687 21.6745 11.9545 21.6745C11.5403 21.6745 11.2045 21.3388 11.2045 20.9245V19.47C11.2045 19.0558 11.5403 18.72 11.9545 18.72Z" fill="#2D2E2E"/>
<path fill-rule="evenodd" clip-rule="evenodd" d="M7.59991 17.5323C7.95863 17.7394 8.08154 18.1981 7.87443 18.5568L7.14716 19.8165C6.94005 20.1752 6.48136 20.2981 6.12264 20.091C5.76392 19.8839 5.64102 19.4252 5.84812 19.0665L6.5754 17.8068C6.7825 17.4481 7.24119 17.3252 7.59991 17.5323Z" fill="#2D2E2E"/>
<path fill-rule="evenodd" clip-rule="evenodd" d="M16.3099 17.5323C16.6687 17.3252 17.1273 17.4481 17.3345 17.8068L18.0617 19.0665C18.2688 19.4252 18.1459 19.8839 17.7872 20.091C17.4285 20.2981 16.9698 20.1752 16.7627 19.8165L16.0354 18.5568C15.8283 18.1981 15.9512 17.7394 16.3099 17.5323Z" fill="#2D2E2E"/>
<path fill-rule="evenodd" clip-rule="evenodd" d="M18.5324 14.9399C18.7395 14.5812 19.1982 14.4583 19.5569 14.6654L20.8166 15.3927C21.1753 15.5998 21.2982 16.0585 21.0911 16.4172C20.884 16.7759 20.4253 16.8988 20.0666 16.6917L18.8069 15.9644C18.4482 15.7573 18.3253 15.2986 18.5324 14.9399Z" fill="#2D2E2E"/>
<path fill-rule="evenodd" clip-rule="evenodd" d="M5.67769 14.9399C5.47058 14.5812 5.01189 14.4583 4.65317 14.6654L3.3935 15.3927C3.03478 15.5998 2.91187 16.0585 3.11898 16.4172C3.32609 16.7759 3.78478 16.8988 4.1435 16.6917L5.40317 15.9644C5.76189 15.7573 5.8848 15.2986 5.67769 14.9399Z" fill="#2D2E2E"/>
<path fill-rule="evenodd" clip-rule="evenodd" d="M11.9597 6.39C9.15958 6.39 6.88967 8.65991 6.88967 11.46C6.88967 14.2601 9.15958 16.53 11.9597 16.53C14.7597 16.53 17.0297 14.2601 17.0297 11.46C17.0297 8.65991 14.7597 6.39 11.9597 6.39ZM5.38967 11.46C5.38967 7.83149 8.33115 4.89 11.9597 4.89C15.5882 4.89 18.5297 7.83149 18.5297 11.46C18.5297 15.0885 15.5882 18.03 11.9597 18.03C8.33115 18.03 5.38967 15.0885 5.38967 11.46Z" fill="#2D2E2E"/>
</svg>
