<svg width="24" height="24" viewBox="0 0 24 24" fill="none" xmlns="http://www.w3.org/2000/svg">
<path fill-rule="evenodd" clip-rule="evenodd" d="M9 9C9 7.89543 9.89543 7 11 7H13C14.1046 7 15 7.89543 15 9V10C15 11.1046 14.1046 12 13 12H11C9.89543 12 9 11.1046 9 10V9ZM11 8.5H13C13.2761 8.5 13.5 8.72386 13.5 9V10C13.5 10.2761 13.2761 10.5 13 10.5H11C10.7239 10.5 10.5 10.2761 10.5 10V9C10.5 8.72386 10.7239 8.5 11 8.5Z" fill="#2D2E2E"/>
<path d="M4.75 7.5C4.75 7.08579 5.08579 6.75 5.5 6.75H6C6.41421 6.75 6.75 7.08579 6.75 7.5C6.75 7.91421 6.41421 8.25 6 8.25H5.5C5.08579 8.25 4.75 7.91421 4.75 7.5Z" fill="#2D2E2E"/>
<path d="M18 6.75C17.5858 6.75 17.25 7.08579 17.25 7.5C17.25 7.91421 17.5858 8.25 18 8.25H18.5C18.9142 8.25 19.25 7.91421 19.25 7.5C19.25 7.08579 18.9142 6.75 18.5 6.75H18Z" fill="#2D2E2E"/>
<path d="M4.75 11.5C4.75 11.0858 5.08579 10.75 5.5 10.75H6C6.41421 10.75 6.75 11.0858 6.75 11.5C6.75 11.9142 6.41421 12.25 6 12.25H5.5C5.08579 12.25 4.75 11.9142 4.75 11.5Z" fill="#2D2E2E"/>
<path d="M18 10.75C17.5858 10.75 17.25 11.0858 17.25 11.5C17.25 11.9142 17.5858 12.25 18 12.25H18.5C18.9142 12.25 19.25 11.9142 19.25 11.5C19.25 11.0858 18.9142 10.75 18.5 10.75H18Z" fill="#2D2E2E"/>
<path fill-rule="evenodd" clip-rule="evenodd" d="M4 4C2.89543 4 2 4.89543 2 6V13C2 14.1046 2.89543 15 4 15H20C21.1046 15 22 14.1046 22 13V6C22 4.89543 21.1046 4 20 4H4ZM20 5.5H4C3.72386 5.5 3.5 5.72386 3.5 6V13C3.5 13.2761 3.72386 13.5 4 13.5H20C20.2761 13.5 20.5 13.2761 20.5 13V6C20.5 5.72386 20.2761 5.5 20 5.5Z" fill="#2D2E2E"/>
<path d="M2.75 17C2.75 16.5858 3.08579 16.25 3.5 16.25H10.3302C13.507 16.25 16.6594 16.8054 19.6449 17.891C19.696 17.9096 19.75 17.8718 19.75 17.8174V17C19.75 16.5858 20.0858 16.25 20.5 16.25C20.9142 16.25 21.25 16.5858 21.25 17V17.8174C21.25 18.9127 20.1617 19.675 19.1323 19.3007C16.3111 18.2748 13.3322 17.75 10.3302 17.75H3.5C3.08579 17.75 2.75 17.4142 2.75 17Z" fill="#2D2E2E"/>
</svg>
