<svg width="24" height="24" viewBox="0 0 24 24" fill="none" xmlns="http://www.w3.org/2000/svg">
<path fill-rule="evenodd" clip-rule="evenodd" d="M16.8787 19.7785L18.3128 19.4917C19.0166 19.3509 19.591 18.8438 19.8179 18.163L20.3394 16.5984C20.6206 15.755 20.1102 14.8536 19.2424 14.6608L14.8414 13.6828C14.6578 13.642 14.4784 13.7661 14.4519 13.9522C14.3265 14.8297 13.2531 15.1875 12.6263 14.5607L9.30497 11.2394C8.67814 10.6126 9.03595 9.5392 9.91351 9.41383C10.0996 9.38725 10.2237 9.20785 10.1829 9.02434L9.2049 4.6233C9.01204 3.75546 8.11068 3.24512 7.26729 3.52625L5.70274 4.04777C5.02185 4.27473 4.51479 4.84913 4.37403 5.5529L4.08721 6.98703C3.95955 7.62528 3.93279 8.27961 4.00787 8.92615C4.67434 14.6649 9.2008 19.1914 14.9395 19.8578C15.5861 19.9329 16.2404 19.9061 16.8787 19.7785ZM6.17708 5.47079L7.74081 4.94955L8.51152 8.41775C7.33798 9.30365 7.07218 11.128 8.24431 12.3001L11.5656 15.6214C12.7377 16.7935 14.562 16.5277 15.4479 15.3542L18.9161 16.1249L18.3949 17.6886C18.3382 17.8588 18.1946 17.9856 18.0186 18.0208L16.5845 18.3076C16.1 18.4045 15.6033 18.4248 15.1126 18.3678C10.0652 17.7817 6.08404 13.8005 5.49786 8.75311C5.44086 8.26234 5.46118 7.76568 5.55808 7.28121L5.8449 5.84708C5.88009 5.67113 6.00686 5.52754 6.17708 5.47079Z" fill="#2D2E2E"/>
<path d="M15.5 4.74993C15.0858 4.74993 14.75 5.08572 14.75 5.49993C14.75 5.91415 15.0858 6.24993 15.5 6.24993L16.6894 6.24993L12.9694 9.96984C12.6765 10.2627 12.6765 10.7376 12.9694 11.0305C13.2623 11.3234 13.7372 11.3234 14.0301 11.0305L17.7499 7.31074L17.7498 8.49987C17.7497 8.91408 18.0855 9.24989 18.4997 9.24993C18.9139 9.24997 19.2497 8.91421 19.2498 8.5L19.25 5.49999C19.25 5.30107 19.171 5.11029 19.0304 4.96962C18.8897 4.82896 18.6989 4.74993 18.5 4.74993L15.5 4.74993Z" fill="#2D2E2E"/>
</svg>
