<svg width="24" height="24" viewBox="0 0 24 24" fill="none" xmlns="http://www.w3.org/2000/svg">
<path d="M2.75 10.5C2.75 6.32946 6.77245 2.75 12 2.75C17.2276 2.75 21.25 6.32946 21.25 10.5C21.25 11.8941 20.8111 12.982 20.0455 13.8976C19.2643 14.8318 18.1187 15.6142 16.6691 16.327C16.2974 16.5097 16.1442 16.9592 16.327 17.3309C16.5097 17.7026 16.9592 17.8558 17.3309 17.673C18.8703 16.9161 20.2247 16.0216 21.1962 14.8598C22.1834 13.6793 22.75 12.2521 22.75 10.5C22.75 5.2817 17.8181 1.25 12 1.25C6.18186 1.25 1.25 5.2817 1.25 10.5C1.25 12.2521 1.81661 13.6793 2.80378 14.8598C3.77526 16.0216 5.12966 16.9161 6.66907 17.673C7.04078 17.8558 7.49027 17.7026 7.67304 17.3309C7.85581 16.9592 7.70264 16.5097 7.33093 16.327C5.88133 15.6142 4.73573 14.8318 3.95447 13.8976C3.18889 12.982 2.75 11.8941 2.75 10.5Z" fill="#2D2E2E"/>
<path fill-rule="evenodd" clip-rule="evenodd" d="M14.0919 4.03934C14.3463 4.36622 14.2875 4.83745 13.9607 5.09186L12.75 6.03414V7.06385C13.4792 6.531 14.2872 6.1137 15.1456 5.82755L15.2628 5.78849C15.6558 5.6575 16.0805 5.86987 16.2115 6.26283C16.3425 6.65579 16.1301 7.08053 15.7372 7.21151L15.62 7.25057C14.7914 7.52678 14.0195 7.95046 13.3415 8.50117L12.75 8.98165V9.42816L12.7553 9.42523C14.776 8.31621 17.1527 8.04934 19.369 8.68257L19.706 8.77886C20.1043 8.89265 20.3349 9.30777 20.2211 9.70604C20.1073 10.1043 19.6922 10.3349 19.294 10.2211L18.957 10.1249C17.1206 9.60018 15.1513 9.8213 13.477 10.7402L12.75 11.1392V11.6794C14.579 11.2645 16.5168 11.6098 18.103 12.6673L18.416 12.876C18.7607 13.1057 18.8538 13.5714 18.624 13.916C18.3943 14.2607 17.9286 14.3538 17.584 14.124L17.271 13.9154C15.9477 13.0332 14.3116 12.7843 12.7994 13.2144L13.9779 19.8925C14.1949 21.1223 13.2489 22.25 12 22.25C10.7511 22.25 9.80506 21.1224 10.0221 19.8925L11.2006 13.2144C9.6884 12.7843 8.05232 13.0332 6.72901 13.9154L6.41603 14.124C6.07138 14.3538 5.60573 14.2607 5.37596 13.916C5.1462 13.5714 5.23933 13.1057 5.58397 12.876L5.89696 12.6673C7.48316 11.6098 9.42103 11.2645 11.25 11.6794V11.1392L10.523 10.7402C8.84867 9.8213 6.87942 9.60018 5.04304 10.1249L4.70604 10.2211C4.30776 10.3349 3.89265 10.1043 3.77886 9.70604C3.66506 9.30777 3.89568 8.89265 4.29396 8.77886L4.63095 8.68257C6.84728 8.04934 9.22396 8.31621 11.2447 9.42523L11.25 9.42816V8.98165L10.6585 8.50117C9.98054 7.95046 9.20864 7.52678 8.38001 7.25057L8.26283 7.21151C7.86987 7.08053 7.6575 6.65579 7.78849 6.26283C7.91947 5.86987 8.34421 5.6575 8.73717 5.78849L8.85435 5.82755C9.71282 6.1137 10.5208 6.531 11.25 7.06385V6.03414L10.0393 5.09186C9.71247 4.83745 9.65373 4.36622 9.90814 4.03934C10.1626 3.71247 10.6338 3.65373 10.9607 3.90814L12 4.71708L13.0393 3.90814C13.3662 3.65373 13.8374 3.71247 14.0919 4.03934ZM12 17.3157L11.4993 20.1532C11.4443 20.4645 11.6838 20.75 12 20.75C12.3162 20.75 12.5557 20.4645 12.5007 20.1532L12 17.3157Z" fill="#2D2E2E"/>
</svg>
