<svg width="24" height="24" viewBox="0 0 24 24" fill="none" xmlns="http://www.w3.org/2000/svg">
<path fill-rule="evenodd" clip-rule="evenodd" d="M10 16.9178C10 17.5985 9.66598 18 9 18C8.34327 18 8 17.5985 8 16.9178V7.536C8 6.42764 8.47174 6 9.6742 6H12.8099C15.3443 6 17 7.51855 17 9.81382C17 12.1789 15.335 13.8246 12.7544 13.8246H10V16.9178ZM10 7.82897V12.0218H11.8479C14.0493 12.0218 15 11.4371 15 9.81382C15 8.42618 14.0586 7.82897 12.6064 7.82897H10Z" fill="#2D2E2E"/>
<path fill-rule="evenodd" clip-rule="evenodd" d="M4.5 1.75C2.98122 1.75 1.75 2.98122 1.75 4.5V19.5C1.75 21.0188 2.98122 22.25 4.5 22.25H19.5C21.0188 22.25 22.25 21.0188 22.25 19.5V4.5C22.25 2.98122 21.0188 1.75 19.5 1.75H4.5ZM3.25 4.5C3.25 3.80964 3.80964 3.25 4.5 3.25H19.5C20.1904 3.25 20.75 3.80964 20.75 4.5V19.5C20.75 20.1904 20.1904 20.75 19.5 20.75H4.5C3.80964 20.75 3.25 20.1904 3.25 19.5V4.5Z" fill="#2D2E2E"/>
</svg>
