<svg width="24" height="24" viewBox="0 0 24 24" fill="none" xmlns="http://www.w3.org/2000/svg">
<path d="M6.33301 14.2498C5.91879 14.2498 5.58301 14.5856 5.58301 14.9998C5.58301 15.4141 5.91879 15.7498 6.33301 15.7498H9.66634C10.0806 15.7498 10.4163 15.4141 10.4163 14.9998C10.4163 14.5856 10.0806 14.2498 9.66634 14.2498H6.33301Z" fill="#2D2E2E"/>
<path fill-rule="evenodd" clip-rule="evenodd" d="M2 8C2 6.34315 3.34315 5 5 5H19C20.6569 5 22 6.34315 22 8V16C22 17.6569 20.6569 19 19 19H5C3.34315 19 2 17.6569 2 16V8ZM5 6.5H19C19.8284 6.5 20.5 7.17157 20.5 8V8.75H3.5V8C3.5 7.17157 4.17157 6.5 5 6.5ZM3.5 16V11.75H20.5V16C20.5 16.8284 19.8284 17.5 19 17.5H5C4.17157 17.5 3.5 16.8284 3.5 16Z" fill="#2D2E2E"/>
</svg>
