<svg width="24" height="24" viewBox="0 0 24 24" fill="none" xmlns="http://www.w3.org/2000/svg">
<path fill-rule="evenodd" clip-rule="evenodd" d="M11.9997 5.24995C10.4809 5.24995 9.24967 6.48116 9.24967 7.99995C9.24967 9.51873 10.4809 10.7499 11.9997 10.7499C13.5185 10.7499 14.7497 9.51873 14.7497 7.99995C14.7497 6.48116 13.5185 5.24995 11.9997 5.24995ZM10.7497 7.99995C10.7497 7.30959 11.3093 6.74995 11.9997 6.74995C12.69 6.74995 13.2497 7.30959 13.2497 7.99995C13.2497 8.6903 12.69 9.24995 11.9997 9.24995C11.3093 9.24995 10.7497 8.6903 10.7497 7.99995Z" fill="#2D2E2E"/>
<path fill-rule="evenodd" clip-rule="evenodd" d="M8.94032 2.96092C10.8234 1.83106 13.1759 1.83106 15.059 2.96092C18.0354 4.74674 18.8559 8.6916 16.8384 11.5161L13.1648 16.6591C12.5938 17.4586 11.4056 17.4586 10.8346 16.6591L7.16097 11.5161C5.14347 8.6916 5.96394 4.74674 8.94032 2.96092ZM14.2873 4.24716C12.8792 3.40232 11.1201 3.40231 9.71206 4.24716C7.4865 5.58249 6.87299 8.53224 8.38156 10.6442L11.9997 15.7096L15.6178 10.6442C17.1264 8.53225 16.5128 5.5825 14.2873 4.24716Z" fill="#2D2E2E"/>
<path d="M5.22038 15.2499C5.11278 15.2499 5.01724 15.3188 4.98321 15.4209L3.64991 19.4209C3.59595 19.5828 3.71645 19.7499 3.88708 19.7499H20.1122C20.2829 19.7499 20.4034 19.5828 20.3494 19.4209L19.0161 15.4209C18.9821 15.3188 18.8865 15.2499 18.7789 15.2499H17.4997C17.0855 15.2499 16.7497 14.9142 16.7497 14.4999C16.7497 14.0857 17.0855 13.7499 17.4997 13.7499H18.7789C19.5322 13.7499 20.2009 14.2319 20.4391 14.9465L21.7724 18.9465C22.1502 20.0797 21.3067 21.2499 20.1122 21.2499H3.88708C2.69261 21.2499 1.84917 20.0797 2.22688 18.9466L3.56018 14.9466C3.79838 14.232 4.46713 13.7499 5.22038 13.7499H6.49967C6.91388 13.7499 7.24967 14.0857 7.24967 14.4999C7.24967 14.9142 6.91388 15.2499 6.49967 15.2499H5.22038Z" fill="#2D2E2E"/>
</svg>
