<svg width="24" height="24" viewBox="0 0 24 24" fill="none" xmlns="http://www.w3.org/2000/svg">
<path fill-rule="evenodd" clip-rule="evenodd" d="M11.9999 3C14.3723 3 16 4.67482 16 7C16 9.32517 14.3723 12 11.9999 12C9.62759 12 7.99995 9.32517 7.99995 7C7.99995 4.67482 9.62759 3 11.9999 3ZM11.9999 4.5C12.8221 4.5 13.4271 4.78353 13.8245 5.18428C14.2238 5.58693 14.5 6.19523 14.5 7C14.5 7.8418 14.1958 8.78143 13.6799 9.48495C13.1684 10.1826 12.5733 10.5 11.9999 10.5C11.4266 10.5 10.8315 10.1826 10.32 9.48495C9.80411 8.78143 9.49995 7.8418 9.49995 7C9.49995 6.19523 9.7761 5.58692 10.1754 5.18428C10.5728 4.78353 11.1778 4.5 11.9999 4.5Z" fill="#2D2E2E"/>
<path fill-rule="evenodd" clip-rule="evenodd" d="M18.3383 20.0985C19.8828 19.6351 20.2818 17.6255 19.0227 16.6182L18.2469 15.9976C14.5947 13.0758 9.40518 13.0758 5.753 15.9976L4.97721 16.6182C3.71809 17.6255 4.11711 19.6351 5.66157 20.0985C9.78522 21.3356 14.2147 21.3356 18.3383 20.0985ZM17.3099 17.1689L18.0857 17.7895C18.3897 18.0327 18.3066 18.542 17.9073 18.6617C14.0648 19.8145 9.93508 19.8145 6.09259 18.6617C5.69329 18.542 5.6102 18.0327 5.91425 17.7895L6.69004 17.1689C9.7944 14.6854 14.2055 14.6854 17.3099 17.1689Z" fill="#2D2E2E"/>
</svg>
