<svg width="24" height="24" viewBox="0 0 24 24" fill="none" xmlns="http://www.w3.org/2000/svg">
<path d="M15.0001 8.25C15.4143 8.25 15.7501 7.91421 15.7501 7.5C15.7501 7.08579 15.4143 6.75 15.0001 6.75L9.00012 6.75C8.58591 6.75 8.25012 7.08579 8.25012 7.5C8.25012 7.91421 8.58591 8.25 9.00012 8.25L15.0001 8.25Z" fill="#2D2E2E"/>
<path d="M15.7501 10.5C15.7501 10.9142 15.4143 11.25 15.0001 11.25H9.00012C8.58591 11.25 8.25012 10.9142 8.25012 10.5C8.25012 10.0858 8.58591 9.75 9.00012 9.75L15.0001 9.75C15.4143 9.75 15.7501 10.0858 15.7501 10.5Z" fill="#2D2E2E"/>
<path d="M15 12.75H13.0001C12.5858 12.75 12.2501 13.0858 12.2501 13.5C12.2501 13.9142 12.5858 14.25 13.0001 14.25H15C15.4142 14.25 15.75 13.9142 15.75 13.5C15.75 13.0858 15.4142 12.75 15 12.75Z" fill="#2D2E2E"/>
<path fill-rule="evenodd" clip-rule="evenodd" d="M6.28571 2.25C5.16142 2.25 4.25 3.16142 4.25 4.28572V19.4286C4.25 21.1061 6.16513 22.0637 7.50714 21.0571L8.72227 20.1458C8.90398 20.0095 9.15187 20.0026 9.34086 20.1286L10.8708 21.1486C11.5546 21.6044 12.4454 21.6044 13.1292 21.1486L14.6591 20.1286C14.8481 20.0026 15.096 20.0095 15.2777 20.1458L16.4929 21.0571C17.8349 22.0637 19.75 21.1061 19.75 19.4286V4.28571C19.75 3.16142 18.8386 2.25 17.7143 2.25H6.28571ZM5.75 4.28572C5.75 3.98985 5.98985 3.75 6.28571 3.75H17.7143C18.0102 3.75 18.25 3.98985 18.25 4.28571V19.4286C18.25 19.87 17.746 20.122 17.3929 19.8571L16.1777 18.9458C15.4872 18.4279 14.5452 18.4018 13.8271 18.8806L12.2972 19.9005C12.1172 20.0205 11.8828 20.0205 11.7028 19.9005L10.1729 18.8806C9.45476 18.4018 8.51276 18.4279 7.82227 18.9458L6.60714 19.8571C6.25398 20.122 5.75 19.87 5.75 19.4286V4.28572Z" fill="#2D2E2E"/>
</svg>
