<svg width="24" height="24" viewBox="0 0 24 24" fill="none" xmlns="http://www.w3.org/2000/svg">
<path d="M15.5303 8.53036C15.8232 8.23747 15.8232 7.76259 15.5303 7.4697C15.2374 7.17681 14.7626 7.17681 14.4697 7.4697L8.46967 13.4697C8.17678 13.7626 8.17678 14.2375 8.46967 14.5304C8.76256 14.8233 9.23744 14.8233 9.53033 14.5304L15.5303 8.53036Z" fill="#2D2E2E"/>
<path d="M9.5 7.50003C8.94772 7.50003 8.5 7.94775 8.5 8.50003C8.5 9.05232 8.94772 9.50003 9.5 9.50003C10.0523 9.50003 10.5 9.05232 10.5 8.50003C10.5 7.94775 10.0523 7.50003 9.5 7.50003Z" fill="#2D2E2E"/>
<path d="M13.5 13.5C13.5 12.9477 13.9477 12.5 14.5 12.5C15.0523 12.5 15.5 12.9477 15.5 13.5C15.5 14.0523 15.0523 14.5 14.5 14.5C13.9477 14.5 13.5 14.0523 13.5 13.5Z" fill="#2D2E2E"/>
<path fill-rule="evenodd" clip-rule="evenodd" d="M4 4C4 2.89543 4.89543 2 6 2H18C19.1046 2 20 2.89543 20 4V21.3964C20 21.6192 19.7307 21.7307 19.5732 21.5732L18.3536 20.3536C18.1583 20.1583 17.8417 20.1583 17.6464 20.3536L16.3536 21.6464C16.1583 21.8417 15.8417 21.8417 15.6464 21.6464L14.3536 20.3536C14.1583 20.1583 13.8417 20.1583 13.6464 20.3536L12.3536 21.6464C12.1583 21.8417 11.8417 21.8417 11.6464 21.6464L10.3536 20.3536C10.1583 20.1583 9.84171 20.1583 9.64645 20.3536L8.35355 21.6464C8.15829 21.8417 7.84171 21.8417 7.64645 21.6464L6.35355 20.3536C6.15829 20.1583 5.84171 20.1583 5.64645 20.3536L4.42678 21.5732C4.26929 21.7307 4 21.6192 4 21.3964V4ZM8.58579 19.2929L8 19.8787L7.41421 19.2929C6.89543 18.7741 6.16256 18.5999 5.5 18.7703V4C5.5 3.72386 5.72386 3.5 6 3.5H18C18.2761 3.5 18.5 3.72386 18.5 4V18.7703C17.8374 18.5999 17.1046 18.7741 16.5858 19.2929L16 19.8787L15.4142 19.2929C14.6332 18.5118 13.3668 18.5118 12.5858 19.2929L12 19.8787L11.4142 19.2929C10.6332 18.5118 9.36684 18.5118 8.58579 19.2929Z" fill="#2D2E2E"/>
</svg>
