<svg width="24" height="24" viewBox="0 0 24 24" fill="none" xmlns="http://www.w3.org/2000/svg">
<path d="M10.9697 1.96965C11.2626 1.67677 11.7375 1.67678 12.0303 1.96969L14.0302 3.96969C14.3231 4.26258 14.3231 4.73743 14.0302 5.03032L12.0303 7.03031C11.7375 7.32322 11.2626 7.32323 10.9697 7.03035C10.6768 6.73746 10.6768 6.26259 10.9697 5.96969L11.6813 5.25799C8.18413 5.43337 5.25024 8.47091 5.25024 12C5.25024 13.9092 6.17317 15.7291 7.50598 16.9462C7.81186 17.2255 7.83339 17.6999 7.55407 18.0057C7.27476 18.3116 6.80038 18.3331 6.4945 18.0538C4.89025 16.5889 3.75024 14.3816 3.75024 12C3.75024 7.63775 7.36484 3.92343 11.6952 3.7559L10.9697 3.03031C10.6768 2.73741 10.6768 2.26254 10.9697 1.96965Z" fill="#2D2E2E"/>
<path d="M20.25 12.0001C20.25 9.61829 19.1103 7.41126 17.5057 5.94625C17.1998 5.66696 16.7254 5.68853 16.4461 5.99443C16.1668 6.30033 16.1884 6.77471 16.4943 7.054C17.8273 8.27104 18.75 10.0907 18.75 12.0001C18.75 15.5293 15.816 18.5668 12.3188 18.7421L13.0305 18.0305C13.3234 17.7376 13.3235 17.2628 13.0306 16.9698C12.7377 16.6769 12.2629 16.6769 11.97 16.9697L9.96971 18.9697C9.82904 19.1103 9.75 19.3011 9.75 19.5C9.75 19.6989 9.82902 19.8897 9.96969 20.0304L11.9699 22.0305C12.2628 22.3234 12.7377 22.3233 13.0306 22.0304C13.3235 21.7375 13.3235 21.2627 13.0306 20.9698L12.305 20.2442C16.6353 20.0767 20.25 16.3624 20.25 12.0001Z" fill="#2D2E2E"/>
</svg>
