<svg width="24" height="24" viewBox="0 0 24 24" fill="none" xmlns="http://www.w3.org/2000/svg">
<path d="M3.5 10.25C3.08579 10.25 2.75 9.91421 2.75 9.5V7C2.75 4.92893 4.42893 3.25 6.5 3.25H7.5C7.91421 3.25 8.25 3.58579 8.25 4C8.25 4.41421 7.91421 4.75 7.5 4.75H6.5C5.25736 4.75 4.25 5.75736 4.25 7V9.5C4.25 9.91421 3.91421 10.25 3.5 10.25Z" fill="#2D2E2E"/>
<path d="M21.5 12.8291C21.9142 12.8291 22.25 13.1649 22.25 13.5791C22.25 13.9933 21.9142 14.3291 21.5 14.3291H21.25V17.5C21.25 19.5711 19.5711 21.25 17.5 21.25H16.5C16.0858 21.25 15.75 20.9142 15.75 20.5C15.75 20.0858 16.0858 19.75 16.5 19.75H17.5C18.7426 19.75 19.75 18.7426 19.75 17.5V14.3291H4.25V17.5C4.25 18.7426 5.25736 19.75 6.5 19.75H7.5C7.91421 19.75 8.25 20.0858 8.25 20.5C8.25 20.9142 7.91421 21.25 7.5 21.25H6.5C4.42893 21.25 2.75 19.5711 2.75 17.5V14.3291H2.5C2.08579 14.3291 1.75 13.9933 1.75 13.5791C1.75 13.1649 2.08579 12.8291 2.5 12.8291H21.5Z" fill="#2D2E2E"/>
<path d="M20.5 10.25C20.9142 10.25 21.25 9.91421 21.25 9.5V7C21.25 4.92893 19.5711 3.25 17.5 3.25H16.5C16.0858 3.25 15.75 3.58579 15.75 4C15.75 4.41421 16.0858 4.75 16.5 4.75H17.5C18.7426 4.75 19.75 5.75736 19.75 7V9.5C19.75 9.91421 20.0858 10.25 20.5 10.25Z" fill="#2D2E2E"/>
<path fill-rule="evenodd" clip-rule="evenodd" d="M6.5 6.25C6.08579 6.25 5.75 6.58579 5.75 7V11C5.75 11.4142 6.08579 11.75 6.5 11.75H10.5C10.9142 11.75 11.25 11.4142 11.25 11V7C11.25 6.58579 10.9142 6.25 10.5 6.25H6.5ZM7.25 10.25V7.75H9.75V10.25H7.25Z" fill="#2D2E2E"/>
<path d="M13.5 15.25C13.9142 15.25 14.25 15.5858 14.25 16V16.75H16.75V16C16.75 15.5858 17.0858 15.25 17.5 15.25C17.9142 15.25 18.25 15.5858 18.25 16V17.5C18.25 17.9142 17.9142 18.25 17.5 18.25H13.5C13.0858 18.25 12.75 17.9142 12.75 17.5V16C12.75 15.5858 13.0858 15.25 13.5 15.25Z" fill="#2D2E2E"/>
<path d="M7 15.25C6.58579 15.25 6.25 15.5858 6.25 16C6.25 16.4142 6.58579 16.75 7 16.75H8C8.41421 16.75 8.75 16.4142 8.75 16C8.75 15.5858 8.41421 15.25 8 15.25H7Z" fill="#2D2E2E"/>
<path d="M10.5 15.25C10.9142 15.25 11.25 15.5858 11.25 16V18.5C11.25 18.9142 10.9142 19.25 10.5 19.25H9.5C9.08579 19.25 8.75 18.9142 8.75 18.5C8.75 18.0858 9.08579 17.75 9.5 17.75H9.75V16C9.75 15.5858 10.0858 15.25 10.5 15.25Z" fill="#2D2E2E"/>
<path d="M17.75 7C17.75 6.58579 17.4142 6.25 17 6.25C16.5858 6.25 16.25 6.58579 16.25 7V7.5C16.25 7.91421 16.5858 8.25 17 8.25C17.4142 8.25 17.75 7.91421 17.75 7.5V7Z" fill="#2D2E2E"/>
<path d="M13 9.75C13.4142 9.75 13.75 10.0858 13.75 10.5V11C13.75 11.4142 13.4142 11.75 13 11.75C12.5858 11.75 12.25 11.4142 12.25 11V10.5C12.25 10.0858 12.5858 9.75 13 9.75Z" fill="#2D2E2E"/>
<path d="M14.5 8.25C14.0858 8.25 13.75 8.58579 13.75 9C13.75 9.41421 14.0858 9.75 14.5 9.75H15.5C15.9142 9.75 16.25 9.41421 16.25 9C16.25 8.58579 15.9142 8.25 15.5 8.25H14.5Z" fill="#2D2E2E"/>
<path d="M13 6.25C13.4142 6.25 13.75 6.58579 13.75 7V7.5C13.75 7.91421 13.4142 8.25 13 8.25C12.5858 8.25 12.25 7.91421 12.25 7.5V7C12.25 6.58579 12.5858 6.25 13 6.25Z" fill="#2D2E2E"/>
<path d="M17.75 10.5C17.75 10.0858 17.4142 9.75 17 9.75C16.5858 9.75 16.25 10.0858 16.25 10.5V11C16.25 11.4142 16.5858 11.75 17 11.75C17.4142 11.75 17.75 11.4142 17.75 11V10.5Z" fill="#2D2E2E"/>
</svg>
