<svg width="24" height="24" viewBox="0 0 24 24" fill="none" xmlns="http://www.w3.org/2000/svg">
<path d="M10.7578 12.7568C10.3436 12.7568 10.0078 12.421 10.0078 12.0068V11.2863C10.0078 10.872 10.3436 10.5363 10.7578 10.5363C11.172 10.5363 11.5078 10.872 11.5078 11.2863V12.0068C11.5078 12.421 11.172 12.7568 10.7578 12.7568Z" fill="#2D2E2E"/>
<path d="M12.4922 12.0068C12.4922 12.421 12.828 12.7568 13.2422 12.7568C13.6564 12.7568 13.9922 12.421 13.9922 12.0068V11.2863C13.9922 10.872 13.6564 10.5363 13.2422 10.5363C12.828 10.5363 12.4922 10.872 12.4922 11.2863V12.0068Z" fill="#2D2E2E"/>
<path d="M10.7578 15.9675C10.3436 15.9675 10.0078 15.6317 10.0078 15.2175V14.4969C10.0078 14.0827 10.3436 13.7469 10.7578 13.7469C11.172 13.7469 11.5078 14.0827 11.5078 14.4969V15.2175C11.5078 15.6317 11.172 15.9675 10.7578 15.9675Z" fill="#2D2E2E"/>
<path d="M12.4922 15.2175C12.4922 15.6317 12.828 15.9675 13.2422 15.9675C13.6564 15.9675 13.9922 15.6317 13.9922 15.2175V14.4969C13.9922 14.0827 13.6564 13.7469 13.2422 13.7469C12.828 13.7469 12.4922 14.0827 12.4922 14.4969V15.2175Z" fill="#2D2E2E"/>
<path fill-rule="evenodd" clip-rule="evenodd" d="M12.75 2.72546C12.75 2.31125 12.4142 1.97546 12 1.97546C11.5858 1.97546 11.25 2.31125 11.25 2.72546L11.25 8.04578H9.25781C8.29131 8.04578 7.50781 8.82928 7.50781 9.79578V13.8895H5.77344C4.80694 13.8895 4.02344 14.673 4.02344 15.6395V22.0245H19.9766V15.6395C19.9766 14.673 19.1931 13.8895 18.2266 13.8895H16.4922V9.79578C16.4922 8.82928 15.7087 8.04578 14.7422 8.04578H12.75V7.03015H17.4453V3.01453H12.75V2.72546ZM12.75 4.51453V5.53015H15.9453V4.51453H12.75ZM9.25781 9.54578C9.11974 9.54578 9.00781 9.65771 9.00781 9.79578V20.5245H10.0078V18.1395C10.0078 17.4492 10.5675 16.8895 11.2578 16.8895H12.7422C13.4325 16.8895 13.9922 17.4492 13.9922 18.1395V20.5245H14.9922V9.79578C14.9922 9.65771 14.8803 9.54578 14.7422 9.54578H9.25781ZM5.77344 15.3895H7.50781V20.5245H5.52344V15.6395C5.52344 15.5015 5.63537 15.3895 5.77344 15.3895ZM16.4922 15.3895V20.5245H18.4766V15.6395C18.4766 15.5015 18.3646 15.3895 18.2266 15.3895H16.4922ZM12.4922 20.5245V18.3895H11.5078V20.5245H12.4922Z" fill="#2D2E2E"/>
</svg>
