<svg width="24" height="24" viewBox="0 0 24 24" fill="none" xmlns="http://www.w3.org/2000/svg">
<path fill-rule="evenodd" clip-rule="evenodd" d="M9.69281 2.71295C9.53443 2.33021 9.09578 2.14832 8.71303 2.30669C8.33029 2.46506 8.1484 2.90372 8.30678 3.28647L13.5316 15.9136C12.7527 16.5073 12.25 17.4449 12.25 18.4999C12.25 20.2949 13.7051 21.7499 15.5 21.7499C17.2949 21.7499 18.75 20.2949 18.75 18.4999C18.75 16.705 17.2949 15.2499 15.5 15.2499C15.2961 15.2499 15.0965 15.2687 14.903 15.3046L12.7904 10.1991L15.6255 3.28506C15.7827 2.90181 15.5994 2.46373 15.2162 2.30658C14.8329 2.14944 14.3948 2.33272 14.2377 2.71597L11.9762 8.23122L9.69281 2.71295ZM13.75 18.4999C13.75 17.5334 14.5335 16.7499 15.5 16.7499C16.4665 16.7499 17.25 17.5334 17.25 18.4999C17.25 19.4664 16.4665 20.2499 15.5 20.2499C14.5335 20.2499 13.75 19.4664 13.75 18.4999Z" fill="#2D2E2E"/>
<path fill-rule="evenodd" clip-rule="evenodd" d="M9.81064 13.4545C9.9738 13.0738 10.4147 12.8974 10.7954 13.0606C11.1762 13.2238 11.3525 13.6647 11.1894 14.0454L10.275 16.1789C10.8767 16.7688 11.25 17.5908 11.25 18.4999C11.25 20.2949 9.79493 21.7499 8 21.7499C6.20507 21.7499 4.75 20.2949 4.75 18.4999C4.75 16.705 6.20507 15.2499 8 15.2499C8.34047 15.2499 8.66872 15.3023 8.97712 15.3994L9.81064 13.4545ZM8 16.7499C7.0335 16.7499 6.25 17.5334 6.25 18.4999C6.25 19.4664 7.0335 20.2499 8 20.2499C8.9665 20.2499 9.75 19.4664 9.75 18.4999C9.75 17.5334 8.9665 16.7499 8 16.7499Z" fill="#2D2E2E"/>
</svg>
