<svg width="24" height="24" viewBox="0 0 24 24" fill="none" xmlns="http://www.w3.org/2000/svg">
<path d="M9.0342 3.33993C9.97448 2.95046 10.9823 2.75 12 2.75C13.0177 2.75 14.0255 2.95046 14.9658 3.33993C15.9061 3.72941 16.7604 4.30027 17.4801 5.01992C18.1997 5.73958 18.7706 6.59393 19.1601 7.5342C19.5495 8.47448 19.75 9.48226 19.75 10.5C19.75 10.9142 19.4142 11.25 19 11.25C18.5858 11.25 18.25 10.9142 18.25 10.5C18.25 9.67924 18.0883 8.86651 17.7742 8.10823C17.4602 7.34994 16.9998 6.66095 16.4194 6.08058C15.8391 5.50022 15.1501 5.03984 14.3918 4.72575C13.6335 4.41166 12.8208 4.25 12 4.25C11.1792 4.25 10.3665 4.41166 9.60823 4.72575C8.84994 5.03984 8.16095 5.50022 7.58058 6.08058C7.00022 6.66095 6.53984 7.34994 6.22575 8.10823C5.91166 8.86651 5.75 9.67924 5.75 10.5C5.75 10.9142 5.41421 11.25 5 11.25C4.58579 11.25 4.25 10.9142 4.25 10.5C4.25 9.48226 4.45046 8.47448 4.83993 7.5342C5.22941 6.59393 5.80027 5.73958 6.51992 5.01992C7.23958 4.30027 8.09393 3.72941 9.0342 3.33993Z" fill="#2D2E2E"/>
<path d="M17.0632 12.0047C16.9096 11.8302 16.6836 11.7366 16.4516 11.7516C16.2197 11.7666 16.0078 11.8882 15.878 12.081L15.8757 12.0843L15.8624 12.1035C15.8498 12.1214 15.83 12.1494 15.8032 12.186C15.7496 12.2593 15.6686 12.3665 15.5633 12.4965C15.3517 12.7575 15.0467 13.104 14.6728 13.4482C13.8981 14.1614 12.952 14.75 12 14.75C11.0475 14.75 10.1014 14.1613 9.32687 13.4482C8.95306 13.1041 8.64817 12.7576 8.43667 12.4966C8.33139 12.3666 8.25044 12.2594 8.19686 12.1861C8.1701 12.1495 8.15026 12.1216 8.1377 12.1036L8.12442 12.0845L8.12241 12.0815C7.98301 11.8748 7.74942 11.75 7.5 11.75C7.2504 11.75 7.01716 11.8742 6.87781 12.0812L6.87558 12.0845L6.8623 12.1036C6.84974 12.1216 6.8299 12.1495 6.80314 12.1861C6.74956 12.2594 6.66861 12.3666 6.56333 12.4966C6.35183 12.7576 6.04694 13.1041 5.67313 13.4482C4.89861 14.1613 3.95251 14.75 3 14.75C2.58579 14.75 2.25 15.0858 2.25 15.5C2.25 15.9142 2.58579 16.25 3 16.25C4.53049 16.25 5.83439 15.3387 6.68912 14.5518C7.0074 14.2587 7.2807 13.9669 7.5 13.7138C7.7193 13.9669 7.9926 14.2587 8.31088 14.5518C9.16561 15.3387 10.4695 16.25 12 16.25C13.53 16.25 14.8339 15.3386 15.6887 14.5518C16.0357 14.2324 16.3292 13.9144 16.5577 13.6465C16.8292 13.9163 17.177 14.2445 17.5692 14.5741C18.0359 14.9665 18.5815 15.3744 19.1487 15.6877C19.7035 15.9942 20.3496 16.25 21 16.25C21.4142 16.25 21.75 15.9142 21.75 15.5C21.75 15.0858 21.4142 14.75 21 14.75C20.7194 14.75 20.3375 14.6308 19.874 14.3748C19.4229 14.1256 18.9598 13.7835 18.5343 13.4259C18.1115 13.0704 17.7413 12.7128 17.4762 12.443C17.3441 12.3086 17.2391 12.1971 17.1679 12.12C17.1324 12.0815 17.1053 12.0517 17.0875 12.032L17.0681 12.0102L17.0632 12.0047Z" fill="#2D2E2E"/>
<path d="M17.0632 17.0047C16.9096 16.8302 16.6836 16.7366 16.4516 16.7516C16.2197 16.7666 16.0078 16.8882 15.878 17.081L15.8757 17.0843L15.8624 17.1035C15.8498 17.1214 15.83 17.1494 15.8032 17.186C15.7496 17.2593 15.6686 17.3665 15.5633 17.4965C15.3517 17.7575 15.0467 18.104 14.6728 18.4482C13.8981 19.1614 12.952 19.75 12 19.75C11.0475 19.75 10.1014 19.1613 9.32687 18.4482C8.95306 18.1041 8.64817 17.7576 8.43667 17.4966C8.33139 17.3666 8.25044 17.2594 8.19686 17.1861C8.1701 17.1495 8.15026 17.1216 8.1377 17.1036L8.12442 17.0845L8.12241 17.0815C7.98301 16.8748 7.74942 16.75 7.5 16.75C7.2504 16.75 7.01716 16.8742 6.87781 17.0812L6.87558 17.0845L6.8623 17.1036C6.84974 17.1216 6.8299 17.1495 6.80314 17.1861C6.74956 17.2594 6.66861 17.3666 6.56333 17.4966C6.35183 17.7576 6.04694 18.1041 5.67313 18.4482C4.89861 19.1613 3.95251 19.75 3 19.75C2.58579 19.75 2.25 20.0858 2.25 20.5C2.25 20.9142 2.58579 21.25 3 21.25C4.53049 21.25 5.83439 20.3387 6.68912 19.5518C7.0074 19.2587 7.2807 18.9669 7.5 18.7138C7.7193 18.9669 7.9926 19.2587 8.31088 19.5518C9.16561 20.3387 10.4695 21.25 12 21.25C13.53 21.25 14.8339 20.3386 15.6887 19.5518C16.0357 19.2324 16.3292 18.9144 16.5577 18.6465C16.8292 18.9163 17.177 19.2445 17.5692 19.5741C18.0359 19.9665 18.5815 20.3744 19.1487 20.6877C19.7035 20.9942 20.3496 21.25 21 21.25C21.4142 21.25 21.75 20.9142 21.75 20.5C21.75 20.0858 21.4142 19.75 21 19.75C20.7194 19.75 20.3375 19.6308 19.874 19.3748C19.4229 19.1256 18.9598 18.7835 18.5343 18.4259C18.1115 18.0704 17.7413 17.7128 17.4762 17.443C17.3441 17.3086 17.2391 17.1971 17.1679 17.12C17.1324 17.0815 17.1053 17.0517 17.0875 17.032L17.0681 17.0102L17.0632 17.0047Z" fill="#2D2E2E"/>
</svg>
