<svg width="24" height="24" viewBox="0 0 24 24" fill="none" xmlns="http://www.w3.org/2000/svg">
<path fill-rule="evenodd" clip-rule="evenodd" d="M16.1625 15.1017C17.3101 13.717 18 11.939 18 10C18 5.58172 14.4183 2 10 2C5.58172 2 2 5.58172 2 10C2 14.4183 5.58172 18 10 18C11.9391 18 13.7171 17.3101 15.1018 16.1624L19.9697 21.0302C20.2626 21.3231 20.7374 21.3231 21.0303 21.0302C21.3232 20.7373 21.3232 20.2624 21.0303 19.9695L16.1625 15.1017ZM16.5 10C16.5 13.5899 13.5899 16.5 10 16.5C6.41015 16.5 3.5 13.5899 3.5 10C3.5 6.41015 6.41015 3.5 10 3.5C13.5899 3.5 16.5 6.41015 16.5 10Z" fill="#2D2E2E"/>
</svg>
