<svg width="24" height="24" viewBox="0 0 24 24" fill="none" xmlns="http://www.w3.org/2000/svg">
<path fill-rule="evenodd" clip-rule="evenodd" d="M21.2664 5.80396C21.5919 5.29123 21.5762 4.6328 21.2264 4.13624C20.8767 3.63968 20.2621 3.40301 19.6697 3.53679L3.66967 7.14969C3.07668 7.28359 2.62315 7.76215 2.52127 8.36147C2.41939 8.96078 2.68931 9.56233 3.20474 9.88465L7.53808 12.5945C7.92678 12.8376 8.4053 12.8895 8.83713 12.7356L9.32999 12.5599L9.01734 12.8931C8.68679 13.2453 8.54612 13.7352 8.63941 14.2092L9.63941 19.2896C9.75792 19.8917 10.2312 20.3609 10.8343 20.4742C11.4373 20.5874 12.0486 20.322 12.3775 19.804L21.2664 5.80396ZM14.6667 9.06469L8.33339 11.3227L4.00006 8.61285L20.0001 4.99995L11.1112 18.9999L10.1112 13.9195L14.6667 9.06469Z" fill="#2D2E2E"/>
</svg>
