<svg width="24" height="24" viewBox="0 0 24 24" fill="none" xmlns="http://www.w3.org/2000/svg">
<path fill-rule="evenodd" clip-rule="evenodd" d="M6.75 3C5.23122 3 4 4.23122 4 5.75V11.2741C4 14.4797 5.57571 17.4805 8.2146 19.3004L10.4387 20.8343C11.3787 21.4825 12.6213 21.4825 13.5613 20.8343L15.7854 19.3004C18.4243 17.4805 20 14.4797 20 11.2741V5.75C20 4.23122 18.7688 3 17.25 3H6.75ZM17.25 4.5C17.9404 4.5 18.5 5.05964 18.5 5.75V11.2741C18.5 13.9866 17.1667 16.5257 14.9338 18.0656L12.7097 19.5995C12.2824 19.8942 11.7176 19.8942 11.2903 19.5995L9.0662 18.0656C6.83329 16.5257 5.5 13.9866 5.5 11.2741V5.75C5.5 5.05964 6.05964 4.5 6.75 4.5C16.433 4.5 7.22867 4.5 17.25 4.5Z" fill="#2D2E2E"/>
</svg>
