<svg width="24" height="24" viewBox="0 0 24 24" fill="none" xmlns="http://www.w3.org/2000/svg">
<path fill-rule="evenodd" clip-rule="evenodd" d="M3.57965 5.59752C3.82738 4.65613 4.67853 3.99999 5.65197 4L18.3481 4.00007C19.3216 4.00008 20.1727 4.65621 20.4204 5.5976L21.9034 11.2329C22.1275 12.0847 21.2206 12.7893 20.4506 12.3615L20.2501 12.2501V19.5C20.2501 20.4665 19.4666 21.25 18.5001 21.25H5.50009C4.5336 21.25 3.75009 20.4665 3.75009 19.5V12.25L3.54941 12.3615C2.77943 12.7893 1.87252 12.0847 2.09668 11.2329L3.57965 5.59752ZM5.65196 5.42857L18.3481 5.42864C18.6726 5.42865 18.9563 5.64736 19.0389 5.96115L20.2661 10.6247L19.7599 10.3435C18.6377 9.71999 17.2611 9.7757 16.1929 10.4879L15.317 11.0718C15.1251 11.1998 14.875 11.1998 14.6831 11.0718L13.9019 10.551C12.7503 9.7832 11.2498 9.7832 10.0982 10.551L9.31703 11.0718C9.12509 11.1998 8.87502 11.1998 8.68307 11.0718L7.8072 10.4879C6.73901 9.7757 5.36246 9.71998 4.2402 10.3435L3.73392 10.6248L4.96119 5.96108C5.04377 5.64728 5.32748 5.42857 5.65196 5.42857ZM5.24854 11.4514C5.24957 11.4675 5.25009 11.4837 5.25009 11.5V19.5C5.25009 19.6381 5.36202 19.75 5.50009 19.75H6.75005V16.5C6.75005 15.5335 7.53355 14.75 8.50005 14.75H10.5001C11.4665 14.75 12.2501 15.5335 12.2501 16.5V19.75H18.5001C18.6382 19.75 18.7501 19.6381 18.7501 19.5V11.5C18.7501 11.4837 18.7506 11.4675 18.7516 11.4515C18.1664 11.2479 17.5117 11.3256 16.9853 11.6765L16.1095 12.2604C15.4377 12.7083 14.5624 12.7083 13.8906 12.2604L13.1095 11.7396C12.4377 11.2918 11.5624 11.2918 10.8906 11.7396L10.1095 12.2604C9.43767 12.7083 8.56243 12.7083 7.89062 12.2604L7.01475 11.6765C6.48842 11.3256 5.83375 11.2479 5.24854 11.4514ZM10.7501 19.75H8.25005V16.5C8.25005 16.3619 8.36198 16.25 8.50005 16.25H10.5001C10.6381 16.25 10.7501 16.3619 10.7501 16.5V19.75Z" fill="#2D2E2E"/>
</svg>
