<svg width="24" height="24" viewBox="0 0 24 24" fill="none" xmlns="http://www.w3.org/2000/svg">
<path fill-rule="evenodd" clip-rule="evenodd" d="M8.99997 12C8.99997 10.3431 10.3431 8.99999 12 8.99999C13.6568 8.99999 15 10.3431 15 12C15 13.6568 13.6568 15 12 15C10.3431 15 8.99997 13.6568 8.99997 12ZM12 13.5C11.1715 13.5 10.5 12.8284 10.5 12C10.5 11.1716 11.1715 10.5 12 10.5C12.8284 10.5 13.5 11.1716 13.5 12C13.5 12.8284 12.8284 13.5 12 13.5Z" fill="#2D2E2E"/>
<path fill-rule="evenodd" clip-rule="evenodd" d="M2.70708 12.7071C2.31655 12.3166 2.31655 11.6834 2.70708 11.2929L5.63601 8.36394C9.15073 4.84922 14.8492 4.84923 18.3639 8.36395L21.2929 11.2929C21.6834 11.6834 21.6834 12.3166 21.2929 12.7071L18.3639 15.636C14.8492 19.1507 9.15073 19.1507 5.63601 15.636L2.70708 12.7071ZM6.69667 14.5754L4.12129 12L6.69668 9.4246C9.62561 6.49567 14.3743 6.49567 17.3033 9.42461L19.8787 12L17.3033 14.5754C14.3743 17.5043 9.6256 17.5043 6.69667 14.5754Z" fill="#2D2E2E"/>
</svg>
