<svg width="24" height="24" viewBox="0 0 24 24" fill="none" xmlns="http://www.w3.org/2000/svg">
<path d="M3.93762 4C3.93762 3.58579 4.27341 3.25 4.68762 3.25H19.3126C19.7268 3.25 20.0626 3.58579 20.0626 4C20.0626 4.41421 19.7268 4.75 19.3126 4.75H4.68762C4.27341 4.75 3.93762 4.41421 3.93762 4Z" fill="#2D2E2E"/>
<path fill-rule="evenodd" clip-rule="evenodd" d="M5 7C3.89543 7 3 7.89543 3 9V11C3 12.1046 3.89543 13 5 13H19C20.1046 13 21 12.1046 21 11V9C21 7.89543 20.1046 7 19 7H5ZM19 8.5H5C4.72386 8.5 4.5 8.72386 4.5 9V11C4.5 11.2761 4.72386 11.5 5 11.5H19C19.2761 11.5 19.5 11.2761 19.5 11V9C19.5 8.72386 19.2761 8.5 19 8.5Z" fill="#2D2E2E"/>
<path fill-rule="evenodd" clip-rule="evenodd" d="M3 16C3 14.8954 3.89543 14 5 14H19C20.1046 14 21 14.8954 21 16V18C21 19.1046 20.1046 20 19 20H5C3.89543 20 3 19.1046 3 18V16ZM5 15.5H19C19.2761 15.5 19.5 15.7239 19.5 16V18C19.5 18.2761 19.2761 18.5 19 18.5H5C4.72386 18.5 4.5 18.2761 4.5 18V16C4.5 15.7239 4.72386 15.5 5 15.5Z" fill="#2D2E2E"/>
</svg>
