<svg width="24" height="24" viewBox="0 0 24 24" fill="none" xmlns="http://www.w3.org/2000/svg">
<path fill-rule="evenodd" clip-rule="evenodd" d="M16 2.25C16.3376 2.25 16.6336 2.47559 16.7232 2.80113L17.2752 4.80851C17.6387 6.13028 18.5047 7.25745 19.6883 7.94914L20.3784 8.35247C20.6085 8.48696 20.75 8.73347 20.75 9C20.75 9.26653 20.6085 9.51304 20.3784 9.64753L19.6883 10.0509C18.5047 10.7425 17.6387 11.8697 17.2752 13.1915L16.7232 15.1989C16.6336 15.5244 16.3376 15.75 16 15.75C15.6624 15.75 15.3664 15.5244 15.2768 15.1989L14.7248 13.1915C14.3613 11.8697 13.4953 10.7425 12.3117 10.0509L11.6216 9.64753C11.3915 9.51304 11.25 9.26653 11.25 9C11.25 8.73347 11.3915 8.48696 11.6216 8.35247L12.3117 7.94914C13.4953 7.25745 14.3613 6.13028 14.7248 4.80851L15.2768 2.80113C15.3664 2.47559 15.6624 2.25 16 2.25ZM16 5.74062C15.5142 7.0655 14.6244 8.20613 13.4557 9C14.6244 9.79387 15.5142 10.9345 16 12.2594C16.4858 10.9345 17.3756 9.79387 18.5443 9C17.3756 8.20613 16.4858 7.0655 16 5.74062Z" fill="#2D2E2E"/>
<path fill-rule="evenodd" clip-rule="evenodd" d="M5.5 3.25C5.85582 3.25 6.16266 3.50002 6.23454 3.8485L6.46146 4.94872C6.56946 5.47234 6.86038 5.9404 7.28211 6.26902L7.46099 6.4084C7.64336 6.55051 7.75 6.76879 7.75 7C7.75 7.23121 7.64336 7.44949 7.46099 7.5916L7.28212 7.73098C6.86039 8.0596 6.56946 8.52766 6.46146 9.05129L6.23454 10.1515C6.16266 10.5 5.85582 10.75 5.5 10.75C5.14418 10.75 4.83734 10.5 4.76546 10.1515L4.53854 9.05129C4.43054 8.52766 4.13961 8.0596 3.71788 7.73098L3.53901 7.5916C3.35664 7.44949 3.25 7.23121 3.25 7C3.25 6.76879 3.35664 6.55051 3.53901 6.4084L3.71788 6.26902C4.13962 5.9404 4.43054 5.47234 4.53854 4.94872L4.76546 3.8485C4.83734 3.50002 5.14418 3.25 5.5 3.25ZM5.5 6.50538C5.38904 6.68001 5.2636 6.8455 5.12484 7C5.2636 7.1545 5.38904 7.31999 5.5 7.49462C5.61096 7.31999 5.7364 7.1545 5.87516 7C5.7364 6.8455 5.61096 6.68001 5.5 6.50538Z" fill="#2D2E2E"/>
<path fill-rule="evenodd" clip-rule="evenodd" d="M9.72803 10.8198C9.64519 10.4851 9.34481 10.25 9 10.25C8.65519 10.25 8.35481 10.4851 8.27197 10.8198L7.84638 12.5394C7.58728 13.5862 6.93991 14.4954 6.03543 15.0827L5.59155 15.371C5.37854 15.5093 5.25 15.746 5.25 16C5.25 16.254 5.37854 16.4907 5.59155 16.629L6.03543 16.9173C6.93991 17.5046 7.58728 18.4138 7.84638 19.4606L8.27197 21.1802C8.35481 21.5149 8.65519 21.75 9 21.75C9.34481 21.75 9.64519 21.5149 9.72803 21.1802L10.1536 19.4606C10.4127 18.4138 11.0601 17.5046 11.9646 16.9173L12.4085 16.629C12.6215 16.4907 12.75 16.254 12.75 16C12.75 15.746 12.6215 15.5093 12.4085 15.371L11.9646 15.0827C11.0601 14.4954 10.4127 13.5862 10.1536 12.5394L9.72803 10.8198ZM7.32322 16C8.05452 15.4122 8.62958 14.6553 9 13.7972C9.37043 14.6553 9.94548 15.4122 10.6768 16C9.94548 16.5878 9.37043 17.3447 9 18.2028C8.62958 17.3447 8.05452 16.5878 7.32322 16Z" fill="#2D2E2E"/>
</svg>
