<svg width="24" height="24" viewBox="0 0 24 24" fill="none" xmlns="http://www.w3.org/2000/svg">
<path fill-rule="evenodd" clip-rule="evenodd" d="M16.9885 13.793L21.1847 9.77966C21.4982 9.47987 21.3074 8.95048 20.8748 8.91958L15.2946 8.52101C15.1129 8.50803 14.9526 8.39722 14.8762 8.2318L12.454 2.98359C12.2753 2.59629 11.7248 2.59629 11.5461 2.98358L9.12376 8.23181C9.04741 8.39723 8.88713 8.50803 8.70541 8.52101L3.09221 8.92194C2.66483 8.95247 2.47131 9.47126 2.77428 9.77422L6.79988 13.7998C6.92407 13.924 6.974 14.1042 6.9314 14.2746L5.28419 20.8632C5.17738 21.2904 5.635 21.6371 6.01733 21.4186L11.7519 18.1417C11.9056 18.0539 12.0943 18.0539 12.2481 18.1417L17.9439 21.3965C18.3318 21.6181 18.7935 21.2586 18.6737 20.8282L16.8524 14.2884C16.8029 14.1108 16.8552 13.9204 16.9885 13.793ZM13.5143 8.86038L12 5.57942L10.4857 8.86041C10.1803 9.52208 9.53918 9.96527 8.81228 10.0172L5.3835 10.2621L7.86053 12.7391C8.3573 13.2359 8.557 13.9569 8.38661 14.6384L7.30778 18.9536L11.0077 16.8394C11.6226 16.488 12.3774 16.488 12.9923 16.8394L16.576 18.8872L15.4074 14.6909C15.2095 13.9804 15.4187 13.2187 15.9517 12.7089L18.5175 10.255L15.1877 10.0172C14.4608 9.96527 13.8197 9.52206 13.5143 8.86038Z" fill="#2D2E2E"/>
</svg>
