<svg width="24" height="24" viewBox="0 0 24 24" fill="none" xmlns="http://www.w3.org/2000/svg">
<path d="M11.5 10.75C11.0858 10.75 10.75 11.0858 10.75 11.5C10.75 11.9142 11.0858 12.25 11.5 12.25H12.5C12.9142 12.25 13.25 11.9142 13.25 11.5C13.25 11.0858 12.9142 10.75 12.5 10.75H11.5Z" fill="#2D2E2E"/>
<path fill-rule="evenodd" clip-rule="evenodd" d="M8.25 6C8.25 4.48122 9.48122 3.25 11 3.25H13C14.5188 3.25 15.75 4.48122 15.75 6V6.25H18C20.0711 6.25 21.75 7.92893 21.75 10V11.9652C21.75 12.4046 21.5624 12.8126 21.25 13.0974V18.5C21.25 20.0188 20.0188 21.25 18.5 21.25H5.5C3.98122 21.25 2.75 20.0188 2.75 18.5V13.0974C2.43763 12.8126 2.25 12.4046 2.25 11.9652V10C2.25 7.92893 3.92893 6.25 6 6.25H8.25V6ZM4.25 13.7646C9.27645 15.4635 14.7235 15.4635 19.75 13.7646V18.5C19.75 19.1904 19.1904 19.75 18.5 19.75H5.5C4.80964 19.75 4.25 19.1904 4.25 18.5V13.7646ZM9.75 6.25H14.25V6C14.25 5.30964 13.6904 4.75 13 4.75H11C10.3096 4.75 9.75 5.30964 9.75 6V6.25ZM6 7.75C4.75736 7.75 3.75 8.75736 3.75 10V11.9652C3.75 11.9783 3.75807 11.9901 3.77032 11.9949C9.06368 14.0534 14.9363 14.0534 20.2297 11.9949C20.2419 11.9901 20.25 11.9783 20.25 11.9652V10C20.25 8.75736 19.2426 7.75 18 7.75H6Z" fill="#2D2E2E"/>
</svg>
