<svg width="24" height="24" viewBox="0 0 24 24" fill="none" xmlns="http://www.w3.org/2000/svg">
<path d="M12.7116 9.2372C12.8425 8.84424 12.6302 8.4195 12.2372 8.28852C11.8442 8.15754 11.4195 8.36992 11.2885 8.76287L9.28852 14.7631C9.15754 15.1561 9.36992 15.5808 9.76288 15.7118C10.1558 15.8428 10.5806 15.6304 10.7116 15.2374L12.7116 9.2372Z" fill="#2D2E2E"/>
<path fill-rule="evenodd" clip-rule="evenodd" d="M7.25004 10C7.25004 9.30968 7.80968 8.75004 8.50004 8.75004C9.19039 8.75004 9.75004 9.30968 9.75004 10C9.75004 10.6904 9.19039 11.25 8.50004 11.25C7.80968 11.25 7.25004 10.6904 7.25004 10ZM8.50004 10.25C8.63811 10.25 8.75004 10.1381 8.75004 10C8.75004 9.86197 8.63811 9.75004 8.50004 9.75004C8.36197 9.75004 8.25004 9.86197 8.25004 10C8.25004 10.1381 8.36197 10.25 8.50004 10.25Z" fill="#2D2E2E"/>
<path fill-rule="evenodd" clip-rule="evenodd" d="M13.5 12.75C12.8097 12.75 12.25 13.3097 12.25 14C12.25 14.6904 12.8097 15.25 13.5 15.25C14.1904 15.25 14.75 14.6904 14.75 14C14.75 13.3097 14.1904 12.75 13.5 12.75ZM13.75 14C13.75 14.1381 13.6381 14.25 13.5 14.25C13.362 14.25 13.25 14.1381 13.25 14C13.25 13.862 13.362 13.75 13.5 13.75C13.6381 13.75 13.75 13.862 13.75 14Z" fill="#2D2E2E"/>
<path fill-rule="evenodd" clip-rule="evenodd" d="M7.78081 3.46286C10.0107 3.31421 12.1962 4.13537 13.7764 5.71562L20.1162 12.0554C21.1901 13.1293 21.1901 14.8705 20.1162 15.9445L14.9446 21.116C13.8706 22.19 12.1294 22.19 11.0555 21.116L4.71574 14.7763C3.1355 13.196 2.31433 11.0105 2.46299 8.78068L2.57709 7.06921C2.70205 5.1947 4.19482 3.70193 6.06933 3.57696L7.78081 3.46286ZM12.7157 6.77628C11.4413 5.50189 9.67886 4.83966 7.88058 4.95954L6.16911 5.07364C5.0444 5.14862 4.14874 6.04428 4.07376 7.16899L3.95967 8.88046C3.83978 10.6787 4.50201 12.4412 5.77641 13.7156L12.1162 20.0554C12.6043 20.5435 13.3958 20.5435 13.8839 20.0554L19.0555 14.8838C19.5436 14.3956 19.5436 13.6042 19.0555 13.116L12.7157 6.77628Z" fill="#2D2E2E"/>
</svg>
