<svg width="24" height="24" viewBox="0 0 24 24" fill="none" xmlns="http://www.w3.org/2000/svg">
<path fill-rule="evenodd" clip-rule="evenodd" d="M11.8807 16.18L8.03033 20.0303C7.81583 20.2448 7.49324 20.309 7.21299 20.1929C6.93273 20.0768 6.75 19.8033 6.75 19.5V16.5C6.75 16.3619 6.63807 16.25 6.5 16.25C4.98122 16.25 3.75 15.0188 3.75 13.5V7.5C3.75 5.98122 4.98122 4.75 6.5 4.75H16.5C18.0188 4.75 19.25 5.98122 19.25 7.5V9.37858C19.8608 9.88298 20.25 10.646 20.25 11.5V14.1667C20.25 15.2894 19.362 16.2046 18.25 16.2484V18.5C18.25 18.8033 18.0673 19.0768 17.787 19.1929C17.5068 19.309 17.1842 19.2448 16.9697 19.0303L14.1893 16.25H12.5C12.287 16.25 12.0797 16.2258 11.8807 16.18ZM5.25 7.5C5.25 6.80964 5.80964 6.25 6.5 6.25H16.5C17.1904 6.25 17.75 6.80964 17.75 7.5V8.76121C17.6677 8.75379 17.5843 8.75 17.5 8.75H12.5C10.9812 8.75 9.75 9.98122 9.75 11.5V13.5C9.75 14.244 10.0454 14.9189 10.5254 15.414L8.25 17.6893V16.5C8.25 15.5335 7.4665 14.75 6.5 14.75C5.80964 14.75 5.25 14.1904 5.25 13.5V7.5ZM18.75 11.5C18.75 10.8096 18.1904 10.25 17.5 10.25H12.5C11.8096 10.25 11.25 10.8096 11.25 11.5V13.5C11.25 14.1904 11.8096 14.75 12.5 14.75H14.5C14.6989 14.75 14.8897 14.829 15.0303 14.9697L16.75 16.6893V16.1667C16.75 15.3843 17.3843 14.75 18.1667 14.75C18.4888 14.75 18.75 14.4888 18.75 14.1667V11.5Z" fill="#2D2E2E"/>
</svg>
