<svg width="24" height="24" viewBox="0 0 24 24" fill="none" xmlns="http://www.w3.org/2000/svg">
<path d="M11.9697 6.9697C11.6768 7.2626 11.6768 7.73747 11.9697 8.03036L14.9697 11.0304C15.2626 11.3233 15.7375 11.3233 16.0303 11.0304C16.3232 10.7375 16.3232 10.2626 16.0303 9.9697L13.0303 6.9697C12.7375 6.67681 12.2626 6.67681 11.9697 6.9697Z" fill="#2D2E2E"/>
<path d="M9.96969 10.0304C9.67679 9.73747 9.67679 9.2626 9.96969 8.9697C10.2626 8.67681 10.7375 8.67681 11.0303 8.9697L12.0303 9.9697C12.3232 10.2626 12.3232 10.7375 12.0303 11.0304C11.7375 11.3233 11.2626 11.3233 10.9697 11.0304L9.96969 10.0304Z" fill="#2D2E2E"/>
<path fill-rule="evenodd" clip-rule="evenodd" d="M2.45411 15.182C1.86832 14.5962 1.86832 13.6465 2.45411 13.0607L13.0607 2.45411C13.6465 1.86832 14.5962 1.86832 15.182 2.45411L16.3558 3.62789C16.7201 3.99218 16.8471 4.53432 16.6862 5.02373C16.2204 6.44064 17.5667 7.79773 18.9797 7.32018C19.4688 7.1549 20.0092 7.28129 20.3742 7.64631L21.546 8.81807C22.1318 9.40386 22.1318 10.3536 21.546 10.9394L10.9394 21.546C10.3536 22.1318 9.40386 22.1318 8.81807 21.546L7.64038 20.3683C7.27831 20.0062 7.15006 19.4716 7.30848 18.9847C7.76527 17.5806 6.42677 16.253 5.01889 16.6979C4.5316 16.8519 3.99514 16.7231 3.63378 16.3617L2.45411 15.182ZM14.1214 3.51477L15.2374 4.63076C14.4741 7.14175 16.8237 9.56103 19.3753 8.76868L20.4853 9.87873L14.298 16.0661L7.934 9.70214L14.1214 3.51477ZM6.87334 10.7628L3.51477 14.1214L4.63909 15.2457C7.13229 14.5163 9.51828 16.8331 8.7604 19.367L9.87873 20.4853L13.2373 17.1268L6.87334 10.7628Z" fill="#2D2E2E"/>
</svg>
