<svg width="24" height="24" viewBox="0 0 24 24" fill="none" xmlns="http://www.w3.org/2000/svg">
<path fill-rule="evenodd" clip-rule="evenodd" d="M9.29198 19H13.708C14.0938 19.883 14.9748 20.5 16 20.5C17.0252 20.5 17.9062 19.883 18.292 19H19.7773C21.0046 19 21.9995 18.0051 21.9995 16.7778V13.3183C21.9995 13.1112 21.9352 12.9092 21.8155 12.7403L18.6461 8.26592C18.0837 7.47191 17.1711 7 16.1981 7H15V6C15 4.89543 14.1046 4 13 4H4C2.89543 4 2 4.89543 2 6V18.25C2 18.6642 2.33579 19 2.75 19H4.70802C5.0938 19.883 5.97484 20.5 7 20.5C8.02516 20.5 8.9062 19.883 9.29198 19ZM13 5.5H4C3.72386 5.5 3.5 5.72386 3.5 6V17.5H4.55001C4.78164 16.3589 5.79052 15.5 7 15.5C8.20948 15.5 9.21836 16.3589 9.44999 17.5H13.4995L13.5 6C13.5 5.72386 13.2761 5.5 13 5.5ZM16 19C15.4501 19 15.0038 18.5561 15 18.007C15.0172 17.4545 15.4654 17.0106 16.0196 17.0002C16.5523 17.0104 16.983 17.4372 16.9995 17.9684V18.0316C16.9828 18.5693 16.5417 19 16 19ZM16.0395 15.5L16.0197 15.5001L16 15.5C15.6444 15.5 15.3062 15.5742 15 15.708V13.5H20.4995V16.7778C20.4995 17.1767 20.1762 17.5 19.7773 17.5H18.4566C18.2412 16.3612 17.2409 15.5 16.0395 15.5ZM19.453 12H15V8.5H16.1981C16.6846 8.5 17.1409 8.73596 17.4221 9.13296L19.453 12ZM7 17C7.55228 17 8 17.4477 8 18C8 18.5523 7.55228 19 7 19C6.44772 19 6 18.5523 6 18C6 17.4477 6.44772 17 7 17Z" fill="#2D2E2E"/>
</svg>
