<svg width="24" height="24" viewBox="0 0 24 24" fill="none" xmlns="http://www.w3.org/2000/svg">
<path fill-rule="evenodd" clip-rule="evenodd" d="M12.0441 3.88006C11.8209 3.57031 11.4814 3.34505 11.0784 3.274L7.21166 2.59218C6.4293 2.45423 5.67335 2.94434 5.48001 3.71488L4.29037 8.45609C4.16969 8.93706 4.10636 9.43062 4.1017 9.92648C4.08758 11.4314 4.61403 12.8914 5.58533 14.0411L6.28002 14.8633L5.46489 19.4861L3.56933 19.1519C3.16141 19.08 2.77241 19.3523 2.70048 19.7603C2.62856 20.1682 2.90093 20.5572 3.30885 20.6291L8.57719 21.5581C8.98512 21.63 9.37411 21.3576 9.44604 20.9497C9.51796 20.5418 9.24559 20.1528 8.83767 20.0809L6.9421 19.7466L7.75729 15.1234L8.69091 14.5886C9.99684 13.8406 10.9909 12.6487 11.4924 11.2296C11.6576 10.7621 11.7669 10.2767 11.818 9.78342L12.0441 7.60096L12.2702 9.78342C12.3213 10.2767 12.4305 10.7621 12.5958 11.2296C13.0972 12.6487 14.0913 13.8406 15.3972 14.5886L16.3308 15.1234L17.146 19.7466L15.2505 20.0809C14.8425 20.1528 14.5702 20.5418 14.6421 20.9497C14.714 21.3576 15.103 21.63 15.5109 21.5581L20.7793 20.6291C21.1872 20.5572 21.4596 20.1682 21.3876 19.7603C21.3157 19.3523 20.9267 19.08 20.5188 19.1519L18.6232 19.4861L17.8081 14.8633L18.5028 14.0411C19.4741 12.8914 20.0006 11.4314 19.9864 9.92648C19.9818 9.43062 19.9184 8.93706 19.7978 8.45609L18.6081 3.71488C18.4148 2.94434 17.6588 2.45423 16.8765 2.59218L13.0097 3.274C12.6067 3.34505 12.2673 3.57031 12.0441 3.88006ZM10.8297 4.76669C10.83 4.76374 10.8294 4.76153 10.8294 4.76153C10.8294 4.76153 10.8283 4.75852 10.8269 4.75665C10.8254 4.75477 10.8229 4.75286 10.8229 4.75286C10.8229 4.75286 10.8209 4.75172 10.818 4.75121L6.95119 4.06939C6.94827 4.06887 6.94602 4.06927 6.94602 4.06927C6.94602 4.06927 6.94295 4.07018 6.94097 4.07146C6.939 4.07274 6.93692 4.07518 6.93692 4.07518C6.93692 4.07518 6.93563 4.07707 6.93491 4.07994L5.76757 8.73228L6.27105 8.92868C7.11384 9.25744 8.01339 9.41605 8.9178 9.39537C9.39398 9.38448 9.87008 9.41435 10.3409 9.48458L10.8297 4.76669ZM6.73112 13.073C6.0652 12.2848 5.67394 11.305 5.61057 10.2811L5.72593 10.3261C6.75322 10.7269 7.8497 10.9202 8.95209 10.895C9.30041 10.887 9.64869 10.9056 9.99389 10.9506C9.59093 11.9336 8.87104 12.7568 7.94533 13.2871L7.24899 13.6859L6.73112 13.073ZM13.2585 4.76669C13.2582 4.76374 13.2587 4.76153 13.2587 4.76153C13.2587 4.76153 13.2599 4.75852 13.2613 4.75665C13.2627 4.75477 13.2653 4.75286 13.2653 4.75286C13.2653 4.75286 13.2672 4.75172 13.2702 4.75121L17.1369 4.06939C17.1399 4.06887 17.1421 4.06927 17.1421 4.06927C17.1421 4.06927 17.1452 4.07018 17.1472 4.07146C17.1491 4.07274 17.1512 4.07518 17.1512 4.07518C17.1512 4.07518 17.1525 4.07707 17.1532 4.07994L18.3206 8.73228L17.8171 8.92868C16.9743 9.25744 16.0747 9.41605 15.1703 9.39537C14.6942 9.38448 14.2181 9.41435 13.7472 9.48458L13.2585 4.76669ZM14.0942 10.9506C14.4972 11.9336 15.2171 12.7568 16.1428 13.2871L16.8391 13.6859L17.357 13.073C18.0229 12.2848 18.4142 11.305 18.4776 10.2811L18.3622 10.3261C17.3349 10.7269 16.2384 10.9202 15.136 10.895C14.7877 10.887 14.4394 10.9056 14.0942 10.9506Z" fill="#2D2E2E"/>
</svg>
