<svg width="24" height="24" viewBox="0 0 24 24" fill="none" xmlns="http://www.w3.org/2000/svg">
<path d="M18 12.75C17.5858 12.75 17.25 13.0858 17.25 13.5C17.25 13.9142 17.5858 14.25 18 14.25H18.25C18.6642 14.25 19 13.9142 19 13.5C19 13.0858 18.6642 12.75 18.25 12.75H18Z" fill="#2D2E2E"/>
<path fill-rule="evenodd" clip-rule="evenodd" d="M16.2115 4.26282C16.0833 3.87826 15.6728 3.66514 15.2845 3.78162L5.38158 6.7525C3.91773 6.81452 2.75 8.02089 2.75 9.49999V17.5C2.75 19.0188 3.98122 20.25 5.5 20.25H17.5C19.0188 20.25 20.25 19.0188 20.25 17.5V16.0816C20.8412 15.8007 21.25 15.1981 21.25 14.5V12.5C21.25 11.8019 20.8412 11.1993 20.25 10.9184V9.49999C20.25 7.98121 19.0188 6.74999 17.5 6.74999H17.0406L16.2115 4.26282ZM16.5 16.25H18.75V17.5C18.75 18.1904 18.1904 18.75 17.5 18.75H5.5C4.80964 18.75 4.25 18.1904 4.25 17.5V9.49999C4.25 8.81424 4.8022 8.25747 5.4862 8.25007C5.49639 8.25025 5.5066 8.25023 5.51684 8.24999H16.4825C16.4941 8.25026 16.5057 8.25027 16.5173 8.24999H17.5C18.1904 8.24999 18.75 8.80964 18.75 9.49999V10.75H16.5C15.5335 10.75 14.75 11.5335 14.75 12.5V14.5C14.75 15.4665 15.5335 16.25 16.5 16.25ZM15.4594 6.74999L15.0186 5.42744L10.6101 6.74999H15.4594ZM16.5 12.25C16.3619 12.25 16.25 12.3619 16.25 12.5V14.5C16.25 14.6381 16.3619 14.75 16.5 14.75H19.5C19.6381 14.75 19.75 14.6381 19.75 14.5V12.5C19.75 12.3619 19.6381 12.25 19.5 12.25H16.5Z" fill="#2D2E2E"/>
</svg>
