<svg width="24" height="24" viewBox="0 0 24 24" fill="none" xmlns="http://www.w3.org/2000/svg">
<path d="M12.0003 3.91675C8.05008 3.91675 4.67809 5.54339 2.13148 8.1405C1.84148 8.43626 1.84614 8.91111 2.14189 9.20111C2.43765 9.49112 2.9125 9.48645 3.2025 9.1907C5.49553 6.85219 8.49201 5.41675 12.0003 5.41675C15.5083 5.41675 18.5053 6.85191 20.7982 9.18991C21.0882 9.48564 21.5631 9.49026 21.8588 9.20023C22.1545 8.9102 22.1592 8.43535 21.8691 8.13962C19.3225 5.54298 15.9501 3.91675 12.0003 3.91675Z" fill="#2D2E2E"/>
<path d="M3.78947 10.1504C5.865 7.95916 8.73013 6.58344 12.0007 6.58344C15.2704 6.58344 18.1362 7.95852 20.2117 10.149C20.4966 10.4497 20.4838 10.9244 20.1832 11.2093C19.8825 11.4942 19.4078 11.4814 19.1229 11.1807C17.3104 9.2678 14.83 8.08344 12.0007 8.08344C9.17081 8.08344 6.69114 9.26823 4.8785 11.1819C4.59365 11.4826 4.11895 11.4955 3.81823 11.2107C3.5175 10.9258 3.50463 10.4511 3.78947 10.1504Z" fill="#2D2E2E"/>
<path d="M12 9.24988C9.41327 9.24988 7.04501 10.3737 5.4413 12.1644C5.16496 12.473 5.19109 12.9471 5.49965 13.2235C5.80821 13.4998 6.28237 13.4737 6.5587 13.1651C7.8846 11.6846 9.84977 10.7499 12 10.7499C14.15 10.7499 16.1155 11.6844 17.4413 13.1646C17.7177 13.4731 18.1919 13.4992 18.5004 13.2228C18.8089 12.9465 18.835 12.4723 18.5587 12.1638C16.9549 10.3734 14.5864 9.24988 12 9.24988Z" fill="#2D2E2E"/>
<path d="M7.2489 14.1964C8.36294 12.8074 10.0803 11.9166 12.0007 11.9166C13.922 11.9166 15.6356 12.8082 16.7493 14.1973C17.0083 14.5205 16.9564 14.9925 16.6332 15.2516C16.31 15.5107 15.838 15.4588 15.5789 15.1356C14.7377 14.0863 13.4477 13.4166 12.0007 13.4166C10.5534 13.4166 9.25989 14.0865 8.41906 15.1349C8.15991 15.458 7.68788 15.5099 7.36475 15.2508C7.04162 14.9916 6.98975 14.5196 7.2489 14.1964Z" fill="#2D2E2E"/>
<path fill-rule="evenodd" clip-rule="evenodd" d="M9.91699 17.9999C9.91699 16.8493 10.8497 15.9166 12.0003 15.9166C13.1509 15.9166 14.0837 16.8493 14.0837 17.9999C14.0837 19.1505 13.1509 20.0832 12.0003 20.0832C10.8497 20.0832 9.91699 19.1505 9.91699 17.9999ZM12.0003 17.4166C11.6782 17.4166 11.417 17.6777 11.417 17.9999C11.417 18.3221 11.6782 18.5832 12.0003 18.5832C12.3225 18.5832 12.5837 18.3221 12.5837 17.9999C12.5837 17.6777 12.3225 17.4166 12.0003 17.4166Z" fill="#2D2E2E"/>
</svg>
