<svg width="24" height="24" viewBox="0 0 24 24" fill="none" xmlns="http://www.w3.org/2000/svg">
<path d="M14.4004 1.75C14.8146 1.75 15.1504 2.08579 15.1504 2.5V8.16667C15.1504 8.86987 15.3785 9.5541 15.8004 10.1167L16.3004 10.7833C16.5276 11.0863 16.6504 11.4547 16.6504 11.8333V20C16.6504 20.4142 16.9862 20.75 17.4004 20.75C17.8146 20.75 18.1504 20.4142 18.1504 20V11.8333C18.1504 11.4547 18.2732 11.0863 18.5004 10.7833L19.0004 10.1166C19.4223 9.55409 19.6504 8.86987 19.6504 8.16669L19.6505 2.49999C19.6505 2.08578 19.9863 1.74999 20.4005 1.75C20.8147 1.75001 21.1505 2.0858 21.1505 2.50001L21.1504 8.16671C21.1504 9.19444 20.8171 10.1945 20.2004 11.0166L19.7004 11.6833C19.6679 11.7266 19.6504 11.7792 19.6504 11.8333V20C19.6504 21.2426 18.643 22.25 17.4004 22.25C16.1578 22.25 15.1504 21.2426 15.1504 20V11.8333C15.1504 11.7792 15.1328 11.7266 15.1004 11.6833L14.6004 11.0167C13.9837 10.1945 13.6504 9.19443 13.6504 8.16667V2.5C13.6504 2.08579 13.9862 1.75 14.4004 1.75Z" fill="#2D2E2E"/>
<path fill-rule="evenodd" clip-rule="evenodd" d="M3.19504 3.24264C3.25512 2.40161 3.95493 1.75 4.7981 1.75H10.3494C11.2073 1.75 11.9139 2.4238 11.9547 3.28071L12.2195 8.84176C12.2417 9.3088 12.2142 9.77689 12.1373 10.2381C11.8501 11.9615 10.89 13.5003 9.46825 14.5158L8.25 15.386V20.75H11.5C11.9142 20.75 12.25 21.0858 12.25 21.5C12.25 21.9142 11.9142 22.25 11.5 22.25H3.5C3.08579 22.25 2.75 21.9142 2.75 21.5C2.75 21.0858 3.08579 20.75 3.5 20.75H6.75V15.3859L5.48742 14.4841C4.09406 13.4889 3.15313 11.9809 2.87163 10.2919C2.78788 9.78934 2.7639 9.27866 2.8002 8.7705L3.19504 3.24264ZM4.7981 3.25C4.74189 3.25 4.69524 3.29344 4.69123 3.34951L4.30511 8.75525C4.92788 8.77667 5.54696 8.86366 6.15204 9.01493L6.56971 9.11935C7.9435 9.46279 9.38244 9.41358 10.724 8.98275C10.7233 8.95953 10.7223 8.93631 10.7212 8.91309L10.4564 3.35205C10.4537 3.29492 10.4066 3.25 10.3494 3.25H4.7981ZM6.35927 13.2635C5.34917 12.542 4.6488 11.4695 4.39198 10.2604C4.86274 10.2855 5.33031 10.3557 5.78824 10.4701L6.20591 10.5746C7.627 10.9298 9.1063 10.9344 10.5185 10.5967C10.1985 11.6798 9.52493 12.632 8.59639 13.2952L7.50005 14.0783L6.35927 13.2635Z" fill="#2D2E2E"/>
<path d="M18.1504 2.5C18.1504 2.08579 17.8146 1.75 17.4004 1.75C16.9862 1.75 16.6504 2.08579 16.6504 2.5V8.5C16.6504 8.91421 16.9862 9.25 17.4004 9.25C17.8146 9.25 18.1504 8.91421 18.1504 8.5V2.5Z" fill="#2D2E2E"/>
</svg>
