<svg width="24" height="24" viewBox="0 0 24 24" fill="none" xmlns="http://www.w3.org/2000/svg">
<path d="M9.87596 11.916C9.6462 11.5714 9.73933 11.1057 10.084 10.876L11.584 9.87596C11.8359 9.70801 12.1641 9.70801 12.416 9.87596L13.916 10.876C14.2607 11.1057 14.3538 11.5714 14.124 11.916C13.8943 12.2607 13.4286 12.3538 13.084 12.124L12 11.4014L10.916 12.124C10.5714 12.3538 10.1057 12.2607 9.87596 11.916Z" fill="#2D2E2E"/>
<path d="M10.084 13.876C9.73933 14.1057 9.6462 14.5714 9.87596 14.916C10.1057 15.2607 10.5714 15.3538 10.916 15.124L12 14.4014L13.084 15.124C13.4286 15.3538 13.8943 15.2607 14.124 14.916C14.3538 14.5714 14.2607 14.1057 13.916 13.876L12.416 12.876C12.1641 12.708 11.8359 12.708 11.584 12.876L10.084 13.876Z" fill="#2D2E2E"/>
<path d="M9.87596 17.916C9.6462 17.5714 9.73933 17.1057 10.084 16.876L11.584 15.876C11.8359 15.708 12.1641 15.708 12.416 15.876L13.916 16.876C14.2607 17.1057 14.3538 17.5714 14.124 17.916C13.8943 18.2607 13.4286 18.3538 13.084 18.124L12 17.4014L10.916 18.124C10.5714 18.3538 10.1057 18.2607 9.87596 17.916Z" fill="#2D2E2E"/>
<path fill-rule="evenodd" clip-rule="evenodd" d="M12.75 2C12.75 1.58579 12.4142 1.25 12 1.25C11.5858 1.25 11.25 1.58579 11.25 2V4.07536L9.59963 5.06558C9.07252 5.38184 8.75 5.95148 8.75 6.56619V8.125L7.45 9.1C7.00934 9.4305 6.75 9.94917 6.75 10.5V20.7501H5C4.58579 20.7501 4.25 21.0859 4.25 21.5001C4.25 21.9143 4.58579 22.2501 5 22.2501H19C19.4142 22.2501 19.75 21.9143 19.75 21.5001C19.75 21.0859 19.4142 20.7501 19 20.7501H17.25V10.5C17.25 9.94917 16.9907 9.4305 16.55 9.1L15.25 8.125V6.56619C15.25 5.95148 14.9275 5.38184 14.4004 5.06558L12.75 4.07536V2ZM15.75 20.7501V10.5C15.75 10.4213 15.713 10.3472 15.65 10.3L14.081 9.12322L12.1286 7.95182C12.0495 7.90431 11.9505 7.90431 11.8714 7.95182L9.91905 9.12321L8.35 10.3C8.28705 10.3472 8.25 10.4213 8.25 10.5V20.7501H15.75ZM10.3714 6.35182L12 5.37464L13.6286 6.35182C13.7039 6.397 13.75 6.47837 13.75 6.56619V7.17536L12.9004 6.66558C12.3462 6.33306 11.6538 6.33306 11.0996 6.66558L10.25 7.17536V6.56619C10.25 6.47837 10.2961 6.397 10.3714 6.35182Z" fill="#2D2E2E"/>
</svg>
